<svg width="23" height="18" viewBox="0 0 23 18" fill="none" xmlns="http://www.w3.org/2000/svg">
<g clip-path="url(#clip0_176_1701)">
<path fill-rule="evenodd" clip-rule="evenodd" d="M-1.43506 0H24.3949V17.6615H-1.43506V0Z" fill="#199D00"/>
<path fill-rule="evenodd" clip-rule="evenodd" d="M5.07425 5.00629C5.04442 5.41889 5.00867 6.14501 5.35048 6.21948C5.76393 6.26026 5.53593 5.50178 5.6856 5.36425C5.71388 5.29629 5.76605 5.29594 5.77035 5.38167V6.025C5.76659 6.23425 5.90068 6.29586 6.00484 6.33908C6.11327 6.33049 6.18565 6.33422 6.22813 6.44239L6.27898 7.55524C6.27898 7.55524 6.53042 7.62906 6.54239 6.92929C6.5544 6.51845 6.46235 6.17454 6.51633 6.09458C6.51821 6.01603 6.61602 6.01134 6.68382 6.04963C6.79192 6.1278 6.84004 6.22435 7.00801 6.18575C7.26355 6.11352 7.41718 5.98602 7.42095 5.78478C7.40602 5.5935 7.3851 5.40222 7.30431 5.21095C7.31558 5.17614 7.25497 5.08604 7.26621 5.05124C7.31215 5.12502 7.38204 5.11888 7.39791 5.05124C7.35442 4.90425 7.28692 4.76341 7.17752 4.70242C7.08711 4.62074 6.95477 4.63743 6.9063 4.80784C6.88387 5.00418 6.97532 5.23748 7.11472 5.42765C7.14432 5.50195 7.18592 5.62541 7.16763 5.73659C7.09347 5.78002 7.01927 5.76191 6.95712 5.69461C6.95712 5.69461 6.75371 5.53814 6.75371 5.50336C6.80769 5.14889 6.76568 5.1087 6.73578 5.01032C6.71486 4.87452 6.65204 4.83098 6.60115 4.73823C6.55026 4.6829 6.48142 4.6829 6.44852 4.73823C6.35859 4.89811 6.40053 5.24127 6.46548 5.39502C6.51243 5.53638 6.58413 5.6251 6.55023 5.6251C6.52235 5.70499 6.46467 5.68653 6.42269 5.59433C6.36276 5.40374 6.35075 5.11936 6.35075 4.99135C6.33279 4.83257 6.31302 4.49393 6.21114 4.4079C6.14899 4.32111 6.05687 4.36344 6.02468 4.44267C6.01799 4.60025 6.01728 4.75779 6.03461 4.90301C6.10446 5.15769 6.12642 5.38167 6.16033 5.64248C6.16974 5.99185 5.96337 5.79406 5.97279 5.62086C6.02038 5.39588 6.00804 5.04175 5.96573 4.95199C5.93223 4.86224 5.89264 4.84009 5.81112 4.85486C5.74637 4.85082 5.57979 5.03737 5.53301 5.34683C5.53301 5.34683 5.49312 5.50612 5.47613 5.64755C5.45326 5.80737 5.35068 5.92017 5.27871 5.62506C5.21656 5.41061 5.17835 4.88259 5.07422 5.00625L5.07425 5.00629Z" fill="white"/>
<path fill-rule="evenodd" clip-rule="evenodd" d="M6.19768 6.69934C5.83283 6.88227 5.47999 7.05291 5.12109 7.2297C5.13421 6.97941 5.63295 6.52759 5.97305 6.52124C6.19442 6.52759 6.13879 6.6092 6.19768 6.69937V6.69934Z" fill="white"/>
<path fill-rule="evenodd" clip-rule="evenodd" d="M6.00957 7.0453C5.44218 8.54539 7.33823 8.7544 7.55012 7.10674C7.57007 7.03913 7.65001 6.97152 7.664 7.08214C7.62004 8.57399 6.19741 8.67651 5.95566 8.20717C5.89576 8.09654 5.87773 7.85063 5.87174 7.70306C5.83576 7.41005 5.68596 7.52275 5.66198 7.81372C5.63796 7.9756 5.64398 8.02076 5.64398 8.17647C5.71989 9.35479 7.55217 8.84864 7.84986 7.87522C8.0077 7.33623 7.82386 6.93871 7.90976 6.94075C8.09161 7.14158 8.3453 6.96738 8.40127 6.8977C8.42528 6.86286 8.48525 6.84036 8.52719 6.88542C8.66902 6.99 8.91884 6.94071 8.97077 6.7563C9.00077 6.57596 9.02475 6.38948 9.03074 6.19689C8.91481 6.2338 8.82894 6.25833 8.82094 6.30755L8.79696 6.46737C8.787 6.51863 8.68701 6.52063 8.68308 6.45505C8.63912 6.25012 8.4573 6.22349 8.34739 6.54115C8.27343 6.60262 8.1396 6.61494 8.12558 6.52273C8.14354 6.30959 8.05963 6.28089 7.89183 6.3813C7.83785 5.95915 7.78394 5.55549 7.72996 5.1333C7.79991 5.13123 7.86388 5.18449 7.92785 5.10253C7.85783 4.87921 7.71001 4.42218 7.62805 4.38938C7.58809 4.34022 7.55406 4.37096 7.50219 4.38324C7.41428 4.41194 7.33235 4.48983 7.35828 4.64147C7.46221 5.28901 7.53014 5.78291 7.63407 6.43049C7.65001 6.50631 7.58809 6.60666 7.50818 6.59642C7.3723 6.50217 7.33844 6.31162 7.10661 6.31976C6.93874 6.32183 6.74687 6.50831 6.72296 6.68872C6.69497 6.83209 6.68495 6.9878 6.72289 7.11288C6.84084 7.25834 6.9827 7.24406 7.10657 7.21126C7.20848 7.16824 7.29236 7.06372 7.32835 7.08828C7.35236 7.11905 7.3343 7.46324 6.84878 7.72765C6.55509 7.86287 6.32128 7.89368 6.19546 7.64772C6.11753 7.49401 6.20145 6.90998 6.00957 7.04527V7.0453Z" fill="white"/>
<path fill-rule="evenodd" clip-rule="evenodd" d="M8.41628 5.52029C8.53016 5.47724 9.06973 4.84405 9.06973 4.84405C9.04172 4.81945 9.01673 4.801 8.98874 4.7764C8.95874 4.74977 8.96177 4.72314 8.98874 4.69648C9.1226 4.61658 9.07965 4.44135 9.00973 4.36146C8.89383 4.30813 8.79293 4.32558 8.71897 4.36449C8.62507 4.45673 8.60314 4.60424 8.6771 4.69648C8.74908 4.73132 8.82095 4.80614 8.77296 4.84712C8.55222 5.08893 7.94777 5.50597 8.01773 5.52029C8.03266 5.54078 8.40434 5.53975 8.41628 5.52029V5.52029ZM5.15813 7.76144C4.9558 8.09204 4.93818 8.58598 5.04984 8.73324C5.10916 8.80282 5.20663 8.83328 5.27874 8.81151C5.40587 8.75494 5.4615 8.49077 5.43133 8.39412C5.38889 8.32603 5.35549 8.31523 5.31311 8.37318C5.22365 8.55945 5.18652 8.43165 5.17868 8.32754C5.16496 8.13013 5.18309 7.9483 5.20398 7.80432C5.22624 7.65675 5.20364 7.70187 5.15813 7.76144ZM13.8046 7.23194C13.6089 6.80003 13.3381 6.37322 13.2519 6.20926C13.1658 6.04524 12.5152 5.07689 12.4195 4.96799C12.2081 4.71041 12.7626 5.07527 12.3493 4.56384C12.1917 4.42517 12.1825 4.41672 12.0518 4.30358C11.9858 4.25556 11.8247 4.16784 11.7961 4.31323C11.7818 4.44145 11.7895 4.51096 11.8105 4.61772C11.8266 4.68889 11.9277 4.80807 11.9774 4.87713C12.6375 5.78711 13.2227 6.70606 13.7871 7.86148C13.8763 7.81801 13.8568 7.30421 13.8046 7.23194H13.8046Z" fill="white"/>
<path fill-rule="evenodd" clip-rule="evenodd" d="M12.946 8.67692C12.9075 8.72121 13.041 8.91066 13.2144 8.91045C13.5044 8.87596 13.7597 8.70886 13.9961 8.26901C14.0594 8.16643 14.1705 7.94704 14.1737 7.77687C14.1958 6.7791 14.1251 6.00268 13.9793 5.28149C13.9699 5.21126 13.9756 5.12868 13.9872 5.10763C14.006 5.08463 14.0697 5.10774 14.1035 5.05092C14.1531 4.99901 13.9719 4.56903 13.8685 4.40341C13.8319 4.32946 13.8191 4.28006 13.7584 4.41211C13.6945 4.51939 13.6516 4.70663 13.6566 4.88159C13.795 5.86411 13.8375 6.7236 13.9279 7.70612C13.9353 7.80112 13.9216 7.93921 13.8601 7.99426C13.6323 8.23821 13.3035 8.53849 12.946 8.67692V8.67692ZM16.8639 8.67175C16.6557 8.79514 16.6555 8.93708 16.8238 8.94222C17.1138 8.90769 17.4565 8.88299 17.6929 8.51693C17.7561 8.41434 17.8313 8.13697 17.8345 7.9668C17.8566 6.96903 17.8218 6.22428 17.676 5.50316C17.6667 5.43289 17.6364 5.27121 17.648 5.25013C17.6668 5.20074 17.7613 5.25551 17.7951 5.19867C17.8447 5.14679 17.5504 4.75896 17.447 4.59335C17.4104 4.51942 17.3976 4.47002 17.3369 4.60204C17.273 4.70935 17.2507 4.90187 17.2762 5.07155C17.43 6.13842 17.5445 6.93992 17.5681 7.8855C17.5549 7.97525 17.5516 8.02365 17.5106 8.13673C17.4198 8.25608 17.3192 8.40527 17.2249 8.4774C17.1306 8.5495 16.9295 8.61835 16.8639 8.67178V8.67175Z" fill="white"/>
<path fill-rule="evenodd" clip-rule="evenodd" d="M17.0199 7.71518C17.0175 7.46567 17.0234 7.25022 17.0154 7.06415C17.0073 6.87805 16.9753 6.72651 16.9125 6.59443C16.8531 6.45279 16.89 6.33899 16.8621 6.18811C16.8342 6.0373 16.841 5.81142 16.7989 5.63246C16.7874 5.56257 16.7519 5.33873 16.7629 5.31728C16.7801 5.26733 16.8455 5.31883 16.8775 5.26095C16.9253 5.20741 16.7114 4.63976 16.6029 4.47766C16.5639 4.40498 16.493 4.42989 16.4057 4.54803C16.3246 4.62582 16.3547 4.80316 16.3856 4.97184C16.5938 6.08573 16.749 7.09392 16.7151 8.15427C16.7047 8.24444 17.0221 7.88538 17.0199 7.71518V7.71518ZM15.4822 6.33364C15.3513 6.33119 15.0772 6.07238 14.9971 5.92074C14.9669 5.83377 14.9863 5.74892 15.013 5.69921C15.0614 5.66689 15.136 5.63056 15.1917 5.6654C15.1917 5.6654 15.2496 5.74833 15.2384 5.75889C15.3098 5.794 15.3402 5.77379 15.3474 5.74398C15.3523 5.69176 15.3263 5.66064 15.326 5.60314C15.3563 5.44722 15.5301 5.42297 15.5955 5.52242C15.6434 5.58303 15.661 5.71187 15.6683 5.79883C15.6675 5.84326 15.5973 5.79114 15.5575 5.80183C15.5176 5.81252 15.508 5.85971 15.5049 5.90239C15.4977 6.01546 15.4847 6.1969 15.4822 6.33361V6.33364ZM13.0664 7.99183C13.1024 7.65281 13.0531 7.04904 13.0498 6.849C13.0365 6.37642 12.9613 5.46361 12.9255 5.3111C12.8851 5.02365 13.0407 5.34263 13.0192 5.17554C12.9687 4.8885 12.8135 4.69392 12.631 4.43099C12.5721 4.34544 12.5741 4.32802 12.4833 4.45197C12.3827 4.68584 12.4695 4.84676 12.4955 5.02893C12.6271 5.62246 12.7039 6.16855 12.7396 6.7084C12.7754 7.24825 12.7864 7.83198 12.7537 8.40056C12.8523 8.40453 13.0109 8.23692 13.0664 7.99179V7.99183Z" fill="white"/>
<path fill-rule="evenodd" clip-rule="evenodd" d="M17.4655 7.44888C17.2347 7.05167 16.8864 6.62144 16.7933 6.46149C16.7003 6.3015 15.9133 5.26002 15.813 5.1555C15.5251 4.84529 15.945 5.105 15.7579 4.8654C15.5996 4.68713 15.5534 4.63117 15.4179 4.52396C15.35 4.47895 15.3088 4.39295 15.2865 4.53949C15.2776 4.66822 15.2683 4.81717 15.2768 4.92566C15.2763 4.98599 15.3375 5.09931 15.3901 5.16609C16.0881 6.04572 16.8495 6.94387 17.4625 8.073C17.5497 8.02557 17.5207 7.51877 17.4655 7.44888V7.44888Z" fill="white"/>
<path fill-rule="evenodd" clip-rule="evenodd" d="M6.99304 6.71584C6.97643 6.74571 6.93943 6.78442 6.95184 6.82446C6.97774 6.86048 6.99845 6.86779 7.04164 6.86976C7.07911 6.86976 7.13144 6.87883 7.14271 6.85616C7.16289 6.8334 7.17819 6.78686 7.16141 6.74299C7.12239 6.64295 7.01342 6.68021 6.99304 6.71584V6.71584Z" fill="#1BA400"/>
<path fill-rule="evenodd" clip-rule="evenodd" d="M14.7816 12.5059C15.0903 12.5175 15.2923 12.5203 15.5669 12.5538C15.5669 12.5538 15.8036 12.5298 15.8882 12.5167C16.2456 12.4817 16.2614 13.0402 16.2614 13.0402C16.2575 13.3678 16.1342 13.3849 15.9768 13.4195C15.8869 13.4312 15.8397 13.3643 15.7924 13.293C15.7331 13.3184 15.6525 13.3221 15.5548 13.3082C15.4262 13.2999 15.2975 13.3005 15.1689 13.2922C15.0323 13.2799 14.9596 13.3068 14.8229 13.2945C14.7948 13.3398 14.7582 13.4026 14.6746 13.3824C14.605 13.3745 14.5227 13.1743 14.5469 13.0221C14.5971 12.9129 14.5833 12.9481 14.5781 12.9001C13.316 12.8671 12.0419 12.8094 10.8038 12.8259C9.8352 12.83 8.87855 12.8712 7.92193 12.9125C7.41149 12.9042 7.02162 12.8218 6.75232 12.4178C6.77643 12.4178 8.05458 12.492 8.42841 12.4672C9.11973 12.4589 9.75075 12.4013 10.4541 12.3806C11.8408 12.4054 13.2155 12.4054 14.6021 12.5043C14.4694 12.4112 14.4647 12.1914 14.6688 12.1377C14.6862 12.1254 14.6951 12.247 14.7257 12.2447C14.889 12.2321 14.8174 12.4591 14.7815 12.5058L14.7816 12.5059ZM9.21438 4.66648C9.00424 5.28253 9.33478 5.9564 9.56396 5.89079C9.72929 5.96098 9.83456 5.63839 9.90227 5.28495C9.94858 5.18574 9.98356 5.17518 10.0073 5.22617C10.0012 5.69616 10.0403 5.80027 10.1581 5.94294C10.4209 6.15091 10.6383 5.9695 10.6553 5.95198L10.86 5.74211C10.9055 5.69296 10.9661 5.69009 11.0305 5.73338C11.093 5.79168 11.0842 5.89234 11.2181 5.96216C11.3307 6.00838 11.5715 5.97285 11.6274 5.8733C11.7024 5.74132 11.7205 5.69599 11.7552 5.64594C11.8088 5.57278 11.9002 5.6053 11.9002 5.62842C11.8916 5.66922 11.838 5.71007 11.8746 5.78354C11.9383 5.83256 11.9531 5.80103 11.9908 5.79013C12.1241 5.72476 12.2242 5.42731 12.2242 5.42731C12.2301 5.31665 12.1696 5.32579 12.1304 5.34859C12.0793 5.38067 12.0759 5.39092 12.0247 5.423C11.9596 5.43293 11.8331 5.47726 11.7706 5.37798C11.7067 5.25859 11.7059 5.09202 11.6571 4.97163C11.6571 4.96287 11.5724 4.78197 11.6512 4.77038C11.691 4.77797 11.7759 4.80101 11.7893 4.72771C11.8311 4.65624 11.7 4.45389 11.6103 4.35168C11.5324 4.26399 11.4246 4.25344 11.3204 4.34295C11.2475 4.41177 11.258 4.48866 11.2436 4.56155C11.2251 4.64523 11.229 4.7482 11.3119 4.8589C11.3847 5.00609 11.5175 5.19567 11.4739 5.46225C11.4739 5.46225 11.3963 5.58826 11.2611 5.57178C11.2048 5.55918 11.1134 5.53466 11.0646 5.16494C11.0277 4.88511 11.0733 4.49356 10.9575 4.31001C10.9157 4.19918 10.8852 4.09214 10.7832 4.28172C10.7558 4.35616 10.6383 4.46914 10.7235 4.7015C10.7933 4.84879 10.8217 5.08853 10.79 5.35532C10.7417 5.4311 10.731 5.45677 10.6676 5.53259C10.5786 5.63073 10.482 5.60568 10.4081 5.56902C10.339 5.52124 10.2848 5.49654 10.2533 5.34476C10.259 5.10285 10.2721 4.70681 10.229 4.62281C10.1654 4.4927 10.0606 4.53975 10.0158 4.57907C9.8007 4.78083 9.69442 5.12127 9.62944 5.39237C9.56977 5.58992 9.50627 5.53331 9.46161 5.45359C9.35298 5.34914 9.34558 4.53223 9.21438 4.66655V4.66648Z" fill="white"/>
<path fill-rule="evenodd" clip-rule="evenodd" d="M9.84701 6.00564C9.94242 5.9363 9.89783 5.88787 10.0405 6.0342C10.2192 6.34748 10.334 6.75325 10.3513 7.11272C10.3437 7.20131 10.4046 7.25736 10.4325 7.23811C10.449 7.03014 10.9421 6.74038 11.3942 6.69802C11.4634 6.6826 11.4297 6.54669 11.441 6.47739C11.4139 6.21995 11.5821 5.98556 11.8178 5.96686C12.1385 6.0155 12.2453 6.19115 12.2507 6.45928C12.2161 6.97402 11.6933 7.06129 11.3995 7.10234C11.3545 7.11983 11.3357 7.14115 11.3995 7.16636L12.6303 7.17209L12.6931 7.20928C12.7007 7.23939 12.6752 7.21428 12.6266 7.29634C12.578 7.37841 12.5064 7.56765 12.5027 7.694C12.136 7.81494 11.7567 7.86793 11.3712 7.91574C11.2373 7.98521 11.1709 8.07776 11.1984 8.18194C11.2434 8.2975 11.5401 8.41292 11.5401 8.4184C11.5964 8.45462 11.6631 8.5392 11.5241 8.71247C10.9238 8.68539 10.4586 8.42333 10.2975 8.05348C10.249 8.01488 10.1967 8.05327 10.1632 8.10325C9.9288 8.41316 9.69818 8.69222 9.29856 8.84038C9.06024 8.90144 8.8163 8.80288 8.70107 8.64283C8.62395 8.55173 8.62688 8.45114 8.59856 8.42934C8.46974 8.48777 7.36137 8.97081 7.50186 8.7458C7.77159 8.44965 8.23862 8.23216 8.65106 7.93988C8.68082 7.84195 8.73494 7.51069 8.89782 7.40279C8.90724 7.40359 8.87203 7.59735 8.87556 7.67903C8.87741 7.74609 8.87075 7.77238 8.88508 7.75513C8.91289 7.73691 9.41335 7.3336 9.45202 7.20993C9.50079 7.13901 9.46665 6.95939 9.46665 6.95394C9.37282 6.70585 9.24115 6.68478 9.19235 6.56153C9.14842 6.39778 9.1683 6.21088 9.25954 6.15879C9.3406 6.08335 9.43655 6.09267 9.52507 6.17511C9.62617 6.26797 9.71594 6.44945 9.74191 6.58464C9.72455 6.6381 9.60963 6.54911 9.56977 6.57567C9.64033 6.65059 9.67326 6.73704 9.69875 6.8428C9.76393 7.12597 9.74406 7.23604 9.67844 7.41914C9.45626 7.89828 9.1723 8.04127 8.92385 8.21878C8.91723 8.22119 8.91282 8.34037 9.00625 8.40481C9.03847 8.43951 9.16806 8.45731 9.32045 8.40722C9.61491 8.24254 9.92056 7.93916 10.0723 7.60118C10.1164 7.34553 10.0553 7.07443 9.99045 6.838C9.89282 6.60696 9.77783 6.27704 9.77783 6.27159C9.77402 6.12751 9.78546 6.07752 9.84707 6.00564H9.84701ZM6.62465 4.67309C6.76631 4.74239 7.03265 4.71289 7.02138 4.4786C7.02138 4.45791 7.01623 4.38781 7.01422 4.3688C6.98529 4.29974 6.90642 4.31682 6.88853 4.38812C6.88291 4.41147 6.89855 4.44952 6.87794 4.46125C6.8661 4.4735 6.82083 4.46629 6.82271 4.40157C6.82271 4.38095 6.80791 4.3588 6.79897 4.34569C6.79002 4.33969 6.78434 4.33803 6.76813 4.33803C6.74835 4.33883 6.74869 4.34411 6.73786 4.36115C6.73325 4.37846 6.72693 4.3954 6.72693 4.41506C6.72444 4.4381 6.71596 4.44631 6.69945 4.44973C6.68098 4.44973 6.68515 4.4518 6.67019 4.44204C6.66131 4.43203 6.65021 4.42824 6.65021 4.41123C6.65021 4.39361 6.64631 4.36508 6.64113 4.35345C6.63329 4.34283 6.62068 4.33793 6.60649 4.33417C6.52913 4.33445 6.52375 4.42496 6.52822 4.45932C6.5224 4.4658 6.51914 4.62817 6.62465 4.67309V4.67309Z" fill="white"/>
<path fill-rule="evenodd" clip-rule="evenodd" d="M10.7774 6.47576C10.919 6.54506 11.2562 6.50519 11.1741 6.28128C11.1741 6.26058 11.1689 6.19045 11.1669 6.17148C11.138 6.10242 11.0591 6.11949 11.0412 6.1908C11.0356 6.21415 11.0513 6.2522 11.0306 6.26393C11.0188 6.27617 10.9735 6.26896 10.9754 6.20425C10.9754 6.18362 10.9606 6.16148 10.9517 6.14837C10.9427 6.14237 10.937 6.14071 10.9208 6.14071C10.9011 6.1415 10.9014 6.14678 10.8906 6.16382C10.886 6.18114 10.8796 6.19808 10.8796 6.21774C10.8771 6.24078 10.8687 6.24899 10.8522 6.25241C10.8337 6.25241 10.8379 6.25447 10.8229 6.24471C10.814 6.23471 10.8029 6.23091 10.8029 6.21391C10.8029 6.19628 10.799 6.16775 10.7938 6.15613C10.786 6.1455 10.7734 6.14061 10.7592 6.13685C10.6818 6.13712 10.6765 6.22764 10.6809 6.26199C10.6751 6.26848 10.6719 6.43085 10.7774 6.47576V6.47576ZM13.1989 5.72963C13.3406 5.79893 13.6069 5.76944 13.5957 5.53515C13.5957 5.51445 13.5905 5.44436 13.5885 5.42535C13.5596 5.35629 13.4807 5.37336 13.4628 5.44467C13.4572 5.46802 13.4728 5.50607 13.4522 5.5178C13.4404 5.53004 13.3951 5.52283 13.397 5.45812C13.397 5.43749 13.3822 5.41534 13.3732 5.40224C13.3643 5.39623 13.3586 5.39458 13.3424 5.39458C13.3226 5.39537 13.323 5.40065 13.3121 5.41769C13.3075 5.43501 13.3012 5.45194 13.3012 5.47161C13.2987 5.49465 13.2902 5.50286 13.2737 5.50627C13.2553 5.50627 13.2594 5.50834 13.2445 5.49858C13.2356 5.48858 13.2244 5.48478 13.2244 5.46778C13.2244 5.45015 13.2206 5.42162 13.2154 5.41C13.2076 5.39937 13.195 5.39447 13.1808 5.39071C13.1034 5.39099 13.098 5.48151 13.1025 5.51586C13.0967 5.52235 13.0934 5.68472 13.1989 5.72963V5.72963ZM14.4531 7.60375C14.2062 7.88913 14.3151 8.3611 14.3708 8.46279C14.4522 8.62981 14.5178 8.73692 14.6761 8.81954C14.8204 8.92844 14.9328 8.86038 14.9948 8.78411C15.14 8.62981 15.1417 8.23584 15.2098 8.15778C15.2577 8.01438 15.378 8.03888 15.4364 8.10242C15.493 8.18589 15.5597 8.23971 15.6429 8.28517C15.7783 8.4077 15.94 8.43005 16.0993 8.31843C16.2081 8.25578 16.2789 8.17486 16.3426 8.01421C16.4135 7.82 16.374 6.92251 16.3598 6.39059C16.3544 6.34885 16.2191 5.65912 16.2191 5.65143C16.2191 5.6437 16.2012 5.29941 16.1864 5.21738C16.1837 5.18409 16.1757 5.17453 16.2097 5.17874C16.2458 5.20989 16.2507 5.21186 16.2733 5.2221C16.3097 5.22893 16.3422 5.16536 16.3203 5.10689L15.9823 4.46759C15.9552 4.4402 15.9202 4.41012 15.8772 4.47532C15.8361 4.51226 15.7923 4.57915 15.7937 4.66514C15.8036 4.81665 15.8296 4.97077 15.8396 5.12231L15.9748 5.90024C16.0174 6.45479 16.028 6.90864 16.0706 7.46319C16.0646 7.69799 15.9935 7.90272 15.9267 7.93225C15.9267 7.93225 15.8251 7.99262 15.757 7.92594C15.7075 7.90555 15.5092 7.58702 15.5092 7.58702C15.4079 7.49171 15.341 7.51897 15.2689 7.58702C15.07 7.78403 14.98 8.15254 14.8448 8.40673C14.81 8.46348 14.7115 8.51201 14.6023 8.40259C14.3251 8.01425 14.4876 7.46167 14.4531 7.60375V7.60375ZM13.2625 4.36948C13.3894 4.42399 13.4789 4.68763 13.4497 4.81637C13.4245 4.97563 13.3572 5.14763 13.3088 5.12524C13.2562 5.10523 13.3446 4.96691 13.2941 4.82182C13.266 4.72737 13.0928 4.55479 13.111 4.50391C13.0753 4.39732 13.1847 4.35068 13.2625 4.36948Z" fill="white"/>
<path fill-rule="evenodd" clip-rule="evenodd" d="M14.8617 7.76002C14.8884 7.44339 14.8434 7.25032 14.8353 7.06422C14.8273 6.87811 14.6301 5.45815 14.5901 5.31734C14.5419 5.05111 14.7818 5.28164 14.7556 5.12679C14.6726 4.93155 14.466 4.64731 14.4011 4.47773C14.3621 4.40508 14.3785 4.34044 14.2911 4.45862C14.2101 4.73031 14.182 4.95239 14.2129 5.1211C14.421 6.23495 14.6344 7.16115 14.6006 8.22149C14.6992 8.22218 14.813 7.98989 14.8617 7.76005V7.76002ZM17.03 4.81827C17.1457 4.87725 17.2135 5.20768 17.2007 5.3021C17.1777 5.47454 17.1163 5.66074 17.0722 5.63649C17.0243 5.61483 17.0818 5.38078 17.0588 5.308C17.0332 5.20575 16.8753 5.01893 16.892 4.96384C16.8593 4.84845 16.9591 4.79795 17.03 4.81827V4.81827ZM8.43112 7.16118C8.54178 7.20451 8.60669 7.44732 8.59445 7.51672C8.57238 7.64339 8.51363 7.78023 8.47148 7.76243C8.42561 7.7465 8.4807 7.5745 8.45867 7.52104C8.44932 7.39133 8.29572 7.32417 8.29891 7.26815C8.27026 7.16515 8.36319 7.14621 8.43112 7.16122V7.16118Z" fill="white"/>
<path fill-rule="evenodd" clip-rule="evenodd" d="M11.1053 7.52581C11.2481 7.53513 11.3195 7.65007 11.1857 7.69829C11.0537 7.74462 10.9269 7.78084 10.9263 7.97646C10.9751 8.24904 10.8594 8.15549 10.7903 8.11848C10.7089 8.05856 10.4806 7.91427 10.448 7.60277C10.4432 7.52844 10.4997 7.46586 10.5906 7.46631C10.7277 7.5045 10.9299 7.50729 11.1053 7.52581H11.1053Z" fill="#1B9D00"/>
<path fill-rule="evenodd" clip-rule="evenodd" d="M5.47304 4.29085C5.63633 4.34135 5.64598 4.58751 5.63394 4.65947C5.61218 4.79083 5.55433 4.93267 5.5128 4.91418C5.46759 4.89769 5.51101 4.71939 5.48932 4.66392C5.4651 4.58603 5.32714 4.4437 5.34278 4.40176C5.31208 4.31383 5.40611 4.27533 5.47304 4.29085V4.29085ZM8.69779 5.45127C8.57251 5.52078 8.52391 5.72792 8.60194 5.84859C8.67478 5.95483 8.78984 5.91544 8.80518 5.91544C8.92794 5.9312 9.00075 5.67942 9.00075 5.67942C9.00075 5.67942 9.00462 5.60864 8.85886 5.74241C8.79751 5.75421 8.78984 5.73058 8.77451 5.69515C8.76173 5.62961 8.76428 5.56407 8.79368 5.4985C8.8154 5.43558 8.76808 5.40802 8.69779 5.45127V5.45127ZM9.63749 4.19565C9.57453 4.23894 9.44921 4.37209 9.44538 4.52552C9.44158 4.61207 9.42587 4.6118 9.4811 4.66689C9.52102 4.72594 9.56128 4.72063 9.64186 4.67734C9.68814 4.64236 9.70378 4.61914 9.71939 4.5605C9.73856 4.46219 9.61802 4.60714 9.60268 4.49772C9.57584 4.3961 9.65326 4.3545 9.72611 4.25619C9.72853 4.18882 9.72712 4.14111 9.63749 4.19565V4.19565ZM10.3946 4.33363C10.3674 4.3951 10.3349 4.71628 10.3403 4.71628C10.3187 4.81197 10.438 4.85292 10.4922 4.72991C10.5736 4.50441 10.5736 4.40876 10.579 4.31307C10.5536 4.16736 10.4579 4.17191 10.3946 4.33363ZM15.1677 6.82487C15.184 6.80818 15.8403 6.32976 15.8403 6.32976C15.9072 6.30565 15.8927 6.5764 15.862 6.57454C15.8747 6.62828 15.2148 7.08817 15.1677 7.06965C15.1352 7.09376 15.1026 6.88424 15.1677 6.82487H15.1677ZM15.7661 6.82073C15.8818 6.87972 15.9278 7.22684 15.9151 7.32126C15.9192 7.50484 15.8036 7.65207 15.7594 7.62785C15.7115 7.60619 15.7636 7.39994 15.7406 7.32715C15.715 7.22491 15.6168 7.0325 15.6334 6.97741C15.6008 6.86202 15.6951 6.80041 15.7661 6.82073V6.82073ZM11.8623 8.31575C11.9079 8.24731 12.049 8.14883 12.0522 8.14883C12.1172 8.11544 12.1808 8.17501 12.1769 8.17108C12.1877 8.23786 12.1357 8.29999 12.152 8.38902C12.1662 8.4249 12.1767 8.46474 12.2408 8.44956C12.345 8.36546 12.4416 8.36004 12.5458 8.3547C12.6256 8.35963 12.6288 8.4983 12.5783 8.49934C12.3859 8.54221 12.2996 8.59506 12.1622 8.64884C12.0971 8.68778 12.0413 8.63839 12.0413 8.63283C12.0413 8.62728 12.0032 8.59496 12.0298 8.50651C12.0345 8.43559 12.0067 8.39671 11.9491 8.40475C11.9057 8.42883 11.8675 8.44476 11.8458 8.39361C11.8372 8.35584 11.8345 8.33745 11.8623 8.31575V8.31575ZM16.4565 8.50272C16.4847 8.53942 16.5029 8.5734 16.4543 8.6337C16.4082 8.67695 16.3758 8.70079 16.3298 8.74405C16.3081 8.78206 16.2942 8.83973 16.3607 8.85812C16.4834 8.89351 16.7672 8.70469 16.7672 8.70075C16.8133 8.66536 16.7979 8.59848 16.794 8.59848C16.7672 8.56702 16.7067 8.58571 16.6661 8.58061C16.6467 8.58061 16.5832 8.57074 16.6134 8.51307C16.6386 8.47719 16.6477 8.45522 16.6648 8.41099C16.684 8.36774 16.6675 8.3389 16.5984 8.31527C16.5281 8.30216 16.5 8.30872 16.422 8.31527C16.3799 8.32445 16.3655 8.3438 16.3578 8.39623C16.3608 8.47578 16.408 8.47126 16.4565 8.50272V8.50272Z" fill="white"/>
<path fill-rule="evenodd" clip-rule="evenodd" d="M11.8874 6.5452C11.8695 6.57711 11.8086 6.57555 11.7516 6.54175C11.6945 6.50794 11.6628 6.45458 11.6808 6.42264C11.6988 6.39069 11.7597 6.39228 11.8167 6.42616C11.8738 6.46003 11.9054 6.51329 11.8874 6.5452ZM8.89171 4.69646C8.8576 4.70502 8.81304 4.67383 8.79215 4.62682C8.77127 4.5798 8.78203 4.53475 8.8161 4.52619C8.85017 4.51764 8.89477 4.54879 8.91565 4.59581C8.93654 4.64282 8.92581 4.68791 8.89171 4.69646Z" fill="#259F00"/>
<path fill-rule="evenodd" clip-rule="evenodd" d="M14.8177 12.9347C15.1322 12.9504 15.4277 12.9383 15.7422 12.9541C15.7991 13.0038 15.7585 13.1257 15.7205 13.117C15.6182 13.1143 15.5593 13.1118 15.457 13.1091C15.4535 13.0064 15.1979 13.0232 15.2052 13.1124C15.0672 13.1294 14.9427 13.1074 14.8046 13.1022C14.7638 13.0501 14.769 12.9562 14.8177 12.9347H14.8177Z" fill="#209000"/>
</g>
<defs>
<clipPath id="clip0_176_1701">
<rect width="22.96" height="17.6615" fill="white"/>
</clipPath>
</defs>
</svg>
