<svg width="206" height="210" viewBox="0 0 206 210" fill="none" xmlns="http://www.w3.org/2000/svg">
<g opacity="0.32">
<path d="M206 2V121.339C206 123.561 205.869 125.652 205.738 127.744C205.738 128.266 205.607 128.789 205.607 129.312C205.476 130.227 205.476 131.142 205.344 132.057C205.213 132.711 205.213 133.495 205.082 134.148C204.951 134.802 204.82 135.586 204.689 136.24C204.558 136.893 204.427 137.678 204.296 138.331C204.164 138.985 204.033 139.508 203.902 140.161C203.771 140.553 203.64 141.076 203.64 141.468C203.509 141.86 203.509 142.253 203.378 142.514C203.247 143.037 203.115 143.56 202.984 144.082C202.853 144.605 202.722 144.997 202.591 145.52C202.067 147.35 201.542 149.049 200.886 150.879V151.01C200.493 152.056 200.1 152.971 199.706 154.016C199.444 154.801 199.051 155.585 198.789 156.369C198.658 156.761 198.395 157.154 198.264 157.546C198.133 157.807 198.133 157.938 198.002 158.199C197.871 158.591 197.609 158.983 197.477 159.376C197.346 159.506 197.346 159.768 197.215 159.898C196.953 160.291 196.822 160.683 196.56 161.075C195.249 163.558 193.937 165.911 192.364 168.264C192.102 168.787 191.708 169.179 191.446 169.571C190.922 170.225 190.528 171.009 190.004 171.662C189.611 172.185 189.348 172.577 188.955 173.1C188.562 173.623 188.168 174.146 187.644 174.799C187.25 175.322 186.857 175.845 186.333 176.368C185.939 176.891 185.415 177.414 185.022 177.937C184.628 178.459 184.104 178.982 183.71 179.505C183.317 180.028 182.924 180.42 182.399 180.943C182.268 181.074 182.268 181.074 182.137 181.204C181.744 181.596 181.481 181.989 181.088 182.25C180.957 182.381 180.826 182.511 180.695 182.642C180.301 183.034 179.777 183.557 179.384 183.949C178.859 184.472 178.335 184.864 177.81 185.387C176.892 186.302 175.843 187.086 174.795 188.001C174.663 188.132 174.532 188.132 174.401 188.263C173.877 188.655 173.483 189.047 172.959 189.439C171.91 190.223 170.861 191.138 169.681 191.792C169.55 191.923 169.55 191.923 169.419 192.053C168.894 192.445 168.37 192.838 167.845 193.099C167.321 193.491 166.665 193.883 166.141 194.275C165.485 194.668 164.961 195.06 164.305 195.321C163.65 195.713 163.125 196.105 162.47 196.367C161.814 196.759 161.29 197.02 160.634 197.412C160.11 197.674 159.454 198.066 158.93 198.327C158.798 198.327 158.798 198.458 158.667 198.458C158.143 198.72 157.487 198.981 156.963 199.242C156.438 199.504 155.914 199.765 155.258 200.027C155.127 200.157 154.996 200.157 154.865 200.157C154.341 200.419 153.685 200.68 153.16 200.942C151.849 201.464 150.669 201.987 149.358 202.51C148.703 202.772 148.178 202.902 147.654 203.164C147.26 203.294 146.998 203.425 146.605 203.556C146.211 203.687 145.687 203.817 145.294 203.948C144.638 204.079 144.113 204.34 143.458 204.471C143.327 204.471 143.065 204.602 142.933 204.602C142.409 204.732 141.753 204.863 141.229 205.124C140.573 205.255 139.918 205.516 139.131 205.647C138.607 205.778 138.213 205.909 137.689 205.909C137.427 205.909 137.033 206.039 136.771 206.039C135.198 206.301 133.624 206.693 132.051 206.824C131.658 206.954 131.264 206.954 130.74 206.954C130.478 206.954 130.215 206.954 130.084 207.085C129.56 207.216 128.904 207.216 128.38 207.216H128.249C127.724 207.216 127.2 207.346 126.806 207.346C126.413 207.346 126.02 207.477 125.495 207.477C125.364 207.477 125.233 207.477 124.971 207.477C124.577 207.477 124.053 207.477 123.659 207.608C123.397 207.608 123.004 207.608 122.742 207.608C122.348 207.608 121.824 207.608 121.431 207.608C120.775 207.608 120.119 207.608 119.464 207.608H5V197.412C5 177.152 9.72016 157.938 18.2427 140.815C32.272 113.104 56.3973 90.7525 85.8982 79.25C99.7965 73.7601 114.744 70.6231 130.477 70.3617C129.429 70.8845 128.511 71.4074 127.462 71.9302C123.528 74.1523 119.726 76.6358 116.055 79.1193C88.1272 99.118 72.6556 127.874 67.2798 161.859H107.663C126.937 161.859 143.327 150.226 150.407 133.626C152.636 128.397 153.947 122.646 154.078 116.633C154.078 116.503 154.078 116.372 154.078 116.372C154.078 116.11 154.078 115.849 154.078 115.457V46.5723H80.7847C80.2603 46.5723 79.8669 46.5723 79.3425 46.5723C78.818 46.5723 78.4247 46.5723 78.0313 46.5723C77.1135 46.5723 76.1957 46.5723 75.2779 46.703C74.3601 46.703 73.4423 46.8338 72.5245 46.8338C72.2622 46.8338 71.8689 46.8338 71.6067 46.9645C70.9511 46.9645 70.4266 47.0952 69.771 47.0952C68.3288 47.2259 66.8865 47.4873 65.4442 47.7487C64.6575 47.8794 64.002 48.0101 63.2153 48.1409C62.6908 48.2716 62.0352 48.4023 61.5108 48.533C60.3307 48.7944 59.2818 49.0558 58.1018 49.3173C56.3973 49.7094 54.6928 50.2322 52.9883 50.7551C49.9726 51.67 47.2192 52.7157 44.4658 53.8921C43.2857 54.415 42.2368 54.9378 41.0568 55.4607C40.6634 55.5914 40.2701 55.8528 40.0078 55.9835C39.3523 56.3756 38.5656 56.7678 37.91 57.1599C31.3542 60.9505 26.1096 65.7868 22.1761 71.6688C22.1761 71.6688 22.1761 71.7995 22.045 71.7995C20.6027 74.1523 19.2916 76.5051 18.1115 79.25V66.4403C18.1115 59.5127 19.1605 52.8464 21.2583 46.703C25.3229 34.0241 33.3209 23.0444 43.6791 15.2018C44.3346 14.6789 44.9902 14.2868 45.6458 13.764C46.3014 13.2411 46.9569 12.849 47.6125 12.4569C48.2681 12.0647 48.9237 11.6726 49.5793 11.1497C50.2348 10.7576 50.8904 10.3655 51.6771 9.97335C52.3327 9.58122 53.1194 9.18909 53.775 8.92766C55.6106 8.01269 57.4462 7.22843 59.2818 6.44416C60.593 5.92132 61.9041 5.52919 63.2153 5.00634C63.8708 4.74492 64.5264 4.61421 65.3131 4.35279C65.9687 4.22208 66.6243 3.96066 67.411 3.82995C67.8043 3.69924 68.1977 3.69924 68.591 3.56853C69.771 3.30711 70.9511 3.04569 72.2622 2.91497C73.0489 2.78426 73.9667 2.65355 74.7534 2.52284C75.9335 2.39213 77.2446 2.26142 78.5558 2.13071C78.9491 2.13071 79.2113 2.13071 79.6047 2.13071C80.6536 2 81.7025 2 82.7515 2H206Z" fill="white"/>
<path d="M206 2V121.339C206 123.561 205.869 125.652 205.738 127.744C205.738 128.266 205.607 128.789 205.607 129.312C205.476 130.227 205.476 131.142 205.344 132.057C205.213 132.711 205.213 133.495 205.082 134.148C204.951 134.802 204.82 135.586 204.689 136.24C204.558 136.893 204.427 137.678 204.296 138.331C204.164 138.985 204.033 139.508 203.902 140.161C203.771 140.553 203.64 141.076 203.64 141.468C203.509 141.86 203.509 142.253 203.378 142.514C203.247 143.037 203.116 143.56 202.984 144.082C202.853 144.605 202.722 144.997 202.591 145.52C202.067 147.35 201.542 149.049 200.887 150.879V151.01C200.493 152.056 200.1 152.971 199.706 154.016C199.444 154.801 199.051 155.585 198.789 156.369C198.658 156.761 198.395 157.154 198.264 157.546C198.133 157.807 198.133 157.938 198.002 158.199C197.871 158.591 197.609 158.983 197.478 159.376C197.346 159.506 197.346 159.768 197.215 159.898C196.953 160.291 196.822 160.683 196.56 161.075C195.249 163.558 193.937 165.911 192.364 168.264C192.102 168.787 191.708 169.179 191.446 169.571C190.922 170.225 190.528 171.009 190.004 171.662C189.611 172.185 189.348 172.577 188.955 173.1C188.562 173.623 188.168 174.146 187.644 174.799C187.251 175.322 186.857 175.845 186.333 176.368C185.939 176.891 185.415 177.414 185.022 177.937C184.628 178.459 184.104 178.982 183.71 179.505C183.317 180.028 182.924 180.42 182.399 180.943C182.268 181.074 182.268 181.074 182.137 181.204C181.744 181.596 181.481 181.989 181.088 182.25C180.957 182.381 180.826 182.511 180.695 182.642C180.301 183.034 179.777 183.557 179.384 183.949C178.859 184.472 178.335 184.864 177.81 185.387C176.892 186.302 175.843 187.086 174.795 188.001C174.663 188.132 174.532 188.132 174.401 188.263C173.877 188.655 173.483 189.047 172.959 189.439C171.91 190.223 170.861 191.138 169.681 191.792C169.55 191.923 169.55 191.923 169.419 192.053C168.894 192.445 168.37 192.838 167.845 193.099C167.321 193.491 166.665 193.883 166.141 194.275C165.485 194.668 164.961 195.06 164.305 195.321C163.65 195.713 163.125 196.105 162.47 196.367C161.814 196.759 161.29 197.02 160.634 197.412C160.11 197.674 159.454 198.066 158.93 198.327C158.798 198.327 158.798 198.458 158.667 198.458C158.143 198.72 157.487 198.981 156.963 199.242C156.438 199.504 155.914 199.765 155.258 200.027C155.127 200.157 154.996 200.157 154.865 200.157C154.341 200.419 153.685 200.68 153.161 200.942C151.849 201.464 150.669 201.987 149.358 202.51C148.703 202.772 148.178 202.902 147.654 203.164C147.26 203.294 146.998 203.425 146.605 203.556C146.211 203.687 145.687 203.817 145.294 203.948C144.638 204.079 144.114 204.34 143.458 204.471C143.327 204.471 143.065 204.602 142.933 204.602C142.409 204.732 141.753 204.863 141.229 205.124C140.573 205.255 139.918 205.516 139.131 205.647C138.607 205.778 138.213 205.909 137.689 205.909C137.427 205.909 137.033 206.039 136.771 206.039C135.198 206.301 133.624 206.693 132.051 206.824C131.658 206.954 131.264 206.954 130.74 206.954C130.478 206.954 130.215 206.954 130.084 207.085C129.56 207.216 128.904 207.216 128.38 207.216H128.249C127.724 207.216 127.2 207.346 126.806 207.346C126.413 207.346 126.02 207.477 125.495 207.477C125.364 207.477 125.233 207.477 124.971 207.477C124.577 207.477 124.053 207.477 123.66 207.608C123.397 207.608 123.004 207.608 122.742 207.608C122.348 207.608 121.824 207.608 121.431 207.608C120.775 207.608 120.119 207.608 119.464 207.608H115.006C116.973 206.17 118.677 204.602 120.382 202.902C151.325 173.885 154.209 128.005 154.472 118.071C154.472 117.287 154.472 116.764 154.472 116.503C154.472 116.372 154.472 116.241 154.472 116.241C154.472 115.98 154.472 115.718 154.472 115.326V46.5723H80.7848C74.8846 46.5723 68.9844 47.0952 63.2153 48.1409C62.6908 48.2716 62.0353 48.4023 61.5108 48.533C60.3308 48.7944 59.2818 49.0558 58.1018 49.3173C56.3973 49.7094 54.6928 50.2322 52.9883 50.7551C49.9726 51.67 47.2192 52.7157 44.4658 53.8921C43.2857 54.415 42.2368 54.9378 41.0568 55.4607C40.6634 55.5914 40.2701 55.8528 40.0079 55.9835C39.3523 56.3756 38.5656 56.7678 37.91 57.1599C31.3542 60.9505 26.1096 65.7868 22.1762 71.6688C22.1762 71.6688 22.1762 71.7995 22.045 71.7995C20.6028 74.1523 19.2916 76.5051 18.1116 79.25V66.4403C18.1116 59.5127 19.1605 52.8464 21.2583 46.703C25.3229 34.0241 33.321 23.0444 43.6791 15.2018C44.3347 14.6789 44.9902 14.2868 45.6458 13.764C46.3014 13.2411 46.957 12.849 47.6126 12.4569C48.2681 12.0647 48.9237 11.6726 49.5793 11.1497C50.2349 10.7576 50.8904 10.3655 51.6771 9.97335C52.3327 9.58122 53.1194 9.18909 53.775 8.92766C55.6106 8.01269 57.4462 7.22843 59.2818 6.44416C61.9041 5.39848 64.6576 4.61421 67.411 3.96066C67.8043 3.82995 68.1977 3.82995 68.591 3.69924C69.7711 3.43782 70.9511 3.1764 72.2623 3.04569C73.049 2.91497 73.9668 2.78426 74.7535 2.65355C75.9335 2.52284 77.2446 2.39213 78.5558 2.26142C78.9492 2.26142 79.2114 2.26142 79.6047 2.26142C80.6537 2 81.7026 2 82.7515 2H206Z" fill="white"/>
<path d="M201.411 6.70557V120.685C201.411 121.339 201.411 122.123 201.411 122.777C201.411 123.822 201.28 124.999 201.28 126.044C201.28 126.437 201.28 126.698 201.28 126.959C201.28 127.613 201.149 128.136 201.149 128.789C201.149 129.443 201.018 130.096 200.886 130.75C200.755 131.404 200.755 132.057 200.624 132.711C200.624 132.711 200.624 132.711 200.624 132.841C200.493 133.495 200.362 134.148 200.362 134.802C200.231 135.456 200.1 136.109 199.969 136.763C199.706 137.939 199.444 139.115 199.182 140.292C198.92 141.468 198.526 142.645 198.264 143.821C197.871 144.997 197.609 146.043 197.215 147.22C196.822 148.396 196.429 149.442 196.035 150.618C195.642 151.402 195.38 152.317 194.986 153.102C194.593 153.886 194.331 154.67 193.937 155.454C193.675 155.977 193.413 156.369 193.282 156.892C193.151 157.023 193.151 157.284 193.02 157.415C192.757 157.807 192.626 158.199 192.364 158.591C191.839 159.637 191.315 160.683 190.659 161.728C190.397 162.251 190.004 162.774 189.742 163.297C189.479 163.689 189.217 164.081 188.955 164.604C188.824 164.735 188.824 164.865 188.693 164.996C188.43 165.519 188.037 165.911 187.775 166.434C187.513 166.826 187.25 167.218 186.988 167.61C186.857 167.741 186.857 167.872 186.726 168.003C186.464 168.395 186.202 168.787 185.808 169.179C184.759 170.617 183.71 171.924 182.661 173.362C181.875 174.277 181.219 175.192 180.432 175.976C180.039 176.368 179.646 176.891 179.252 177.283C178.859 177.675 178.466 178.067 178.072 178.59C177.679 178.982 177.286 179.374 176.892 179.766C176.499 180.159 176.106 180.551 175.581 180.943C174.794 181.727 173.877 182.511 172.959 183.296C172.041 184.08 171.123 184.864 170.205 185.518C169.812 185.779 169.419 186.171 169.025 186.433C168.894 186.563 168.763 186.694 168.632 186.694C168.239 186.956 167.845 187.348 167.321 187.609C166.796 188.001 166.403 188.263 165.879 188.655C165.354 189.047 164.961 189.308 164.436 189.7C163.912 189.962 163.519 190.354 162.994 190.615C161.945 191.269 161.027 191.792 159.978 192.445C159.454 192.707 158.93 192.968 158.405 193.36C158.012 193.491 157.749 193.753 157.356 193.883C156.963 194.014 156.701 194.275 156.307 194.406L156.176 194.537C155.783 194.798 155.389 194.929 154.865 195.19C154.472 195.321 154.078 195.582 153.685 195.713C153.685 195.713 153.685 195.713 153.554 195.713C153.029 195.975 152.505 196.236 151.98 196.367C151.456 196.628 150.931 196.89 150.407 197.02C149.883 197.282 149.358 197.412 148.702 197.674C148.178 197.935 147.654 198.066 147.129 198.327C146.605 198.589 145.949 198.719 145.425 198.981C144.769 199.242 144.245 199.373 143.589 199.634C143.065 199.765 142.54 200.027 142.016 200.157C141.491 200.288 140.967 200.419 140.442 200.549C140.311 200.549 140.18 200.68 140.049 200.68C139.656 200.811 139.131 200.942 138.738 201.072C138.607 201.072 138.475 201.203 138.213 201.203C137.689 201.334 137.295 201.464 136.771 201.595C135.591 201.857 134.411 202.118 133.231 202.379C132.051 202.641 130.871 202.772 129.691 202.902C129.035 203.033 128.511 203.033 127.855 203.164C127.2 203.164 126.675 203.294 126.02 203.294C124.184 203.425 122.348 203.556 120.382 203.556C120.25 203.556 120.25 203.556 120.119 203.556C119.595 203.556 119.07 203.556 118.546 203.556H9.58899V193.752C9.58899 174.407 14.178 156.108 22.1761 139.769C35.5499 112.712 58.6262 91.4061 86.6849 80.4264C99.4031 75.4594 113.039 72.453 127.462 72.0609C123.528 74.283 119.726 76.7665 116.055 79.25C88.1271 99.2487 72.6555 128.005 67.2798 161.99H107.663C126.937 161.99 143.327 150.357 150.407 133.756C152.636 128.528 153.947 122.777 154.078 116.764C154.078 116.503 154.078 116.503 154.078 116.503C154.078 116.241 154.078 115.98 154.078 115.588V46.5723H80.7847C80.2602 46.5723 79.8669 46.5723 79.3424 46.5723C79.0802 46.5723 78.8179 46.5723 78.5557 46.5723C78.4246 46.5723 78.1624 46.5723 78.0313 46.5723C77.1134 46.5723 76.1956 46.5723 75.2778 46.703C74.36 46.703 73.4422 46.8337 72.5244 46.8337C72.3933 46.8337 72.1311 46.8337 71.9999 46.8337C71.8688 46.8337 71.7377 46.8337 71.6066 46.8337C70.951 46.8337 70.4266 46.9644 69.771 46.9644C68.3287 47.0952 66.8864 47.3566 65.4442 47.618C64.6575 47.7487 64.0019 47.8794 63.2152 48.0101C62.6908 48.1408 62.0352 48.2716 61.5107 48.4023C60.3307 48.6637 59.2817 48.9251 58.1017 49.1865C56.3972 49.5787 54.6927 50.1015 52.9882 50.6243C49.9725 51.5393 47.2191 52.585 44.4657 53.7614C43.2857 54.2842 42.2367 54.8071 41.0567 55.3299C40.6634 55.4606 40.27 55.7221 40.0078 55.8528C39.3522 56.2449 38.5655 56.637 37.9099 57.0292C31.3542 60.8198 26.1095 65.6561 22.1761 71.538V68.0089C22.1761 61.4733 23.225 55.0685 25.1917 49.1865C32.7964 25.7893 54.0371 8.53552 79.7358 6.83628C81.0469 6.70557 82.4892 6.70557 83.8003 6.70557H201.411Z" fill="white"/>
<path d="M201.411 6.70557V120.685C201.411 121.339 201.411 122.123 201.411 122.777C201.411 123.822 201.28 124.999 201.28 126.044C201.28 126.437 201.28 126.698 201.28 126.959C201.28 127.613 201.149 128.136 201.149 128.789C201.149 129.443 201.018 130.096 200.886 130.75C200.755 131.404 200.755 132.057 200.624 132.711C200.624 132.711 200.624 132.711 200.624 132.841C200.493 133.495 200.362 134.148 200.362 134.802C200.231 135.456 200.1 136.109 199.969 136.763C199.706 137.939 199.444 139.115 199.182 140.292C198.92 141.468 198.526 142.645 198.264 143.821C197.871 144.997 197.609 146.043 197.215 147.22C196.822 148.396 196.429 149.442 196.035 150.618C195.38 152.317 194.724 153.886 193.937 155.454C193.675 155.977 193.413 156.369 193.282 156.892C193.151 157.023 193.151 157.284 193.02 157.415C192.757 157.807 192.626 158.199 192.364 158.591C191.84 159.637 191.315 160.683 190.66 161.728C190.397 162.251 190.004 162.774 189.742 163.297C189.479 163.689 189.217 164.081 188.955 164.604C188.824 164.735 188.824 164.865 188.693 164.996C188.431 165.519 188.037 165.911 187.775 166.434C187.513 166.826 187.251 167.218 186.988 167.61C186.857 167.741 186.857 167.872 186.726 168.003C186.464 168.395 186.202 168.787 185.808 169.179C184.759 170.617 183.71 171.924 182.661 173.362C181.875 174.277 181.219 175.192 180.432 175.976C180.039 176.368 179.646 176.891 179.252 177.283C178.859 177.675 178.466 178.067 178.072 178.59C177.679 178.982 177.286 179.374 176.892 179.766C176.499 180.159 176.106 180.551 175.581 180.943C174.795 181.727 173.877 182.511 172.959 183.296C172.041 184.08 171.123 184.864 170.205 185.518C169.812 185.779 169.419 186.171 169.025 186.433C168.894 186.563 168.763 186.694 168.632 186.694C168.239 186.956 167.845 187.348 167.321 187.609C166.796 188.001 166.403 188.263 165.879 188.655C165.354 189.047 164.961 189.308 164.436 189.7C163.912 189.962 163.519 190.354 162.994 190.615C161.945 191.269 161.027 191.792 159.978 192.445C159.454 192.707 158.93 192.968 158.405 193.36C158.012 193.491 157.75 193.753 157.356 193.883C156.963 194.014 156.701 194.275 156.307 194.406L156.176 194.537C155.783 194.798 155.389 194.929 154.865 195.19C154.472 195.321 154.078 195.582 153.685 195.713C153.685 195.713 153.685 195.713 153.554 195.713C153.029 195.975 152.505 196.236 151.98 196.367C149.883 197.282 147.654 198.197 145.425 198.981C144.769 199.242 144.245 199.373 143.589 199.634C143.065 199.765 142.54 200.027 142.016 200.157C141.491 200.288 140.967 200.419 140.442 200.549C140.311 200.549 140.18 200.68 140.049 200.68C139.656 200.811 139.131 200.942 138.738 201.072C138.607 201.072 138.476 201.203 138.213 201.203C137.689 201.334 137.296 201.464 136.771 201.595C134.411 202.118 132.051 202.51 129.56 202.902C128.904 203.033 128.38 203.033 127.724 203.164C127.069 203.164 126.544 203.294 125.888 203.294C124.053 203.425 122.217 203.556 120.251 203.556H119.988C150.932 174.538 153.816 128.659 154.078 118.725C154.078 117.94 154.078 117.417 154.078 117.156C154.078 116.895 154.078 116.895 154.078 116.895C154.078 116.633 154.078 116.372 154.078 115.98V46.5723H80.7847C74.8846 46.5723 68.9844 47.0952 63.2153 48.1408C62.6908 48.2716 62.0352 48.4023 61.5108 48.533C60.3307 48.7944 59.2818 49.0558 58.1018 49.3172C56.3973 49.7094 54.6928 50.2322 52.9883 50.7551C49.9726 51.67 47.2192 52.7157 44.4658 53.8921C43.2857 54.415 42.2368 54.9378 41.0568 55.4606C40.6634 55.5914 40.2701 55.8528 40.0078 55.9835C39.3523 56.3756 38.5656 56.7677 37.91 57.1599C31.3542 60.9505 26.1096 65.7868 22.1761 71.6688V68.1396C22.1761 61.604 23.2251 55.1992 25.1918 49.3172C32.7965 25.7893 54.0372 8.53552 79.7358 6.83628C81.047 6.70557 82.4893 6.70557 83.8004 6.70557H201.411Z" fill="white"/>
</g>
</svg>
