<svg width="24" height="19" viewBox="0 0 24 19" fill="none" xmlns="http://www.w3.org/2000/svg">
<path d="M21.6565 0.0235294L11.9953 0.0470588L2.33412 0H2.32941C1.03059 0 0 1.21882 0 2.74353V15.5153C0 17.04 1.03059 18.2588 2.32941 18.2588H21.6706C22.9694 18.2588 24 17.04 24 15.5153V2.74353C24 1.21882 22.9788 0.0235294 21.6565 0.0235294ZM20.8988 1.90588L12.2682 9.79765L12.2353 9.82588L12.2071 9.85882C12.1035 9.97176 11.9812 9.98588 11.9153 9.98588C11.8494 9.98588 11.7271 9.96706 11.6282 9.84941L11.6 9.81647L3.35059 1.86824L11.9953 1.92471L20.8988 1.90588ZM21.6706 16.3765H2.32941C2.16471 16.3765 1.88235 16.0659 1.88235 15.5153V3.04471L10.24 11.12C10.6635 11.5906 11.2612 11.8635 11.8965 11.8729H11.9247C12.5506 11.8729 13.1341 11.6141 13.5624 11.1624L22.1271 3.32235V15.5153C22.1176 16.0659 21.8353 16.3765 21.6706 16.3765Z" fill="#010002"/>
</svg>
