<svg width="32" height="32" viewBox="0 0 32 32" fill="none" xmlns="http://www.w3.org/2000/svg">
<path d="M26.304 4.57599H3.34778V19.1849H26.304V4.57599Z" fill="#F4F4F7"/>
<path d="M15.0767 4.57599H3.34778V12.4903H15.0767V4.57599Z" fill="#307FE8"/>
<path d="M26.3049 4.57599H15.0776V5.79669H26.3049V4.57599Z" fill="#F83E55"/>
<path d="M26.3049 7.92282H15.0776V9.14353H26.3049V7.92282Z" fill="#F83E55"/>
<path d="M26.3049 11.2697H15.0776V12.4904H26.3049V11.2697Z" fill="#F83E55"/>
<path d="M26.304 14.6165H3.34778V15.8372H26.304V14.6165Z" fill="#F83E55"/>
<path d="M26.304 17.9633H3.34778V19.184H26.304V17.9633Z" fill="#F83E55"/>
<path d="M11.407 8.73412L9.93408 8.45365L9.21219 7.13977L8.49125 8.45365L7.01831 8.73412L8.04513 9.82589L7.85596 11.3129L9.21219 10.6748L10.5684 11.3129L10.3802 9.82589L11.407 8.73412Z" fill="white"/>
<path d="M7.11621 6.54965L6.37927 6.40941L6.0188 5.75247L5.65739 6.40941L4.92139 6.54965L5.43433 7.09647L5.34021 7.84L6.0188 7.52L6.69645 7.84L6.60233 7.09647L7.11621 6.54965Z" fill="white"/>
<path d="M13.504 6.54965L12.7671 6.40941L12.4066 5.75247L12.0452 6.40941L11.3092 6.54965L11.8221 7.09647L11.728 7.84L12.4066 7.52L13.0843 7.84L12.9901 7.09647L13.504 6.54965Z" fill="white"/>
</svg>
