<svg width="22" height="20" viewBox="0 0 22 20" fill="none" xmlns="http://www.w3.org/2000/svg">
<g clip-path="url(#clip0_58_2433)">
<path d="M17.4167 0.833344H4.58333C3.3682 0.834667 2.20326 1.27408 1.34403 2.05519C0.484808 2.83631 0.00145554 3.89535 0 5.00001L0 15C0.00145554 16.1047 0.484808 17.1637 1.34403 17.9448C2.20326 18.7259 3.3682 19.1654 4.58333 19.1667H17.4167C18.6318 19.1654 19.7967 18.7259 20.656 17.9448C21.5152 17.1637 21.9985 16.1047 22 15V5.00001C21.9985 3.89535 21.5152 2.83631 20.656 2.05519C19.7967 1.27408 18.6318 0.834667 17.4167 0.833344ZM4.58333 2.50001H17.4167C17.9656 2.50099 18.5016 2.65127 18.9557 2.93151C19.4099 3.21176 19.7614 3.60913 19.965 4.07251L12.9452 10.455C12.4286 10.9228 11.7291 11.1854 11 11.1854C10.2709 11.1854 9.57144 10.9228 9.05483 10.455L2.035 4.07251C2.23864 3.60913 2.59015 3.21176 3.04429 2.93151C3.49844 2.65127 4.03445 2.50099 4.58333 2.50001ZM17.4167 17.5H4.58333C3.85399 17.5 3.15451 17.2366 2.63879 16.7678C2.12306 16.2989 1.83333 15.6631 1.83333 15V6.25001L7.75867 11.6333C8.61908 12.4136 9.78474 12.8517 11 12.8517C12.2153 12.8517 13.3809 12.4136 14.2413 11.6333L20.1667 6.25001V15C20.1667 15.6631 19.8769 16.2989 19.3612 16.7678C18.8455 17.2366 18.146 17.5 17.4167 17.5Z" fill="#34489E"/>
</g>
<defs>
<clipPath id="clip0_58_2433">
<rect width="22" height="20" fill="white"/>
</clipPath>
</defs>
</svg>
