<svg width="22" height="28" viewBox="0 0 22 28" fill="none" xmlns="http://www.w3.org/2000/svg">
<path d="M11 28C11.2256 27.9987 11.4441 27.9212 11.62 27.78C12 27.44 22 19.38 22 11C22 8.08262 20.8411 5.28473 18.7782 3.22183C16.7153 1.15893 13.9174 0 11 0C8.08262 0 5.28473 1.15893 3.22183 3.22183C1.15893 5.28473 0 8.08262 0 11C0 19.38 10 27.44 10.38 27.78C10.5559 27.9212 10.7744 27.9987 11 28ZM2 11C2 8.61305 2.94821 6.32387 4.63604 4.63604C6.32387 2.94821 8.61305 2 11 2C13.3869 2 15.6761 2.94821 17.364 4.63604C19.0518 6.32387 20 8.61305 20 11C20 17.3 13.13 23.81 11 25.69C8.87 23.81 2 17.3 2 11Z" fill="black"/>
<path d="M16 11C16 10.0111 15.7068 9.0444 15.1574 8.22215C14.6079 7.39991 13.8271 6.75904 12.9134 6.3806C11.9998 6.00217 10.9945 5.90315 10.0246 6.09608C9.05465 6.289 8.16373 6.76521 7.46447 7.46447C6.76521 8.16373 6.289 9.05465 6.09608 10.0246C5.90315 10.9945 6.00217 11.9998 6.3806 12.9134C6.75904 13.8271 7.39991 14.6079 8.22215 15.1574C9.0444 15.7068 10.0111 16 11 16C12.3261 16 13.5979 15.4732 14.5355 14.5355C15.4732 13.5979 16 12.3261 16 11ZM8 11C8 10.4067 8.17595 9.82664 8.50559 9.33329C8.83524 8.83994 9.30377 8.45543 9.85195 8.22836C10.4001 8.0013 11.0033 7.94189 11.5853 8.05765C12.1672 8.1734 12.7018 8.45912 13.1213 8.87868C13.5409 9.29824 13.8266 9.83279 13.9424 10.4147C14.0581 10.9967 13.9987 11.5999 13.7716 12.1481C13.5446 12.6962 13.1601 13.1648 12.6667 13.4944C12.1734 13.8241 11.5933 14 11 14C10.2044 14 9.44129 13.6839 8.87868 13.1213C8.31607 12.5587 8 11.7957 8 11Z" fill="black"/>
</svg>
