<svg width="139" height="46" viewBox="0 0 139 46" fill="none" xmlns="http://www.w3.org/2000/svg">
<path d="M57.2113 29.8301C57.2695 29.9468 57.2695 30.0928 57.2113 30.2095C57.1531 30.3263 57.0368 30.3846 56.8041 30.3846H55.9897L55.408 28.7793H52.6449L52.0923 30.3846H51.2488C51.0452 30.3846 50.9288 30.3263 50.8707 30.2095C50.8125 30.0928 50.8125 29.976 50.8707 29.8301C51.2197 28.9253 52.0341 26.7654 53.3138 23.3212C53.4011 23.1169 53.4884 22.9418 53.6338 22.8542C53.7501 22.7666 53.8956 22.7083 54.041 22.7083C54.1864 22.7083 54.3318 22.7666 54.4482 22.8542C54.5645 22.9418 54.6809 23.1169 54.7681 23.3212L57.2113 29.8301ZM54.9717 27.5534L54.041 24.839L53.1102 27.5534H54.9717Z" fill="white"/>
<path d="M64.3373 23.2044C64.4245 23.0876 64.5409 22.9709 64.6572 22.9125C64.8027 22.8541 64.9481 22.825 65.1226 22.825C65.2971 22.825 65.4716 22.8833 65.6461 23.0293C65.8206 23.1752 65.9079 23.3795 65.9079 23.7006V29.9176C65.9079 30.2387 65.7625 30.3846 65.4425 30.3846H64.6281V25.0724L62.7667 27.7285C62.5921 27.962 62.3595 28.0788 62.0686 28.0788C61.7777 28.0788 61.5451 27.962 61.3706 27.6993L59.5091 25.0432V29.9176C59.5091 30.2095 59.3636 30.3554 59.0437 30.3554H58.2293V23.7006C58.2293 23.3795 58.3166 23.146 58.4911 23.0293C58.6656 22.8833 58.8401 22.825 59.0146 22.825C59.1891 22.825 59.3346 22.8541 59.48 22.9417C59.6254 23.0001 59.7127 23.1168 59.7999 23.2336L62.0686 26.5902L64.3373 23.2044Z" fill="white"/>
<path d="M73.2666 29.8301C73.3248 29.9468 73.3248 30.0928 73.2666 30.2095C73.2084 30.3263 73.0921 30.3846 72.8594 30.3846H72.045L71.4633 28.7793H68.6711L68.1184 30.3846H67.275C67.0714 30.3846 66.955 30.3263 66.8968 30.2095C66.8387 30.0928 66.8387 29.976 66.8968 29.8301C67.2459 28.9253 68.0603 26.7654 69.34 23.3212C69.4273 23.1169 69.5145 22.9418 69.66 22.8542C69.7763 22.7666 69.9217 22.7083 70.0672 22.7083C70.2126 22.7083 70.358 22.7666 70.4744 22.8542C70.5907 22.9418 70.707 23.1169 70.7943 23.3212L73.2666 29.8301ZM71.027 27.5534L70.0963 24.839L69.1655 27.5534H71.027Z" fill="white"/>
<path d="M79.4327 23.8174C79.4327 24.226 79.2582 24.3719 78.8801 24.2844C78.502 24.1968 78.182 24.1092 77.8621 24.0509C77.5712 23.9925 77.2513 23.9633 76.9313 23.9633C76.6114 23.9633 76.3496 23.9925 76.1751 24.0217C76.0006 24.0801 75.8552 24.1384 75.7388 24.226C75.6516 24.3136 75.5643 24.4011 75.5352 24.5179C75.5062 24.6346 75.4771 24.7806 75.4771 24.8973C75.4771 25.0724 75.5352 25.2476 75.6225 25.3643C75.7097 25.4811 75.8261 25.5686 75.9424 25.627C76.0879 25.6854 76.2333 25.7438 76.3787 25.7729C76.5532 25.8021 76.7568 25.8313 77.0186 25.8605C77.2804 25.8897 77.5712 25.9189 77.8912 25.9773C78.182 26.0356 78.4729 26.1232 78.7637 26.2691C79.0255 26.4151 79.2582 26.6486 79.4618 26.9113C79.6654 27.2031 79.7526 27.5826 79.7526 28.0788C79.7526 28.3998 79.6945 28.7209 79.6072 29.0128C79.52 29.3047 79.3454 29.5674 79.1418 29.7717C78.9092 29.976 78.6183 30.1511 78.2402 30.2971C77.8621 30.4138 77.3967 30.4722 76.815 30.4722C76.6114 30.4722 76.4078 30.4722 76.1751 30.443C75.9424 30.4138 75.7098 30.3846 75.5062 30.3554C75.2735 30.3262 75.0699 30.2679 74.8372 30.2387C74.6336 30.1803 74.43 30.1511 74.2846 30.1219V29.2755C74.2846 28.9252 74.4591 28.8085 74.8081 28.9252C74.8663 28.9544 74.9535 28.9836 75.0699 29.0128C75.1862 29.042 75.3316 29.0712 75.5062 29.1295C75.6807 29.1587 75.8552 29.1879 76.0588 29.2171C76.2624 29.2463 76.466 29.2463 76.6987 29.2463C77.3095 29.2463 77.7457 29.1587 78.0366 28.9836C78.2984 28.8085 78.4438 28.5166 78.4438 28.1663C78.4438 27.9328 78.3856 27.7577 78.2693 27.6118C78.1529 27.4658 78.0075 27.3783 77.833 27.2907C77.6585 27.2031 77.484 27.174 77.3095 27.1448C77.1349 27.1156 76.8732 27.0864 76.5823 27.0572C76.2915 27.028 76.0006 26.9696 75.7388 26.9113C75.4771 26.8529 75.2153 26.7361 74.9826 26.5902C74.7499 26.4443 74.5463 26.24 74.4009 25.9773C74.2555 25.7146 74.1682 25.3935 74.1682 24.9849C74.1682 24.5471 74.2555 24.1676 74.4009 23.8757C74.5463 23.5839 74.7499 23.3504 74.9826 23.2044C75.2444 23.0293 75.5061 22.9125 75.8552 22.8542C76.1751 22.7958 76.5241 22.7666 76.9023 22.7666C77.2513 22.7666 77.5712 22.7958 77.8912 22.8542C78.182 22.9125 78.4729 22.9709 78.7056 23.0293C78.9673 23.0877 79.2 23.1752 79.4327 23.2628V23.8174Z" fill="white"/>
<path d="M85.9478 23.8174C85.9478 24.226 85.7733 24.3719 85.3952 24.2844C85.0171 24.1968 84.6972 24.1092 84.3772 24.0509C84.0864 23.9925 83.7664 23.9633 83.4465 23.9633C83.1265 23.9633 82.8648 23.9925 82.6903 24.0217C82.5157 24.0801 82.3703 24.1384 82.254 24.226C82.1667 24.3136 82.0795 24.4011 82.0504 24.5179C82.0213 24.6346 81.9922 24.7806 81.9922 24.8973C81.9922 25.0724 82.0504 25.2476 82.1376 25.3643C82.2249 25.4811 82.3412 25.5686 82.4576 25.627C82.603 25.6854 82.7484 25.7438 82.8939 25.7729C83.0684 25.8021 83.272 25.8313 83.5337 25.8605C83.7955 25.8897 84.0864 25.9189 84.4063 25.9773C84.6972 26.0356 84.988 26.1232 85.2789 26.2691C85.5406 26.4151 85.7733 26.6486 85.9769 26.9113C86.1805 27.2031 86.2678 27.5826 86.2678 28.0788C86.2678 28.3998 86.2096 28.7209 86.1224 29.0128C86.0351 29.3047 85.8606 29.5674 85.657 29.7717C85.4243 29.976 85.1334 30.1511 84.7553 30.2971C84.3772 30.4138 83.9119 30.4722 83.3301 30.4722C83.1265 30.4722 82.9229 30.4722 82.6903 30.443C82.4576 30.4138 82.2249 30.3846 82.0213 30.3554C81.7886 30.3262 81.585 30.2679 81.3523 30.2387C81.1487 30.1803 80.9451 30.1511 80.7997 30.1219V29.2755C80.7997 28.9252 80.9742 28.8085 81.3232 28.9252C81.3814 28.9544 81.4687 28.9836 81.585 29.0128C81.7013 29.042 81.8468 29.0712 82.0213 29.1295C82.1958 29.1587 82.3703 29.1879 82.5739 29.2171C82.7775 29.2463 82.9811 29.2463 83.2138 29.2463C83.8246 29.2463 84.2609 29.1587 84.5517 28.9836C84.8135 28.8085 84.9589 28.5166 84.9589 28.1663C84.9589 27.9328 84.9008 27.7577 84.7844 27.6118C84.6681 27.4658 84.5226 27.3783 84.3481 27.2907C84.1736 27.2031 83.9991 27.174 83.8246 27.1448C83.6501 27.1156 83.3883 27.0864 83.0975 27.0572C82.8066 27.028 82.5157 26.9696 82.254 26.9113C81.9922 26.8529 81.7304 26.7361 81.4978 26.5902C81.2651 26.4443 81.0615 26.24 80.916 25.9773C80.7706 25.7146 80.6833 25.3935 80.6833 24.9849C80.6833 24.5471 80.7706 24.1676 80.916 23.8757C81.0615 23.5839 81.2651 23.3504 81.4978 23.2044C81.7595 23.0293 82.0213 22.9125 82.3703 22.8542C82.6903 22.7958 83.0393 22.7666 83.4174 22.7666C83.7664 22.7666 84.0864 22.7958 84.4063 22.8542C84.6972 22.9125 84.988 22.9709 85.2207 23.0293C85.4825 23.0877 85.7152 23.1752 85.9478 23.2628V23.8174Z" fill="white"/>
<path d="M93.2774 24.051C92.6376 24.051 92.1722 24.2845 91.9104 24.7223C91.6196 25.1601 91.4741 25.7731 91.4741 26.5319C91.4741 27.4076 91.6487 28.0789 91.9686 28.5459C92.2885 29.0129 92.8121 29.2464 93.5101 29.2464C93.8301 29.2464 94.0918 29.2172 94.2664 29.188C94.4409 29.1297 94.6154 29.1005 94.7899 29.0421C94.9353 28.9837 95.0517 28.9545 95.1098 28.9545C95.2553 28.9253 95.4007 28.9253 95.4879 28.9837C95.5752 29.0421 95.6334 29.1588 95.6334 29.3048V30.0345C95.4879 30.122 95.3134 30.2096 95.1098 30.2972C94.9062 30.3555 94.6735 30.4139 94.3827 30.4723C94.1209 30.5307 93.7719 30.5599 93.4229 30.5599C92.783 30.5599 92.2594 30.4431 91.8522 30.2388C91.445 30.0345 91.1251 29.7426 90.8633 29.3923C90.6016 29.0421 90.4271 28.6043 90.3107 28.1373C90.1944 27.6703 90.1653 27.1741 90.1653 26.6487C90.1653 26.1233 90.2235 25.6563 90.3107 25.1893C90.4271 24.7223 90.6016 24.3137 90.8633 23.9634C91.1251 23.6132 91.445 23.3213 91.8522 23.117C92.2594 22.9126 92.783 22.7959 93.4229 22.7959C93.7719 22.7959 94.0918 22.8251 94.3536 22.8543C94.6154 22.9127 94.8771 22.9418 95.0807 23.0002C95.2843 23.0586 95.4879 23.117 95.6334 23.2045V24.0218C95.6334 24.1677 95.6043 24.2845 95.517 24.372C95.4298 24.4596 95.3134 24.4596 95.1389 24.4012C95.0517 24.372 94.9353 24.3429 94.7899 24.2845C94.6445 24.2261 94.4118 24.1969 94.1791 24.1385C93.8882 24.0802 93.5974 24.051 93.2774 24.051Z" fill="white"/>
<path d="M99.6763 22.7375C100.345 22.7375 100.869 22.8251 101.276 23.0294C101.683 23.2337 102.003 23.4964 102.236 23.8467C102.468 24.1969 102.643 24.6056 102.73 25.0726C102.818 25.5396 102.847 26.0358 102.847 26.5903C102.847 27.0865 102.818 27.5535 102.73 28.0205C102.672 28.4875 102.498 28.8962 102.294 29.2756C102.061 29.6259 101.77 29.9178 101.363 30.1513C100.956 30.3848 100.432 30.4723 99.7344 30.4723C99.0655 30.4723 98.5128 30.3556 98.1056 30.1513C97.6984 29.9178 97.3785 29.6551 97.1458 29.2756C96.9131 28.9254 96.7677 28.5167 96.7095 28.0497C96.6514 27.5827 96.5932 27.0865 96.5932 26.5903C96.5932 26.0941 96.6223 25.6271 96.7095 25.1601C96.7677 24.6931 96.9422 24.2845 97.1458 23.9342C97.3785 23.584 97.6694 23.2921 98.0766 23.0586C98.4838 22.8543 99.0073 22.7375 99.6763 22.7375ZM99.7344 29.3048C100.113 29.3048 100.432 29.2464 100.665 29.1005C100.898 28.9546 101.101 28.7502 101.218 28.5167C101.334 28.2832 101.45 27.9914 101.48 27.6411C101.538 27.32 101.567 26.9698 101.567 26.5903C101.567 26.2109 101.538 25.8606 101.48 25.5396C101.421 25.2185 101.334 24.9266 101.218 24.6931C101.101 24.4596 100.898 24.2553 100.665 24.1386C100.432 23.9926 100.113 23.9342 99.7054 23.9342C99.2982 23.9342 98.9782 23.9926 98.7455 24.1386C98.5128 24.2845 98.3092 24.4596 98.1929 24.6931C98.0766 24.9266 97.9893 25.2185 97.9311 25.5396C97.873 25.8606 97.8439 26.2109 97.8439 26.5903C97.8439 26.9698 97.873 27.3492 97.9311 27.6703C97.9893 27.9914 98.0766 28.2832 98.1929 28.5459C98.3092 28.7794 98.5128 28.9837 98.7455 29.1005C99.0073 29.2464 99.3272 29.3048 99.7344 29.3048Z" fill="white"/>
<path d="M110.176 23.2044C110.263 23.0876 110.38 22.9709 110.496 22.9125C110.642 22.8541 110.787 22.825 110.961 22.825C111.136 22.825 111.31 22.8833 111.485 23.0293C111.66 23.1752 111.747 23.3795 111.747 23.7006V29.9176C111.747 30.2387 111.601 30.3846 111.281 30.3846H110.467V25.0724L108.606 27.7285C108.431 27.962 108.198 28.0788 107.907 28.0788C107.617 28.0788 107.384 27.962 107.209 27.6993L105.348 25.0432V29.9176C105.348 30.2095 105.203 30.3554 104.883 30.3554H104.068V23.7006C104.068 23.3795 104.155 23.146 104.33 23.0293C104.504 22.8833 104.679 22.825 104.853 22.825C105.028 22.825 105.173 22.8541 105.319 22.9417C105.464 23.0001 105.552 23.1168 105.639 23.2336L107.907 26.561L110.176 23.2044Z" fill="white"/>
<path d="M115.615 22.7083C116.081 22.7083 116.488 22.7666 116.837 22.9126C117.186 23.0293 117.477 23.2336 117.738 23.4671C117.971 23.7006 118.146 23.9925 118.262 24.3136C118.378 24.6346 118.436 25.0141 118.436 25.4227C118.436 25.8313 118.378 26.2108 118.291 26.561C118.204 26.9113 118.058 27.2324 117.855 27.5242C117.651 27.8161 117.36 28.0204 116.982 28.1664C116.604 28.3415 116.139 28.4291 115.586 28.4291C115.353 28.4291 115.092 28.3999 114.859 28.3707C114.626 28.3123 114.394 28.2831 114.219 28.2539V30.443H112.939V23.4379C113.259 23.2628 113.666 23.0877 114.103 22.9418C114.568 22.7958 115.063 22.7083 115.615 22.7083ZM115.702 27.1448C116.081 27.1448 116.371 27.0572 116.546 26.9405C116.72 26.8237 116.866 26.6778 116.982 26.5027C117.069 26.3275 117.128 26.1524 117.157 25.9481C117.186 25.7438 117.186 25.5687 117.186 25.4227C117.186 25.2476 117.157 25.0725 117.128 24.8973C117.099 24.7222 117.011 24.5763 116.895 24.4303C116.779 24.2844 116.633 24.1968 116.43 24.1093C116.255 24.0217 115.993 23.9925 115.731 23.9925C115.353 23.9925 115.033 24.0217 114.801 24.0801C114.568 24.1385 114.394 24.1968 114.248 24.2552V26.9405C114.394 26.9989 114.568 27.0572 114.801 27.1156C115.063 27.1156 115.353 27.1448 115.702 27.1448Z" fill="white"/>
<path d="M124.428 29.8301C124.486 29.9468 124.486 30.0928 124.428 30.2095C124.37 30.3263 124.254 30.3846 124.021 30.3846H123.206L122.625 28.7793H119.833L119.28 30.3846H118.436C118.233 30.3846 118.117 30.3263 118.058 30.2095C118 30.0928 118 29.976 118.058 29.8301C118.407 28.9253 119.222 26.7654 120.502 23.3212C120.589 23.1169 120.676 22.9418 120.821 22.8542C120.938 22.7666 121.083 22.7083 121.229 22.7083C121.374 22.7083 121.52 22.7666 121.636 22.8542C121.752 22.9418 121.869 23.1169 121.956 23.3212L124.428 29.8301ZM122.188 27.5534L121.258 24.839L120.327 27.5534H122.188Z" fill="white"/>
<path d="M131.496 22.8251V29.4799C131.496 29.801 131.409 30.0053 131.263 30.1804C131.089 30.3264 130.943 30.4139 130.769 30.4139C130.594 30.4139 130.449 30.3847 130.303 30.2972C130.158 30.2096 130.042 30.122 129.954 29.9469L126.871 25.1601V29.8594C126.871 30.2096 126.697 30.3847 126.377 30.3847H125.591V23.6715C125.591 23.4088 125.679 23.1753 125.824 23.0294C125.97 22.8835 126.144 22.7959 126.319 22.7959C126.493 22.7959 126.639 22.8251 126.784 22.9127C126.929 22.971 127.046 23.0878 127.133 23.2629L130.245 28.0497V23.2921C130.245 23.0002 130.391 22.8251 130.652 22.8251H131.496Z" fill="white"/>
<path d="M138.564 22.825C138.68 22.825 138.796 22.8541 138.855 22.8833C138.913 22.9417 138.971 22.9709 138.971 23.0293C139 23.0876 139 23.146 138.971 23.2336C138.942 23.292 138.942 23.3503 138.913 23.4087L136.266 27.2907V29.9176C136.266 30.2387 136.12 30.3846 135.83 30.3846H135.015V27.2907L132.427 23.4963C132.368 23.4379 132.339 23.3795 132.31 23.3211C132.281 23.2628 132.281 23.1752 132.31 23.1168C132.339 23.0585 132.368 22.9709 132.427 22.9417C132.485 22.8833 132.601 22.8541 132.717 22.8541H133.532L135.626 25.8897L137.72 22.8541H138.564V22.825Z" fill="white"/>
<path d="M51.0743 32.2525V32.7779H51.8887V33.0406C51.8887 33.1281 51.8305 33.1865 51.7432 33.1865H51.0743V34.0621C51.0743 34.1497 51.0452 34.2081 50.9579 34.2081H50.6962V32.2525C50.6962 31.9898 50.8125 31.873 51.0743 31.873H52.2086V32.1066C52.2086 32.1941 52.1504 32.2525 52.0632 32.2525H51.0743Z" fill="white"/>
<path d="M54.9717 31.844C55.1753 31.844 55.3498 31.8732 55.4662 31.9316C55.5825 31.9899 55.6989 32.0775 55.757 32.1942C55.8152 32.311 55.8734 32.4278 55.9025 32.5737C55.9316 32.7196 55.9316 32.8656 55.9316 33.0407C55.9316 33.1866 55.9316 33.3326 55.9025 33.4785C55.8734 33.6245 55.8443 33.7412 55.757 33.858C55.6989 33.9747 55.5825 34.0623 55.4662 34.1206C55.3498 34.179 55.1753 34.2082 54.9717 34.2082C54.7681 34.2082 54.5936 34.179 54.4773 34.1206C54.3609 34.0623 54.2446 33.9747 54.1864 33.858C54.1282 33.7412 54.0701 33.6245 54.041 33.4785C54.0119 33.3326 54.0119 33.1866 54.0119 33.0407C54.0119 32.8948 54.0119 32.7488 54.041 32.6029C54.0701 32.4569 54.0992 32.3402 54.1864 32.2234C54.2446 32.1067 54.3609 32.0191 54.4773 31.9607C54.5936 31.8732 54.7681 31.844 54.9717 31.844ZM54.9717 33.858C55.0881 33.858 55.1753 33.8288 55.2626 33.7996C55.3498 33.7412 55.408 33.6828 55.4371 33.6245C55.4662 33.5369 55.4953 33.4493 55.5244 33.3618C55.5534 33.2742 55.5534 33.1574 55.5534 33.0407C55.5534 32.9239 55.5534 32.8072 55.5244 32.7196C55.4953 32.6321 55.4953 32.5445 55.4371 32.4569C55.408 32.3694 55.3498 32.311 55.2626 32.2818C55.1753 32.2526 55.0881 32.2234 54.9717 32.2234C54.8554 32.2234 54.739 32.2526 54.6809 32.2818C54.5936 32.311 54.5354 32.3694 54.5064 32.4569C54.4773 32.5445 54.4482 32.6321 54.4191 32.7196C54.39 32.8072 54.39 32.9239 54.39 33.0407C54.39 33.1574 54.39 33.2742 54.4191 33.3618C54.4482 33.4785 54.4482 33.5661 54.5064 33.6245C54.5354 33.712 54.5936 33.7704 54.6809 33.7996C54.7681 33.8288 54.8554 33.858 54.9717 33.858Z" fill="white"/>
<path d="M59.6254 34.0039C59.6545 34.0331 59.6545 34.0623 59.6545 34.0915C59.6545 34.1206 59.6545 34.1206 59.6254 34.1498C59.6254 34.1498 59.5964 34.179 59.5673 34.179C59.5382 34.179 59.5091 34.179 59.5091 34.179H59.2473L58.6365 33.3034H58.2003V34.179H57.8221V32.0191C57.9094 31.9899 57.9676 31.9607 58.0548 31.9316C58.1421 31.9024 58.2293 31.8732 58.3166 31.8732C58.4039 31.844 58.5202 31.844 58.6075 31.844C58.8983 31.844 59.131 31.9024 59.2764 32.0483C59.4219 32.1942 59.5091 32.3694 59.5091 32.6321C59.5091 32.778 59.48 32.8948 59.4219 33.0115C59.3637 33.1283 59.2473 33.2158 59.1019 33.2742L59.6254 34.0039ZM58.6947 32.9531C58.7529 32.9531 58.782 32.9531 58.8401 32.9239C58.8983 32.9239 58.9274 32.8948 58.9565 32.8656C58.9856 32.8364 59.0147 32.8072 59.0437 32.7488C59.0728 32.6904 59.0728 32.6321 59.0728 32.5737C59.0728 32.5153 59.0728 32.4569 59.0437 32.3986C59.0147 32.3402 58.9856 32.311 58.9274 32.2818C58.8692 32.2526 58.8111 32.2526 58.7529 32.2234C58.6947 32.2234 58.6075 32.1942 58.5202 32.1942C58.4911 32.1942 58.462 32.1942 58.4039 32.1942C58.3748 32.1942 58.3166 32.1942 58.2875 32.2234C58.2584 32.2234 58.2003 32.2526 58.1712 32.2526V32.9531H58.6947Z" fill="white"/>
<path d="M65.5007 31.8732V32.1067C65.5007 32.1942 65.4425 32.2526 65.3553 32.2526H64.8317V34.179H64.4536V32.2526H63.7847V31.9899C63.7847 31.9024 63.8428 31.844 63.9301 31.844H65.5007V31.8732Z" fill="white"/>
<path d="M69.0492 34.0039C69.0782 34.0331 69.0782 34.0623 69.0782 34.0915C69.0782 34.1206 69.0782 34.1206 69.0492 34.1498C69.0492 34.1498 69.0201 34.179 68.991 34.179C68.9619 34.179 68.9328 34.179 68.9328 34.179H68.671L68.0602 33.3034H67.624V34.179H67.2458V32.0191C67.3331 31.9899 67.3913 31.9607 67.4785 31.9316C67.5658 31.9024 67.653 31.8732 67.7403 31.8732C67.8276 31.844 67.9439 31.844 68.0312 31.844C68.322 31.844 68.5547 31.9024 68.7001 32.0483C68.8456 32.1942 68.9328 32.3694 68.9328 32.6321C68.9328 32.778 68.9037 32.8948 68.8456 33.0115C68.7874 33.1283 68.671 33.2158 68.5256 33.2742L69.0492 34.0039ZM68.1184 32.9531C68.1766 32.9531 68.2057 32.9531 68.2638 32.9239C68.322 32.9239 68.3511 32.8948 68.3802 32.8656C68.4093 32.8364 68.4384 32.8072 68.4674 32.7488C68.4965 32.6904 68.4965 32.6321 68.4965 32.5737C68.4965 32.5153 68.4965 32.4569 68.4674 32.3986C68.4384 32.3402 68.4093 32.311 68.3511 32.2818C68.2929 32.2526 68.2348 32.2526 68.1766 32.2234C68.1184 32.2234 68.0312 32.1942 67.9439 32.1942C67.9148 32.1942 67.8857 32.1942 67.8276 32.1942C67.7985 32.1942 67.7403 32.1942 67.7112 32.2234C67.6821 32.2234 67.624 32.2526 67.5949 32.2526V32.9531H68.1184Z" fill="white"/>
<path d="M72.7721 34.033C72.8012 34.0622 72.8012 34.1205 72.7721 34.1497C72.7431 34.1789 72.714 34.2081 72.6558 34.2081H72.394L72.2195 33.7119H71.376L71.2015 34.2081H70.9398C70.8816 34.2081 70.8525 34.1789 70.8234 34.1497C70.7943 34.1205 70.8234 34.0622 70.8234 34.033C70.9398 33.7411 71.1724 33.099 71.5796 32.019C71.6087 31.9606 71.6378 31.9023 71.6669 31.8731C71.696 31.8439 71.7542 31.8147 71.7832 31.8147C71.8414 31.8147 71.8705 31.8439 71.8996 31.8731C71.9287 31.9023 71.9868 31.9606 71.9868 32.019L72.7721 34.033ZM72.0741 33.3325L71.7832 32.486L71.4924 33.3325H72.0741Z" fill="white"/>
<path d="M75.3898 31.873C75.5934 31.873 75.7679 31.9022 75.8843 31.9606C76.0297 32.019 76.1169 32.1066 76.2042 32.1941C76.2915 32.2817 76.3205 32.4276 76.3496 32.5736C76.3787 32.7195 76.3787 32.8654 76.3787 33.0406C76.3787 33.2449 76.3496 33.42 76.3205 33.5659C76.2915 33.7119 76.2333 33.8286 76.146 33.9162C76.0588 34.0038 75.9715 34.0913 75.8261 34.1205C75.7097 34.1789 75.5352 34.1789 75.3607 34.1789H74.8953C74.8372 34.1789 74.779 34.1789 74.7499 34.1497C74.7208 34.1205 74.6918 34.1205 74.6627 34.0621C74.6336 34.0329 74.6336 34.0038 74.6045 33.9746C74.6045 33.9454 74.6045 33.887 74.6045 33.8578V32.1649C74.6045 32.1065 74.6045 32.0482 74.6336 32.019C74.6627 31.9898 74.6627 31.9606 74.6917 31.9314C74.7208 31.9022 74.7499 31.9022 74.779 31.873C74.8081 31.873 74.8663 31.873 74.8953 31.873H75.3898ZM75.3898 33.7994C75.5061 33.7994 75.6225 33.7703 75.6807 33.7411C75.7679 33.7119 75.8261 33.6535 75.8552 33.5659C75.8843 33.5076 75.9133 33.42 75.9424 33.3324C75.9715 33.2449 75.9715 33.1281 75.9715 33.0114C75.9715 32.8946 75.9715 32.8071 75.9424 32.7195C75.9133 32.6319 75.8843 32.5444 75.8552 32.486C75.8261 32.4276 75.7388 32.3692 75.6807 32.3109C75.5934 32.2817 75.5061 32.2525 75.3898 32.2525H74.9826V33.7994H75.3898Z" fill="white"/>
<path d="M78.7056 34.2081H78.3275V32.019C78.3275 31.9314 78.3856 31.873 78.4729 31.873H78.7347V34.2081H78.7056Z" fill="white"/>
<path d="M82.4285 31.873V33.9162C82.4285 34.0038 82.3994 34.0913 82.3413 34.1205C82.2831 34.1789 82.254 34.1789 82.1958 34.1789C82.1377 34.1789 82.1086 34.1789 82.0504 34.1497C82.0213 34.1205 81.9632 34.0913 81.9341 34.0329L80.9742 32.5736V34.0329C80.9742 34.1497 80.9161 34.2081 80.8288 34.2081H80.5961V32.1357C80.5961 32.0482 80.6252 31.9898 80.6543 31.9314C80.7125 31.873 80.7416 31.873 80.7997 31.873C80.8579 31.873 80.887 31.873 80.9452 31.9022C80.9742 31.9314 81.0324 31.9606 81.0615 32.019L82.0213 33.5076V32.019C82.0213 31.9314 82.0504 31.873 82.1377 31.873H82.4285Z" fill="white"/>
<path d="M85.8606 32.8362C86.0061 32.8362 86.0933 32.9238 86.0933 33.0697V34.0913C86.0351 34.1205 85.977 34.1497 85.8897 34.1789C85.8025 34.208 85.7152 34.208 85.6279 34.2372C85.5407 34.2664 85.4243 34.2664 85.2789 34.2664C85.1917 34.2664 85.0753 34.2664 84.959 34.2372C84.8426 34.208 84.7554 34.1497 84.639 34.0621C84.5518 33.9745 84.4645 33.8578 84.4064 33.7119C84.3482 33.5659 84.3191 33.3616 84.3191 33.0989C84.3191 32.8362 84.3482 32.6319 84.4064 32.486C84.4645 32.34 84.5518 32.2233 84.639 32.1357C84.7263 32.0481 84.8426 31.9898 84.959 31.9606C85.0753 31.9314 85.1917 31.9314 85.2789 31.9314C85.3953 31.9314 85.5116 31.9314 85.5989 31.9606C85.6861 31.9898 85.7734 31.9898 85.8315 32.019C85.8897 32.0481 85.977 32.0773 86.0351 32.1065V32.3108C86.0351 32.3692 86.0061 32.3984 85.977 32.4276C85.9479 32.4568 85.8897 32.4276 85.8315 32.4276C85.6861 32.3692 85.5698 32.34 85.4825 32.34C85.3953 32.34 85.308 32.3108 85.2789 32.3108C85.1626 32.3108 85.0753 32.34 84.9881 32.3692C84.9008 32.4276 84.8426 32.486 84.8136 32.5443C84.7554 32.6319 84.7263 32.7195 84.7263 32.807C84.6972 32.8946 84.6972 33.0113 84.6972 33.1281C84.6972 33.3908 84.7554 33.5951 84.8717 33.7119C84.9881 33.8578 85.1335 33.9162 85.3662 33.9162C85.4534 33.9162 85.5116 33.9162 85.5698 33.9162C85.6279 33.9162 85.6861 33.9162 85.7152 33.887V33.3032H85.3662C85.2789 33.3032 85.2207 33.2448 85.2207 33.1573V32.9238H85.8606V32.8362Z" fill="white"/>
<path d="M92.3176 34.033C92.3467 34.0622 92.3467 34.1205 92.3176 34.1497C92.2886 34.1789 92.2595 34.2081 92.2013 34.2081H91.9395L91.765 33.7119H90.9215L90.747 34.2081H90.4562C90.398 34.2081 90.3689 34.1789 90.3398 34.1497C90.3107 34.1205 90.3398 34.0622 90.3398 34.033C90.4562 33.7411 90.6889 33.099 91.0961 32.019C91.1251 31.9606 91.1542 31.9023 91.1833 31.8731C91.2124 31.8439 91.2706 31.8147 91.2997 31.8147C91.3578 31.8147 91.3869 31.8439 91.416 31.8731C91.4451 31.9023 91.5033 31.9606 91.5033 32.019L92.3176 34.033ZM91.6196 33.3325L91.3287 32.486L91.0379 33.3325H91.6196Z" fill="white"/>
<path d="M96.0115 31.873V33.9162C96.0115 34.0038 95.9824 34.0913 95.9243 34.1205C95.8661 34.1789 95.837 34.1789 95.7788 34.1789C95.7207 34.1789 95.6916 34.1789 95.6334 34.1497C95.6043 34.1205 95.5462 34.0913 95.5171 34.0329L94.5573 32.5736V34.0329C94.5573 34.1497 94.4991 34.2081 94.4118 34.2081H94.1791V32.1357C94.1791 32.0482 94.2082 31.9898 94.2373 31.9314C94.2955 31.873 94.3246 31.873 94.3827 31.873C94.4409 31.873 94.47 31.873 94.5282 31.9022C94.5573 31.9314 94.6154 31.9606 94.6445 32.019L95.6043 33.5076V32.019C95.6043 31.9314 95.6334 31.873 95.7207 31.873H96.0115Z" fill="white"/>
<path d="M98.6874 31.873C98.891 31.873 99.0655 31.9022 99.1819 31.9606C99.3273 32.019 99.4145 32.1066 99.5018 32.1941C99.5891 32.2817 99.6181 32.4276 99.6472 32.5736C99.6763 32.7195 99.6763 32.8654 99.6763 33.0406C99.6763 33.2449 99.6472 33.42 99.6181 33.5659C99.5891 33.7119 99.5309 33.8286 99.4436 33.9162C99.3564 34.0038 99.2691 34.0913 99.1237 34.1205C99.0073 34.1789 98.8328 34.1789 98.6583 34.1789H98.193C98.1348 34.1789 98.0766 34.1789 98.0475 34.1497C98.0184 34.1205 97.9894 34.1205 97.9603 34.0621C97.9312 34.0329 97.9312 34.0038 97.9021 33.9746C97.9021 33.9454 97.9021 33.887 97.9021 33.8578V32.1649C97.9021 32.1065 97.9021 32.0482 97.9312 32.019C97.9603 31.9898 97.9603 31.9606 97.9894 31.9314C98.0184 31.9022 98.0475 31.9022 98.0766 31.873C98.1057 31.873 98.1639 31.873 98.193 31.873H98.6874ZM98.6874 33.7994C98.8037 33.7994 98.9201 33.7703 98.9783 33.7411C99.0655 33.7119 99.1237 33.6535 99.1528 33.5659C99.1819 33.5076 99.211 33.42 99.24 33.3324C99.2691 33.2449 99.2691 33.1281 99.2691 33.0114C99.2691 32.8946 99.2691 32.8071 99.24 32.7195C99.211 32.6319 99.1819 32.5444 99.1528 32.486C99.1237 32.4276 99.0364 32.3692 98.9783 32.3109C98.891 32.2817 98.8037 32.2525 98.6874 32.2525H98.2802V33.7994H98.6874Z" fill="white"/>
<path d="M104.446 34.2081H104.068V32.019C104.068 31.9314 104.126 31.873 104.214 31.873H104.475V34.2081H104.446Z" fill="white"/>
<path d="M108.169 31.873V33.9162C108.169 34.0038 108.14 34.0913 108.082 34.1205C108.024 34.1789 107.995 34.1789 107.937 34.1789C107.878 34.1789 107.849 34.1789 107.791 34.1497C107.762 34.1205 107.704 34.0913 107.675 34.0329L106.715 32.5736V34.0329C106.715 34.1497 106.657 34.2081 106.57 34.2081H106.337V32.1357C106.337 32.0482 106.366 31.9898 106.395 31.9314C106.453 31.873 106.482 31.873 106.541 31.873C106.599 31.873 106.628 31.873 106.686 31.9022C106.715 31.9314 106.773 31.9606 106.802 32.019L107.762 33.5076V32.019C107.762 31.9314 107.791 31.873 107.878 31.873H108.169Z" fill="white"/>
<path d="M111.747 31.873C111.805 31.873 111.834 31.9022 111.863 31.9314C111.892 31.9606 111.892 32.019 111.863 32.0774L111.165 33.9746C111.107 34.1497 111.02 34.2373 110.903 34.2373C110.787 34.2373 110.7 34.1497 110.642 33.9746L109.944 32.0774C109.914 32.019 109.914 31.9606 109.944 31.9314C109.973 31.9022 110.031 31.873 110.089 31.873H110.293L110.903 33.5368L111.543 31.873H111.747Z" fill="white"/>
<path d="M114.045 32.2526V32.778H114.888V33.0115C114.888 33.1283 114.83 33.1574 114.743 33.1574H114.074V33.7996H115.237V34.0331C115.237 34.1206 115.179 34.179 115.063 34.179H114.015C113.783 34.179 113.666 34.0623 113.666 33.858V32.1942C113.666 31.9607 113.812 31.844 114.074 31.844H115.237V32.0775C115.237 32.1651 115.179 32.2234 115.092 32.2234H114.045V32.2526Z" fill="white"/>
<path d="M118.611 32.165C118.611 32.2817 118.553 32.3401 118.437 32.3109C118.32 32.2817 118.233 32.2525 118.117 32.2233C118.029 32.1941 117.913 32.1941 117.826 32.1941C117.738 32.1941 117.651 32.1941 117.593 32.2233C117.535 32.2233 117.477 32.2525 117.448 32.2817C117.419 32.3109 117.389 32.3401 117.389 32.3693C117.389 32.3985 117.36 32.4568 117.36 32.486C117.36 32.5444 117.36 32.6028 117.389 32.632C117.419 32.6611 117.448 32.6903 117.506 32.7195C117.535 32.7487 117.593 32.7487 117.651 32.7487C117.709 32.7487 117.768 32.7779 117.855 32.7779C117.942 32.7779 118.029 32.8071 118.117 32.8071C118.204 32.8363 118.291 32.8655 118.378 32.8946C118.466 32.953 118.524 33.0114 118.582 33.099C118.64 33.1865 118.669 33.3033 118.669 33.4492C118.669 33.566 118.669 33.6535 118.64 33.7411C118.611 33.8287 118.553 33.9162 118.495 33.9746C118.437 34.033 118.349 34.0913 118.233 34.1205C118.117 34.1497 117.971 34.1789 117.797 34.1789C117.738 34.1789 117.68 34.1789 117.593 34.1789C117.535 34.1789 117.448 34.1497 117.389 34.1497C117.331 34.1497 117.244 34.1205 117.186 34.1205C117.128 34.0913 117.069 34.0913 117.011 34.0913V33.8578C117.011 33.7411 117.069 33.7119 117.186 33.7411C117.215 33.7411 117.244 33.7703 117.273 33.7703C117.302 33.7703 117.36 33.7995 117.419 33.7995C117.477 33.7995 117.535 33.8287 117.593 33.8287C117.651 33.8287 117.709 33.8287 117.797 33.8287C117.971 33.8287 118.117 33.7995 118.204 33.7411C118.291 33.6827 118.32 33.5952 118.32 33.4784C118.32 33.42 118.291 33.3617 118.262 33.3033C118.233 33.2741 118.175 33.2157 118.117 33.2157C118.058 33.1865 118 33.1865 117.942 33.1573C117.884 33.1573 117.797 33.1281 117.709 33.1281C117.622 33.1281 117.535 33.099 117.448 33.0698C117.36 33.0406 117.273 33.0114 117.215 32.9822C117.157 32.9238 117.069 32.8655 117.04 32.8071C116.982 32.7195 116.982 32.632 116.982 32.5152C116.982 32.3693 117.011 32.2525 117.04 32.165C117.099 32.0774 117.157 32.019 117.215 31.9606C117.302 31.9023 117.389 31.8731 117.477 31.8439C117.564 31.8147 117.68 31.8147 117.797 31.8147C117.913 31.8147 118 31.8147 118.087 31.8439C118.175 31.8731 118.262 31.8731 118.349 31.9023C118.437 31.9314 118.495 31.9606 118.582 31.9898V32.165H118.611Z" fill="white"/>
<path d="M122.189 31.8732V32.1067C122.189 32.1942 122.13 32.2526 122.043 32.2526H121.52V34.179H121.141V32.2526H120.472V31.9899C120.472 31.9024 120.531 31.844 120.618 31.844H122.189V31.8732Z" fill="white"/>
<path d="M125.824 31.9898C125.853 31.9606 125.882 31.9314 125.911 31.9022C125.941 31.873 125.999 31.873 126.057 31.873C126.115 31.873 126.173 31.9022 126.231 31.9314C126.29 31.9606 126.319 32.0482 126.319 32.1357V34.0621C126.319 34.1497 126.26 34.2081 126.173 34.2081H125.911V32.5736L125.33 33.3908C125.272 33.4784 125.213 33.5076 125.126 33.5076C125.039 33.5076 124.952 33.4784 124.923 33.3908L124.341 32.5736V34.0913C124.341 34.1789 124.283 34.2373 124.195 34.2373H123.934V32.1941C123.934 32.1066 123.963 32.019 124.021 31.9898C124.079 31.9606 124.137 31.9314 124.166 31.9314C124.195 31.9314 124.254 31.9314 124.312 31.9606C124.341 31.9898 124.399 32.019 124.399 32.0482L125.097 33.0697L125.824 31.9898Z" fill="white"/>
<path d="M128.558 32.2526V32.778H129.402V33.0115C129.402 33.1283 129.344 33.1574 129.256 33.1574H128.558V33.7996H129.722V34.0331C129.722 34.1206 129.664 34.179 129.547 34.179H128.558C128.326 34.179 128.209 34.0623 128.209 33.858V32.1942C128.209 31.9607 128.355 31.844 128.616 31.844H129.78V32.0775C129.78 32.1651 129.722 32.2234 129.634 32.2234H128.558V32.2526Z" fill="white"/>
<path d="M133.416 31.873V33.9162C133.416 34.0038 133.386 34.0913 133.328 34.1205C133.27 34.1789 133.241 34.1789 133.183 34.1789C133.125 34.1789 133.096 34.1789 133.037 34.1497C133.008 34.1205 132.95 34.0913 132.921 34.0329L131.961 32.5736V34.0329C131.961 34.1497 131.903 34.2081 131.816 34.2081H131.583V32.1357C131.583 32.0482 131.612 31.9898 131.641 31.9314C131.7 31.873 131.729 31.873 131.787 31.873C131.845 31.873 131.874 31.873 131.932 31.9022C131.961 31.9314 132.019 31.9606 132.049 32.019L133.008 33.5076V32.019C133.008 31.9314 133.037 31.873 133.125 31.873H133.416Z" fill="white"/>
<path d="M136.935 31.8732V32.1067C136.935 32.1942 136.877 32.2526 136.789 32.2526H136.266V34.179H135.888V32.2526H135.219V31.9899C135.219 31.9024 135.277 31.844 135.364 31.844H136.935V31.8732Z" fill="white"/>
<path d="M52.8776 17.4251C52.8485 17.7462 52.7613 18.0089 52.5867 18.2132C52.4704 18.33 52.3541 18.4175 52.2086 18.4759C52.0632 18.5343 51.8596 18.5635 51.6851 18.5635L51.656 18.2716C51.7723 18.2716 51.8596 18.2716 51.9469 18.2424C52.0341 18.2132 52.0923 18.1548 52.1505 18.0965C52.2086 18.0381 52.2377 17.9505 52.2668 17.8338C52.2959 17.717 52.2959 17.5711 52.2959 17.396V17.0749C52.2959 17.0457 52.2959 16.9873 52.2959 16.8998C52.2959 16.8122 52.2959 16.7246 52.2959 16.6371C52.2959 16.5495 52.2959 16.4619 52.2959 16.4036C52.2959 16.316 52.2959 16.2576 52.2959 16.2284V14.6815C52.2959 14.5939 52.2959 14.5355 52.2959 14.4772C52.2959 14.4188 52.2959 14.3604 52.2959 14.302C52.2959 14.2145 52.2668 14.1269 52.2377 14.0685C52.2086 14.0102 52.1795 13.9518 52.1214 13.9226C52.0632 13.8934 51.9759 13.8934 51.8887 13.8934H51.8305V13.6599H52.8776V16.2284C52.8776 16.2576 52.8776 16.316 52.8776 16.4036C52.8776 16.4911 52.8776 16.5495 52.8776 16.6663C52.8776 16.7538 52.8776 16.8414 52.8776 16.9289C52.8776 17.0165 52.8776 17.0749 52.8776 17.1333V17.4251Z" fill="white"/>
<path d="M54.7391 17.0456V17.2792H54.6518H53.8083H53.6047V16.2576V13.7182V13.4555C53.6047 13.368 53.6047 13.3096 53.6047 13.2512C53.6047 13.1929 53.6047 13.1345 53.6047 13.0761C53.6047 12.9594 53.5756 12.8718 53.5465 12.8134C53.5175 12.755 53.4884 12.6967 53.4302 12.6675C53.372 12.6383 53.3139 12.6383 53.1975 12.6383H53.1393V12.4048H53.6047H53.8083H54.1864V16.1992C54.1864 16.2868 54.1864 16.3451 54.1864 16.4035C54.1864 16.4619 54.1864 16.5203 54.1864 16.5786C54.1864 16.6662 54.2155 16.7538 54.2446 16.8413C54.2737 16.8997 54.3319 16.9581 54.39 16.9873C54.4191 16.9873 54.4482 17.0165 54.5064 17.0165C54.5355 17.0165 54.5936 17.0165 54.6518 17.0165H54.7391V17.0456Z" fill="white"/>
<path d="M59.3637 17.0166V17.2501H59.131H58.3457H57.6476H56.426H54.9427H54.71H54.6227V17.0166H54.71H55.0009C55.0881 17.0166 55.1754 17.0166 55.2335 16.9875C55.2917 16.9583 55.3208 16.9291 55.3499 16.8415C55.379 16.7831 55.379 16.6956 55.4081 16.608C55.4081 16.5496 55.4081 16.4913 55.4081 16.4329C55.4081 16.3745 55.4081 16.287 55.4081 16.2286V14.5649C55.4081 14.5065 55.4081 14.4773 55.4081 14.4189C55.4081 14.3606 55.4081 14.3314 55.4081 14.3022C55.4081 14.1854 55.379 14.0979 55.3499 14.0395C55.3208 13.9811 55.2917 13.9227 55.2335 13.8935C55.1754 13.8644 55.1172 13.8644 55.0009 13.8644H54.9427V13.6309H55.4081H55.7571H55.9898H56.4551H57.095H57.2114H57.3568C57.764 13.66 58.0839 13.7768 58.3166 13.9811C58.5784 14.2146 58.6947 14.8859 58.6947 16.0243V16.1994C58.6947 16.287 58.6947 16.3453 58.6947 16.4037C58.6947 16.4621 58.6947 16.5205 58.6947 16.5788C58.6947 16.6956 58.7238 16.754 58.7529 16.8123C58.782 16.8707 58.8111 16.9291 58.8692 16.9583C58.9274 16.9875 58.9856 16.9875 59.1019 16.9875H59.3637V17.0166ZM57.6476 17.0166C57.764 17.0166 57.8512 17.0166 57.9094 16.9875C57.9676 16.9583 58.0258 16.8999 58.0548 16.8415C58.0839 16.7831 58.0839 16.6956 58.113 16.608C58.113 16.5496 58.113 16.4913 58.113 16.4329C58.113 16.3745 58.113 16.287 58.113 16.2286V14.7984C58.113 14.6232 58.0839 14.5065 58.0258 14.3897C57.9676 14.273 57.9094 14.1854 57.8222 14.1271C57.7349 14.0687 57.6476 14.0103 57.5313 13.9811C57.5022 13.9811 57.5022 13.9811 57.4731 13.9519C57.444 13.9519 57.444 13.9519 57.415 13.9519H57.0368H56.7751C56.6878 13.9519 56.6296 13.9519 56.5715 13.9519C56.5133 13.9519 56.4551 13.9519 56.397 13.9519C56.3097 13.9519 56.2224 13.9519 56.1352 13.9811C56.077 14.0103 56.0188 14.0395 55.9898 14.0979C55.9898 14.0979 55.9898 14.1271 55.9607 14.1854C55.9607 14.2146 55.9607 14.2146 55.9607 14.2438C55.9607 14.273 55.9607 14.3022 55.9607 14.3022C55.9607 14.3314 55.9607 14.3897 55.9607 14.4481C55.9607 14.5065 55.9607 14.5649 55.9607 14.6232V16.2578V16.3453C55.9607 16.4037 55.9607 16.4621 55.9607 16.5205C55.9607 16.5788 55.9607 16.608 55.9607 16.6664C55.9607 16.7831 55.9898 16.8415 56.0189 16.8999C56.0479 16.9583 56.1061 17.0166 56.1643 17.0458C56.2224 17.075 56.3097 17.075 56.426 17.075H57.6476V17.0166Z" fill="white"/>
<path d="M61.7196 17.0458V17.2793H61.3706H59.8872H59.1601V17.0458H59.9163C60.0327 17.0458 60.1199 17.0458 60.1781 17.0166C60.2363 16.9874 60.2944 16.9582 60.3235 16.8706C60.3526 16.8123 60.3817 16.7247 60.3817 16.6079C60.3817 16.5496 60.3817 16.4912 60.3817 16.4328C60.3817 16.3744 60.3817 16.2869 60.3817 16.2285V14.6816C60.3817 14.594 60.3817 14.5356 60.3817 14.4772C60.3817 14.4189 60.3817 14.3605 60.3817 14.3021C60.3817 14.2145 60.3526 14.127 60.3235 14.0686C60.2944 14.0102 60.2653 13.9519 60.2072 13.9227C60.149 13.8935 60.0617 13.8935 59.9745 13.8935H59.9163V13.66H60.9634V16.2285C60.9634 16.3161 60.9634 16.3744 60.9634 16.4328C60.9634 16.4912 60.9634 16.5496 60.9634 16.6079C60.9634 16.6955 60.9925 16.7831 61.0216 16.8706C61.0507 16.929 61.0797 16.9874 61.1379 17.0166C61.1961 17.0458 61.2543 17.0458 61.3706 17.0458H61.7196ZM59.9745 12.9011C59.8582 12.9011 59.7709 12.8719 59.7127 12.7843C59.6255 12.6968 59.5964 12.6092 59.5964 12.5217C59.5964 12.4049 59.6255 12.3173 59.7127 12.2298C59.8 12.1422 59.8872 12.113 59.9745 12.113C60.0908 12.113 60.1781 12.1422 60.2653 12.2298C60.3526 12.3173 60.3817 12.4049 60.3817 12.5217C60.3817 12.6384 60.3526 12.726 60.2653 12.7843C60.1781 12.8719 60.0908 12.9011 59.9745 12.9011ZM60.4108 12.113C60.2944 12.113 60.2072 12.0838 60.149 11.9963C60.0908 11.9087 60.0327 11.8211 60.0327 11.7336C60.0327 11.6168 60.0618 11.5293 60.149 11.4417C60.2363 11.3541 60.3235 11.325 60.4108 11.325C60.5271 11.325 60.6144 11.3541 60.7016 11.4417C60.7889 11.5293 60.818 11.6168 60.818 11.7336C60.818 11.8503 60.7889 11.9379 60.7016 11.9963C60.6144 12.0838 60.5271 12.113 60.4108 12.113ZM60.4689 12.5217C60.4689 12.4049 60.498 12.3173 60.5853 12.2298C60.6725 12.1422 60.7598 12.113 60.8471 12.113C60.9634 12.113 61.0507 12.1422 61.1088 12.2298C61.1961 12.3173 61.2252 12.4049 61.2252 12.5217C61.2252 12.6384 61.1961 12.726 61.1088 12.7843C61.0216 12.8719 60.9343 12.9011 60.8471 12.9011C60.7307 12.9011 60.6435 12.8719 60.5853 12.7843C60.498 12.726 60.4689 12.6092 60.4689 12.5217Z" fill="white"/>
<path d="M64.0465 17.0458V17.2793H63.552H62.0687H61.3124V17.0458H62.0977C62.2141 17.0458 62.3013 17.0458 62.3595 17.0166C62.4177 16.9874 62.4759 16.929 62.5049 16.8707C62.534 16.8123 62.534 16.7247 62.5631 16.608C62.5631 16.5496 62.5631 16.4912 62.5631 16.4328C62.5631 16.3745 62.5631 16.2869 62.5631 16.2285V14.6816C62.5631 14.594 62.5631 14.5356 62.5631 14.4772C62.5631 14.4189 62.5631 14.3605 62.5631 14.3021C62.5631 14.2146 62.534 14.127 62.5049 14.0686C62.4759 14.0102 62.4468 13.9519 62.3886 13.9227C62.3304 13.8935 62.2432 13.8935 62.1559 13.8935H62.0977V13.66H63.1448V16.2285C63.1448 16.3161 63.1448 16.3745 63.1448 16.4328C63.1448 16.4912 63.1448 16.5496 63.1448 16.608C63.1448 16.7247 63.1739 16.8123 63.203 16.8707C63.2321 16.929 63.2612 16.9874 63.3193 17.0166C63.3775 17.0458 63.4357 17.0458 63.552 17.0458H64.0465ZM62.2141 12.9011C62.0977 12.9011 62.0105 12.8719 61.9523 12.7844C61.8651 12.6968 61.836 12.6092 61.836 12.5217C61.836 12.4049 61.8651 12.3174 61.9523 12.2298C62.0396 12.1422 62.1268 12.113 62.2141 12.113C62.3304 12.113 62.4177 12.1422 62.4759 12.2298C62.5631 12.3174 62.5922 12.4049 62.5922 12.5217C62.5922 12.6384 62.5631 12.726 62.4759 12.7844C62.4177 12.8719 62.3304 12.9011 62.2141 12.9011ZM63.0867 12.9011C62.9703 12.9011 62.8831 12.8719 62.8249 12.7844C62.7376 12.6968 62.7085 12.6092 62.7085 12.5217C62.7085 12.4049 62.7376 12.3174 62.8249 12.2298C62.9121 12.1422 62.9994 12.113 63.0867 12.113C63.203 12.113 63.2903 12.1422 63.3775 12.2298C63.4648 12.3174 63.4939 12.4049 63.4939 12.5217C63.4939 12.6384 63.4648 12.726 63.3775 12.7844C63.2903 12.8719 63.203 12.9011 63.0867 12.9011Z" fill="white"/>
<path d="M68.9037 17.2501H68.2348H68.0312H66.5478H66.3442H64.8608H63.6102V17.0166H64.8608C64.9772 17.0166 65.0644 17.0166 65.1226 16.9874C65.1808 16.9582 65.239 16.929 65.268 16.8414C65.2971 16.7831 65.3262 16.6955 65.3262 16.5787C65.3262 16.5204 65.3262 16.462 65.3262 16.4036C65.3262 16.3452 65.3262 16.2577 65.3262 16.1993V14.6523C65.3262 14.5648 65.3262 14.5064 65.3262 14.448C65.3262 14.3897 65.3262 14.3313 65.3262 14.2729C65.3262 14.1562 65.2971 14.0686 65.268 14.0102C65.239 13.9518 65.2099 13.8935 65.1517 13.8643C65.0935 13.8351 65.0354 13.8351 64.919 13.8351H64.8608V13.6016H65.9079V16.1701C65.9079 16.2577 65.9079 16.3161 65.9079 16.3744C65.9079 16.4328 65.9079 16.4912 65.9079 16.5496C65.9079 16.6663 65.937 16.7539 65.9661 16.8122C65.9952 16.8706 66.0243 16.929 66.0824 16.9582C66.1406 16.9874 66.1988 16.9874 66.3151 16.9874H66.5769C66.6932 16.9874 66.7805 16.9874 66.8387 16.9582C66.8968 16.929 66.955 16.8706 66.9841 16.8122C66.9841 16.7831 67.0132 16.7539 67.0132 16.6955C67.0132 16.6663 67.0132 16.6079 67.0132 16.5496C67.0132 16.4912 67.0132 16.4328 67.0132 16.3744C67.0132 16.3161 67.0132 16.2285 67.0132 16.1701V14.6232C67.0132 14.5356 67.0132 14.4772 67.0132 14.4188C67.0132 14.3605 67.0132 14.3021 67.0132 14.2437C67.0132 14.1562 67.0132 14.0686 66.9841 13.981C66.955 13.9227 66.9259 13.8643 66.8678 13.8351C66.8096 13.8059 66.7514 13.8059 66.6351 13.8059H66.5769V13.5724H67.624V16.1409C67.624 16.2285 67.624 16.2869 67.624 16.3452C67.624 16.4036 67.624 16.462 67.624 16.5204C67.624 16.5787 67.624 16.6079 67.624 16.6663C67.624 16.6955 67.6531 16.7539 67.6531 16.7831C67.6822 16.8414 67.7112 16.8998 67.7694 16.929C67.8276 16.9582 67.8858 16.9582 68.0021 16.9582H68.2639C68.3802 16.9582 68.4675 16.9582 68.5256 16.929C68.5838 16.8998 68.642 16.8414 68.6711 16.7831C68.7001 16.7247 68.7001 16.6371 68.7292 16.5204C68.7292 16.462 68.7292 16.4036 68.7292 16.3452C68.7292 16.2869 68.7292 16.1993 68.7292 16.1409V14.594C68.7292 14.5064 68.7292 14.448 68.7292 14.3897C68.7292 14.3313 68.7292 14.2729 68.7292 14.2145C68.7292 14.0978 68.7001 14.0102 68.6711 13.9518C68.642 13.8935 68.6129 13.8351 68.5547 13.8059C68.4965 13.7767 68.4384 13.7767 68.322 13.7767H68.2639V13.5432H69.3109V16.1117C69.3109 16.1993 69.3109 16.2577 69.3109 16.3161C69.3109 16.3744 69.3109 16.4328 69.3109 16.4912L68.9037 17.2501Z" fill="white"/>
<path d="M73.732 12.4048V14.2436V15.8198V16.1116C73.7029 16.4327 73.6156 16.6954 73.4411 16.8997C73.3539 17.0165 73.2084 17.104 73.063 17.1624C72.9176 17.2208 72.7431 17.25 72.5395 17.25H72.2777H70.2417V17.0165V16.5786H70.4744V16.637C70.4744 16.7246 70.4744 16.8121 70.5035 16.8705C70.5326 16.9289 70.5907 16.9581 70.6489 16.9873C70.7071 17.0165 70.7943 17.0165 70.8816 17.0165H71.2597C71.376 17.0165 71.4633 17.0165 71.5506 16.9873C71.6378 16.9581 71.696 16.8997 71.7541 16.8413C71.8123 16.783 71.8414 16.6954 71.8705 16.5786C71.8996 16.4619 71.8996 16.316 71.8996 16.1408V13.7474C71.8996 13.6307 71.8705 13.5431 71.8414 13.4847C71.8123 13.4264 71.7832 13.368 71.7251 13.3388C71.6669 13.3096 71.6087 13.3096 71.4924 13.3096H71.4342V13.0761H71.8996H72.1032H72.4813V13.8934V16.0824C72.4522 16.4035 72.3649 16.6662 72.1904 16.8705C72.1613 16.9289 72.1032 16.9581 72.045 16.9873H72.4813C72.5976 16.9873 72.6849 16.9873 72.7431 16.9581C72.8303 16.9289 72.8885 16.8705 72.9467 16.8121C73.0048 16.7538 73.063 16.6662 73.0921 16.5495C73.1212 16.4327 73.1212 16.2868 73.1212 16.1116V15.7614V15.7322V14.2144V13.7182V13.4555C73.1212 13.368 73.1212 13.3096 73.1212 13.2512C73.1212 13.1929 73.1212 13.1345 73.1212 13.0761C73.1212 12.9885 73.0921 12.901 73.063 12.8426C73.0339 12.7842 73.0048 12.7259 72.9467 12.6967C72.8885 12.6675 72.8012 12.6675 72.714 12.6675H72.6558V12.434H73.1212H73.3248H73.732V12.4048ZM71.4051 18.184C71.4051 18.2132 71.4051 18.2132 71.4342 18.2132H71.9868V18.3299V18.3591V18.4759H71.9287V18.4467C71.9287 18.4175 71.9287 18.4175 71.9287 18.3883C71.9287 18.3883 71.9287 18.3591 71.8996 18.3591H71.8705H71.8414H71.4924H71.1434H70.9688V18.2423V18.2132V18.0964H71.027C71.027 18.1256 71.027 18.1256 71.027 18.1548C71.027 18.184 71.027 18.184 71.0561 18.184C71.0852 18.184 71.0852 18.184 71.1143 18.184H71.2015L71.2306 18.1548C71.2306 18.1548 71.2306 18.1256 71.2306 18.0964V18.0672V18.0088C71.2306 17.9213 71.2597 17.8337 71.3179 17.7753C71.376 17.717 71.4633 17.6878 71.5506 17.6878H71.5796H71.6087H71.8705V17.8045V17.8337V17.9505H71.8414C71.8414 17.9213 71.8414 17.9213 71.8414 17.8921L71.8123 17.8629C71.7832 17.8629 71.7832 17.8629 71.7541 17.8629C71.7251 17.8629 71.696 17.8629 71.6669 17.8629H71.6087H71.5796C71.5796 17.8629 71.5505 17.8629 71.5215 17.8629C71.4924 17.8629 71.4633 17.8921 71.4633 17.8921C71.4342 17.9213 71.4342 17.9213 71.4051 17.9505C71.4051 17.9797 71.376 18.0088 71.376 18.0672V18.0964C71.376 18.1256 71.376 18.1256 71.376 18.1256C71.4051 18.1548 71.4051 18.1548 71.4051 18.184Z" fill="white"/>
<path d="M75.0117 17.25H74.5754V16.2284V13.7182V13.4555C74.5754 13.368 74.5754 13.3096 74.5754 13.2512C74.5754 13.1929 74.5754 13.1345 74.5754 13.0761C74.5754 12.9594 74.5463 12.8718 74.5172 12.8134C74.4882 12.755 74.4591 12.6967 74.4009 12.6675C74.3427 12.6383 74.2846 12.6383 74.1682 12.6383H74.11V12.4048H74.5754H74.8081H75.1571V16.8121L75.0117 17.25Z" fill="white"/>
<path d="M80.7416 13.6599V14.915V17.1041V17.25V17.4251C80.7416 17.6003 80.6834 17.7462 80.6543 17.863C80.5962 18.0089 80.538 18.1256 80.4507 18.2132C80.2471 18.4467 79.9563 18.5635 79.5491 18.5635L79.52 18.2716C79.6363 18.2716 79.7236 18.2716 79.7818 18.2424C79.869 18.2132 79.9272 18.1548 79.9854 18.0965C80.0435 18.0381 80.1017 17.9505 80.1308 17.8338C80.1308 17.7754 80.1599 17.717 80.1599 17.6295C80.1599 17.5711 80.1599 17.4835 80.1599 17.396V17.25H79.6945H78.4729H77.6585L77.4258 16.6079C77.4258 16.5495 77.4258 16.316 77.4258 15.9074C77.4258 15.4696 77.4258 15.2361 77.4258 15.1485V14.9734C77.4258 14.5647 77.5422 14.2437 77.804 14.0102C78.0366 13.8059 78.3566 13.6891 78.7638 13.6599H78.9092H79.0255H79.6654H80.3344H80.7416ZM79.7527 17.0457C79.869 17.0457 79.9563 17.0457 80.0145 17.0165C80.0726 16.9873 80.1308 16.9581 80.1599 16.8706C80.189 16.8122 80.189 16.7538 80.2181 16.6663V15.1777V14.7107C80.2181 14.6231 80.2181 14.5647 80.2181 14.5064C80.2181 14.448 80.2181 14.3896 80.2181 14.3312C80.2181 14.2729 80.2181 14.2437 80.189 14.2145V14.1853V14.1561C80.1599 14.0977 80.1017 14.0685 80.0435 14.0394C79.9854 14.0102 79.8981 13.981 79.7818 13.981C79.7236 13.981 79.6654 13.981 79.6073 13.981C79.5491 13.981 79.4618 13.981 79.4037 13.981H79.1128H78.7347C78.7056 13.981 78.7056 13.981 78.6765 13.981C78.6474 13.981 78.6474 13.981 78.6183 13.981C78.502 14.0102 78.4147 14.0685 78.3275 14.1269C78.2402 14.1853 78.1821 14.2729 78.1239 14.3896C78.0657 14.5064 78.0366 14.6523 78.0366 14.7982V15.1485C78.0366 15.2361 78.0366 15.4696 78.0366 15.9074C78.0366 16.3452 78.0366 16.5787 78.0366 16.6079C78.0366 16.6663 78.0366 16.6954 78.0366 16.7538C78.0366 16.783 78.0657 16.8414 78.0657 16.8706C78.0948 16.9289 78.1239 16.9873 78.2111 17.0165C78.2693 17.0457 78.3566 17.0457 78.4729 17.0457H79.7527Z" fill="white"/>
<path d="M86.0642 13.66V14.3897V15.1485V17.2501H85.8025H85.0171H83.7955H83.1847L82.8066 16.6079C82.8066 16.5496 82.8066 16.3161 82.8066 15.9074C82.8066 15.4696 82.8066 15.2361 82.8066 15.1485V14.9734C82.8066 14.5648 82.923 14.2437 83.1847 14.0102C83.4174 13.8059 83.7374 13.6892 84.1446 13.66H84.29H84.4063H85.0462H85.7152H86.0642ZM85.4825 14.6815C85.4825 14.594 85.4825 14.5356 85.4825 14.4772C85.4825 14.4189 85.4825 14.3605 85.4825 14.3021C85.4825 14.2437 85.4825 14.2145 85.4534 14.1854C85.4534 14.1562 85.4534 14.127 85.4243 14.0978C85.3953 14.0394 85.3371 14.0102 85.2789 13.981C85.2207 13.9518 85.1335 13.9227 85.0171 13.9227C84.959 13.9227 84.9008 13.9227 84.8426 13.9227C84.7845 13.9227 84.6972 13.9227 84.639 13.9227H84.3773H84.0573C83.9991 13.9227 83.9701 13.9227 83.941 13.9518C83.8828 13.981 83.8537 13.981 83.7955 14.0102C83.7374 14.0394 83.7083 14.0686 83.6501 14.0978C83.5629 14.1562 83.5047 14.2437 83.4465 14.3605C83.3883 14.4772 83.3593 14.6232 83.3593 14.7691V15.1194C83.3593 15.2069 83.3593 15.4404 83.3593 15.8782C83.3593 16.3161 83.3593 16.5496 83.3593 16.5788C83.3593 16.6955 83.3883 16.7831 83.4174 16.8414C83.4465 16.8998 83.4756 16.9582 83.5629 16.9874C83.621 17.0166 83.7083 17.0166 83.8246 17.0166H85.0462C85.1626 17.0166 85.2498 17.0166 85.308 16.9874C85.3662 16.9582 85.4243 16.929 85.4534 16.8414C85.4825 16.7831 85.5116 16.6955 85.5116 16.5788C85.5116 16.5204 85.5116 16.2869 85.5116 15.8782C85.5116 15.4404 85.5116 15.2069 85.5116 15.1194V14.6815H85.4825ZM84.0573 13.2222C83.941 13.2222 83.8537 13.193 83.7955 13.1054C83.7083 13.0178 83.6792 12.9303 83.6792 12.8427C83.6792 12.726 83.7083 12.6384 83.7955 12.5508C83.8828 12.4633 83.9701 12.4341 84.0573 12.4341C84.1737 12.4341 84.2609 12.4633 84.3191 12.5508C84.4063 12.6384 84.4354 12.726 84.4354 12.8427C84.4354 12.9595 84.4063 13.047 84.3191 13.1054C84.2609 13.1638 84.1737 13.2222 84.0573 13.2222ZM84.9299 13.2222C84.8135 13.2222 84.7263 13.193 84.6681 13.1054C84.5809 13.0178 84.5518 12.9303 84.5518 12.8427C84.5518 12.726 84.5809 12.6384 84.6681 12.5508C84.7554 12.4633 84.8426 12.4341 84.9299 12.4341C85.0462 12.4341 85.1335 12.4633 85.2207 12.5508C85.308 12.6384 85.3371 12.726 85.3371 12.8427C85.3371 12.9595 85.308 13.047 85.2207 13.1054C85.1335 13.1638 85.0462 13.2222 84.9299 13.2222Z" fill="white"/>
<path d="M87.7803 17.4251C87.7512 17.7462 87.664 18.0089 87.4894 18.2132C87.3731 18.33 87.2568 18.4175 87.1113 18.4759C86.9659 18.5343 86.7623 18.5635 86.5878 18.5635L86.5587 18.2716C86.6751 18.2716 86.7623 18.2716 86.8496 18.2424C86.9368 18.2132 86.995 18.1548 87.0532 18.0965C87.1113 18.0381 87.1404 17.9505 87.1695 17.8338C87.1986 17.717 87.1986 17.5711 87.1986 17.396V17.0749C87.1986 17.0457 87.1986 16.9873 87.1986 16.8998C87.1986 16.8122 87.1986 16.7246 87.1986 16.6371C87.1986 16.5495 87.1986 16.4619 87.1986 16.4036C87.1986 16.316 87.1986 16.2576 87.1986 16.2284V14.6815C87.1986 14.5939 87.1986 14.5355 87.1986 14.4772C87.1986 14.4188 87.1986 14.3604 87.1986 14.302C87.1986 14.2145 87.1695 14.1269 87.1404 14.0685C87.1113 14.0102 87.0823 13.9518 87.0241 13.9226C86.9659 13.8934 86.8787 13.8934 86.7914 13.8934H86.7332V13.6599H87.7803V16.2284C87.7803 16.2576 87.7803 16.316 87.7803 16.4036C87.7803 16.4911 87.7803 16.5495 87.7803 16.6663C87.7803 16.7538 87.7803 16.8414 87.7803 16.9289C87.7803 17.0165 87.7803 17.0749 87.7803 17.1333V17.4251Z" fill="white"/>
<path d="M89.6418 17.0456V17.2792H89.5545H88.711H88.5074V16.2576V13.7182V13.4555C88.5074 13.368 88.5074 13.3096 88.5074 13.2512C88.5074 13.1929 88.5074 13.1345 88.5074 13.0761C88.5074 12.9594 88.4783 12.8718 88.4492 12.8134C88.4202 12.755 88.3911 12.6967 88.3329 12.6675C88.2747 12.6383 88.2166 12.6383 88.1002 12.6383H88.0421V12.4048H88.5074H88.711H89.0891V16.1992C89.0891 16.2868 89.0891 16.3451 89.0891 16.4035C89.0891 16.4619 89.0891 16.5203 89.0891 16.5786C89.0891 16.6662 89.1182 16.7538 89.1473 16.8413C89.1764 16.8997 89.2346 16.9581 89.2927 16.9873C89.3218 16.9873 89.3509 17.0165 89.4091 17.0165C89.4382 17.0165 89.4963 17.0165 89.5545 17.0165H89.6418V17.0456Z" fill="white"/>
<path d="M95.2844 17.0457V17.2792H94.6154H93.1321H89.351V17.0457H93.1321C93.2193 17.0457 93.3066 17.0457 93.3938 17.0165C93.452 16.9873 93.5102 16.9289 93.5393 16.8706C93.5684 16.8122 93.5974 16.7246 93.5974 16.6079C93.5974 16.5495 93.5974 16.4911 93.5974 16.4328C93.5974 16.3744 93.5974 16.2868 93.5974 16.2284V14.769C93.5974 14.5939 93.5684 14.4772 93.5102 14.3604C93.452 14.2437 93.3938 14.1561 93.3066 14.0977C93.2193 14.0394 93.1321 13.981 93.0157 13.9518C92.9866 13.9518 92.9866 13.9518 92.9576 13.9518C92.9285 13.9518 92.9285 13.9518 92.8994 13.9518H91.9105H91.6487C91.5615 13.9518 91.5033 13.9518 91.4451 13.9518C91.3869 13.9518 91.3288 13.9518 91.2706 13.9518C91.1543 13.9518 91.0961 13.981 91.0379 14.0102C90.9797 14.0394 90.9216 14.0685 90.8925 14.1269C90.8634 14.1853 90.8634 14.2437 90.8634 14.3604V14.4188H90.6307V13.9518V13.8642V13.6599H92.6085H92.7249H92.783C93.2193 13.6599 93.5684 13.7767 93.8301 14.0102C94.0919 14.2437 94.2082 14.5647 94.2082 14.9734V16.2284C94.2082 16.316 94.2082 16.3744 94.2082 16.4328C94.2082 16.4911 94.2082 16.5495 94.2082 16.6079C94.2082 16.6954 94.2373 16.783 94.2664 16.8706C94.2955 16.9289 94.3246 16.9873 94.3828 17.0165C94.4409 17.0457 94.5282 17.0457 94.6154 17.0457H95.2844ZM92.2013 17.8338C92.3177 17.8338 92.4049 17.863 92.4631 17.9505C92.5504 18.0381 92.5794 18.1256 92.5794 18.2132C92.5794 18.3008 92.5504 18.4175 92.4631 18.5051C92.3758 18.5927 92.2886 18.6218 92.2013 18.6218C92.1141 18.6218 91.9977 18.5927 91.9396 18.5051C91.8523 18.4175 91.8232 18.33 91.8232 18.2132C91.8232 18.0965 91.8523 18.0089 91.9396 17.9505C91.9977 17.863 92.085 17.8338 92.2013 17.8338Z" fill="white"/>
<path d="M97.6112 17.0458V17.2793H97.1168H95.6334H94.8772V17.0458H95.6625C95.7788 17.0458 95.8661 17.0458 95.9243 17.0166C95.9824 16.9874 96.0406 16.929 96.0697 16.8707C96.0988 16.8123 96.0988 16.7247 96.1279 16.608C96.1279 16.5496 96.1279 16.4912 96.1279 16.4328C96.1279 16.3745 96.1279 16.2869 96.1279 16.2285V14.6816C96.1279 14.594 96.1279 14.5356 96.1279 14.4772C96.1279 14.4189 96.1279 14.3605 96.1279 14.3021C96.1279 14.2146 96.0988 14.127 96.0697 14.0686C96.0406 14.0102 96.0115 13.9519 95.9534 13.9227C95.8952 13.8935 95.8079 13.8935 95.7207 13.8935H95.6625V13.66H96.7096V16.2285C96.7096 16.3161 96.7096 16.3745 96.7096 16.4328C96.7096 16.4912 96.7096 16.5496 96.7096 16.608C96.7096 16.7247 96.7387 16.8123 96.7678 16.8707C96.7968 16.929 96.8259 16.9874 96.8841 17.0166C96.9423 17.0458 97.0004 17.0458 97.1168 17.0458H97.6112ZM95.7788 12.9011C95.6625 12.9011 95.5752 12.8719 95.5171 12.7844C95.4298 12.6968 95.4007 12.6092 95.4007 12.5217C95.4007 12.4049 95.4298 12.3174 95.5171 12.2298C95.6043 12.1422 95.6916 12.113 95.7788 12.113C95.8952 12.113 95.9824 12.1422 96.0406 12.2298C96.1279 12.3174 96.157 12.4049 96.157 12.5217C96.157 12.6384 96.1279 12.726 96.0406 12.7844C95.9824 12.8719 95.8952 12.9011 95.7788 12.9011ZM96.6514 12.9011C96.5351 12.9011 96.4478 12.8719 96.3896 12.7844C96.3024 12.6968 96.2733 12.6092 96.2733 12.5217C96.2733 12.4049 96.3024 12.3174 96.3896 12.2298C96.4769 12.1422 96.5642 12.113 96.6514 12.113C96.7678 12.113 96.855 12.1422 96.9423 12.2298C97.0295 12.3174 97.0586 12.4049 97.0586 12.5217C97.0586 12.6384 97.0295 12.726 96.9423 12.7844C96.855 12.8719 96.7387 12.9011 96.6514 12.9011Z" fill="white"/>
<path d="M99.2109 17.0456V17.2792H99.0946H98.0766H97.3785V17.0456H98.0766V16.2284V13.7182V13.4555C98.0766 13.368 98.0766 13.3096 98.0766 13.2512C98.0766 13.1929 98.0766 13.1345 98.0766 13.0761C98.0766 12.9885 98.0475 12.901 98.0475 12.8134C98.0184 12.755 97.9893 12.6967 97.9312 12.6675C97.873 12.6383 97.8148 12.6383 97.6985 12.6383H97.6403V12.4048H98.1057H98.3093H98.6583V16.1992C98.6583 16.2868 98.6583 16.3451 98.6583 16.4035C98.6583 16.4619 98.6583 16.5203 98.6583 16.5786C98.6583 16.637 98.6583 16.6662 98.6583 16.7246C98.6583 16.783 98.6874 16.8121 98.6874 16.8413C98.7165 16.8997 98.7456 16.9581 98.8328 16.9873C98.891 17.0165 98.9783 17.0165 99.0946 17.0165H99.2109V17.0456Z" fill="white"/>
<path d="M100.2 17.25H99.8508H99.1237V17.0165H99.8508V16.1992V13.7182V13.4555C99.8508 13.368 99.8508 13.3096 99.8508 13.2512C99.8508 13.1929 99.8508 13.1345 99.8508 13.0761C99.8508 12.9885 99.8217 12.901 99.8217 12.8134C99.7926 12.755 99.7635 12.6967 99.7054 12.6675C99.6472 12.6383 99.589 12.6383 99.4727 12.6383H99.4145V12.4048H99.8799H100.083H100.433V16.6954L100.2 17.25Z" fill="white"/>
<path d="M109.798 13.66V16.6663L109.507 17.2501H108.751H108.577H107.093H106.919H106.802H106.453V18.1841H105.435H103.981H103.836C103.37 18.1841 103.021 18.0673 102.759 17.8338C102.498 17.6003 102.381 17.2793 102.381 16.8706V15.6155C102.381 15.528 102.381 15.4696 102.381 15.4112C102.381 15.3529 102.381 15.2945 102.381 15.2361H102.73H102.963H103.399V15.4696H103.341C103.254 15.4696 103.167 15.4696 103.108 15.4988C103.05 15.528 103.021 15.5864 102.992 15.6447C102.992 15.6739 102.992 15.8782 102.963 16.2577C102.963 16.6371 102.963 16.8706 102.934 16.8998V17.1041C102.934 17.2793 102.963 17.4252 103.021 17.5128C103.079 17.6295 103.138 17.7171 103.225 17.7754C103.254 17.8046 103.312 17.8338 103.37 17.863C103.428 17.8922 103.457 17.8922 103.516 17.9214C103.603 17.9506 103.719 17.9506 103.836 17.9506H105.435C105.552 17.9506 105.61 17.9214 105.668 17.9214C105.726 17.8922 105.784 17.8338 105.813 17.7754C105.842 17.7171 105.872 17.6295 105.872 17.5128C105.872 17.4544 105.872 17.396 105.872 17.3376C105.872 17.2793 105.872 17.1917 105.872 17.1333V14.6523C105.872 14.5648 105.872 14.5064 105.872 14.448C105.872 14.3897 105.872 14.3313 105.872 14.2729C105.872 14.2145 105.872 14.1853 105.872 14.127C105.872 14.0978 105.842 14.0394 105.842 14.0102C105.813 13.9518 105.755 13.8935 105.726 13.8643C105.668 13.8351 105.61 13.8351 105.493 13.8351H105.435V13.6016H106.482V16.1701C106.482 16.2577 106.482 16.3161 106.482 16.3744C106.482 16.4328 106.482 16.4912 106.482 16.5496C106.482 16.6663 106.511 16.7539 106.541 16.8122C106.57 16.8706 106.599 16.929 106.657 16.9582C106.715 16.9874 106.773 16.9874 106.89 16.9874H107.151C107.268 16.9874 107.355 16.9874 107.413 16.9582C107.471 16.929 107.529 16.8998 107.559 16.8122C107.588 16.7539 107.588 16.6663 107.617 16.5496C107.617 16.4912 107.617 16.4328 107.617 16.3744C107.617 16.3161 107.617 16.2285 107.617 16.1701V14.6232C107.617 14.5356 107.617 14.4772 107.617 14.4188C107.617 14.3605 107.617 14.3021 107.617 14.2437C107.617 14.127 107.588 14.0394 107.559 13.981C107.529 13.9227 107.5 13.8643 107.442 13.8351C107.384 13.8059 107.326 13.8059 107.209 13.8059H107.151V13.5724H108.198V16.1409C108.198 16.2285 108.198 16.2869 108.198 16.3452C108.198 16.4036 108.198 16.462 108.198 16.5204C108.198 16.6371 108.227 16.7247 108.257 16.7831C108.286 16.8414 108.315 16.8998 108.373 16.929C108.431 16.9582 108.489 16.9582 108.606 16.9582H108.867C108.984 16.9582 109.071 16.9582 109.129 16.929C109.187 16.8998 109.245 16.8706 109.275 16.7831C109.304 16.7247 109.333 16.6371 109.333 16.5204C109.333 16.462 109.333 16.4036 109.333 16.3452C109.333 16.2869 109.333 16.1993 109.333 16.1409V14.594C109.333 14.5064 109.333 14.448 109.333 14.3897C109.333 14.3313 109.333 14.2729 109.333 14.2145C109.333 14.0978 109.304 14.0102 109.275 13.9518C109.245 13.8935 109.216 13.8351 109.158 13.8059C109.1 13.7767 109.042 13.7767 108.926 13.7767H108.867V13.5432H109.798V13.66Z" fill="white"/>
<path d="M111.863 17.0456V17.2792H111.776H110.962H110.758V16.2576V13.7182V13.4555C110.758 13.368 110.758 13.3096 110.758 13.2512C110.758 13.1929 110.758 13.1345 110.758 13.0761C110.758 12.9594 110.729 12.8718 110.7 12.8134C110.671 12.755 110.642 12.6967 110.583 12.6675C110.525 12.6383 110.467 12.6383 110.351 12.6383H110.293V12.4048H110.758H110.962H111.34V16.1992C111.34 16.2868 111.34 16.3451 111.34 16.4035C111.34 16.4619 111.34 16.5203 111.34 16.5786C111.34 16.6662 111.369 16.7538 111.398 16.8413C111.427 16.8997 111.485 16.9581 111.543 16.9873C111.572 16.9873 111.601 17.0165 111.66 17.0165C111.718 17.0165 111.747 17.0165 111.805 17.0165H111.863V17.0456Z" fill="white"/>
<path d="M115.499 17.2501H114.801H113.579H112.096H111.98H111.805V17.0166H111.98H112.154C112.241 17.0166 112.329 17.0166 112.387 16.9875C112.445 16.9583 112.474 16.8999 112.503 16.8415C112.532 16.7831 112.532 16.6956 112.561 16.608C112.561 16.5496 112.561 16.3161 112.561 15.9075C112.561 15.4697 112.561 15.2362 112.561 15.1486V14.5649C112.561 14.5065 112.561 14.4773 112.561 14.4189C112.561 14.3606 112.561 14.3314 112.561 14.3022C112.561 14.1854 112.532 14.0979 112.503 14.0395C112.474 13.9811 112.445 13.9227 112.387 13.8935C112.329 13.8644 112.27 13.8644 112.154 13.8644H112.096V13.6309H112.561H112.91H113.143H113.608H114.248H114.365H114.51C114.917 13.66 115.237 13.7768 115.47 13.9811C115.732 14.2146 115.848 14.5357 115.848 14.9443V15.1194C115.848 15.207 115.848 15.4405 115.848 15.8783C115.848 16.3161 115.848 16.5496 115.848 16.5788L115.499 17.2501ZM114.801 17.0166C114.917 17.0166 115.004 17.0166 115.063 16.9875C115.121 16.9583 115.179 16.9291 115.208 16.8415C115.237 16.7831 115.237 16.6956 115.266 16.608C115.266 16.5496 115.266 16.3161 115.266 15.9075C115.266 15.4697 115.266 15.2362 115.266 15.1486V14.7984C115.266 14.6232 115.237 14.5065 115.179 14.3897C115.121 14.273 115.063 14.1854 114.975 14.1271C114.888 14.0687 114.801 14.0103 114.684 13.9811C114.626 13.9811 114.597 13.9519 114.568 13.9519H114.19H113.928C113.841 13.9519 113.783 13.9519 113.725 13.9519C113.666 13.9519 113.608 13.9519 113.55 13.9519C113.463 13.9519 113.376 13.9519 113.288 13.9811C113.23 14.0103 113.172 14.0395 113.143 14.0979C113.143 14.0979 113.143 14.1271 113.114 14.1854C113.114 14.2146 113.085 14.273 113.085 14.3022C113.085 14.3314 113.085 14.3897 113.085 14.4481C113.085 14.5065 113.085 14.5649 113.085 14.6232V15.1778V15.2654C113.085 15.3238 113.085 15.5573 113.085 15.9659C113.085 16.3745 113.085 16.608 113.085 16.6372C113.085 16.754 113.114 16.8123 113.143 16.8707C113.172 16.9291 113.23 16.9875 113.288 17.0166C113.347 17.0458 113.434 17.0458 113.55 17.0458H114.801V17.0166Z" fill="white"/>
<path d="M117.564 17.2501H117.128V16.2285V13.7184V13.4557C117.128 13.3681 117.128 13.3097 117.128 13.2514C117.128 13.193 117.128 13.1346 117.128 13.0762C117.128 12.9595 117.099 12.8719 117.069 12.8135C117.04 12.7552 117.011 12.6968 116.953 12.6676C116.895 12.6384 116.837 12.6384 116.72 12.6384H116.662V12.4049H117.128H117.36H117.709V16.8123L117.564 17.2501ZM116.691 12.1714V12.0547V12.0255V11.9087H116.75V11.9671C116.75 11.9963 116.75 12.0255 116.75 12.0255L116.779 12.0547C116.779 12.0547 116.808 12.0547 116.837 12.0838H116.924C116.924 12.0838 116.953 12.0838 116.953 12.0547V12.0255V11.9963V11.9671V11.9087C116.953 11.8211 116.982 11.7336 117.04 11.6752C117.069 11.646 117.099 11.6168 117.128 11.6168C117.157 11.6168 117.215 11.5876 117.244 11.5876H117.273H117.302H117.564V11.6752V11.792H117.506C117.506 11.7628 117.506 11.7336 117.506 11.7336C117.506 11.7336 117.506 11.7336 117.477 11.7044C117.477 11.7044 117.477 11.7044 117.448 11.6752H117.419H117.389H117.302H117.244H117.215C117.186 11.6752 117.186 11.6752 117.157 11.6752C117.128 11.6752 117.099 11.6752 117.099 11.7044C117.069 11.7336 117.069 11.7336 117.04 11.7628C117.04 11.792 117.011 11.8211 117.011 11.8795V11.9087V11.9671C117.011 11.9963 117.011 11.9963 117.011 12.0255C117.011 12.0547 117.04 12.0547 117.04 12.0547H117.302H117.36H117.448C117.477 12.0547 117.506 12.0547 117.506 12.0255C117.506 12.0255 117.535 12.0255 117.535 11.9963C117.535 11.9963 117.535 11.9671 117.535 11.9379V11.9087H117.593V12.0255V12.0547V12.1714H117.215H116.866H116.691Z" fill="white"/>
<path d="M124.341 17.0458V17.2793H123.759H122.276H121.054H120.356L120.036 16.6371C120.036 16.5788 120.036 16.3452 120.036 15.9366C120.036 15.4988 120.036 15.2653 120.036 15.1777V15.0026C120.036 14.594 120.153 14.2729 120.414 14.0394C120.647 13.8351 120.967 13.7183 121.374 13.6892H121.52H121.636H122.276H122.945H123.294V15.1777C123.294 15.2653 123.294 15.4988 123.294 15.9366C123.294 16.3744 123.294 16.6079 123.294 16.6371C123.294 16.7539 123.323 16.8414 123.352 16.8998C123.381 16.9582 123.41 17.0166 123.468 17.0458C123.526 17.0749 123.585 17.0749 123.701 17.0749H124.341V17.0458ZM122.276 17.0458C122.392 17.0458 122.479 17.0458 122.538 17.0166C122.596 16.9874 122.654 16.929 122.683 16.8706C122.712 16.8123 122.712 16.7247 122.741 16.6079C122.741 16.5496 122.741 16.3161 122.741 15.9074C122.741 15.4696 122.741 15.2361 122.741 15.1485V14.6815C122.741 14.594 122.741 14.5356 122.741 14.4772C122.741 14.4189 122.741 14.3605 122.741 14.3021C122.741 14.2729 122.741 14.2437 122.741 14.2437C122.741 14.2145 122.741 14.2145 122.741 14.1854C122.741 14.1562 122.741 14.127 122.712 14.0978C122.683 14.0394 122.654 14.0102 122.596 13.981C122.538 13.9518 122.45 13.9227 122.334 13.9227C122.276 13.9227 122.218 13.9227 122.159 13.9227C122.101 13.9227 122.014 13.9227 121.956 13.9227H121.694H121.287C121.258 13.9227 121.258 13.9227 121.229 13.9227C121.2 13.9227 121.2 13.9227 121.171 13.9227C121.054 13.9518 120.967 14.0102 120.88 14.0686C120.792 14.127 120.734 14.2145 120.676 14.3313C120.618 14.448 120.589 14.594 120.589 14.7399V15.0902C120.589 15.1777 120.589 15.4112 120.589 15.8491C120.589 16.2869 120.589 16.5204 120.589 16.5496C120.589 16.6663 120.618 16.7539 120.647 16.8123C120.676 16.8706 120.705 16.929 120.792 16.9582C120.851 16.9874 120.938 16.9874 121.054 16.9874H122.276V17.0458ZM121.287 13.2222C121.171 13.2222 121.083 13.193 121.025 13.1054C120.938 13.0178 120.909 12.9303 120.909 12.8427C120.909 12.726 120.938 12.6384 121.025 12.5508C121.112 12.4633 121.2 12.4341 121.287 12.4341C121.403 12.4341 121.49 12.4633 121.578 12.5508C121.665 12.6384 121.694 12.726 121.694 12.8427C121.694 12.9595 121.665 13.047 121.578 13.1054C121.49 13.1638 121.403 13.2222 121.287 13.2222ZM122.159 13.2222C122.043 13.2222 121.956 13.193 121.898 13.1054C121.81 13.0178 121.781 12.9303 121.781 12.8427C121.781 12.726 121.81 12.6384 121.898 12.5508C121.985 12.4633 122.072 12.4341 122.159 12.4341C122.247 12.4341 122.363 12.4633 122.421 12.5508C122.508 12.6384 122.538 12.726 122.538 12.8427C122.538 12.9595 122.508 13.047 122.421 13.1054C122.363 13.1638 122.276 13.2222 122.159 13.2222Z" fill="white"/>
<path d="M130.158 17.25H129.431H124.021V17.0165H129.431C129.547 17.0165 129.634 17.0165 129.693 16.9873C129.751 16.9581 129.809 16.8997 129.838 16.8413C129.867 16.783 129.867 16.6954 129.896 16.5786C129.896 16.5203 129.896 16.4619 129.896 16.4035C129.896 16.3451 129.896 16.2576 129.896 16.1992V15.8489C129.896 15.6738 129.867 15.5571 129.809 15.4403C129.751 15.3236 129.693 15.236 129.605 15.1776C129.518 15.1193 129.431 15.0609 129.315 15.0317C129.285 15.0317 129.256 15.0317 129.198 15.0025H125.621H125.359C125.272 15.0025 125.213 15.0025 125.155 15.0025C125.097 15.0025 125.039 15.0025 124.981 15.0025H124.341V14.9733V14.9149V14.7982V14.7106C124.37 13.6015 124.486 12.9594 124.719 12.755C124.981 12.5215 125.33 12.4048 125.824 12.4048H125.882H125.941H129.315V12.6091V12.6675V13.1345H129.082V13.0761C129.082 12.9885 129.082 12.901 129.053 12.8426C129.024 12.7842 128.965 12.755 128.907 12.7259C128.849 12.6967 128.762 12.6967 128.675 12.6675C128.616 12.6675 128.558 12.6675 128.5 12.6675C128.442 12.6675 128.355 12.6675 128.297 12.6675H128.035H125.621C125.592 12.6675 125.592 12.6675 125.562 12.6675C125.533 12.6675 125.533 12.6675 125.504 12.6675C125.388 12.6967 125.301 12.755 125.213 12.8134C125.126 12.8718 125.068 12.9594 125.01 13.0761C124.952 13.1929 124.923 13.3388 124.923 13.4847V14.6814H128.849H128.965H129.111C129.518 14.7106 129.838 14.8274 130.071 15.0317C130.333 15.2652 130.449 15.5863 130.449 15.9949V16.17C130.449 16.2576 130.449 16.3743 130.449 16.5495L130.158 17.25Z" fill="white"/>
<path d="M133.125 17.25H132.659V17.4251C132.659 17.6003 132.601 17.7462 132.572 17.863C132.514 18.0089 132.456 18.1256 132.369 18.2132C132.165 18.4467 131.845 18.5635 131.438 18.5635L131.409 18.2716C131.525 18.2716 131.612 18.2716 131.7 18.2424C131.787 18.2132 131.845 18.1548 131.903 18.0965C131.961 18.0381 131.99 17.9505 132.019 17.8338C132.049 17.7754 132.049 17.717 132.049 17.6295C132.049 17.5711 132.049 17.4835 132.049 17.396V17.0749V16.2284V14.6815C132.049 14.5939 132.049 14.5355 132.049 14.4772C132.049 14.4188 132.049 14.3604 132.049 14.302C132.049 14.2145 132.019 14.1269 131.99 14.0685C131.961 14.0102 131.932 13.9518 131.874 13.9226C131.816 13.8934 131.729 13.8934 131.641 13.8934H131.583V13.6599H132.63V16.2284C132.63 16.2576 132.63 16.316 132.63 16.3744C132.63 16.4328 132.63 16.5203 132.63 16.5787C132.63 16.6663 132.63 16.7246 132.63 16.8122C132.63 16.8998 132.63 16.9581 132.63 17.0165H133.096V17.25H133.125Z" fill="white"/>
<path d="M138.04 17.2501H137.371H137.168H135.684H135.481H133.997H132.747V17.0166H133.997C134.114 17.0166 134.201 17.0166 134.259 16.9874C134.317 16.9582 134.375 16.929 134.404 16.8414C134.434 16.7831 134.463 16.6955 134.463 16.5788C134.463 16.5204 134.463 16.462 134.463 16.4036C134.463 16.3453 134.463 16.2577 134.463 16.1993V14.6524C134.463 14.5648 134.463 14.5064 134.463 14.448C134.463 14.3897 134.463 14.3313 134.463 14.2729C134.463 14.1562 134.434 14.0686 134.404 14.0102C134.375 13.9519 134.346 13.8935 134.288 13.8643C134.23 13.8351 134.172 13.8351 134.055 13.8351H133.997V13.6016H135.044V16.1701C135.044 16.2577 135.044 16.3161 135.044 16.3744C135.044 16.4328 135.044 16.4912 135.044 16.5496C135.044 16.6663 135.073 16.7539 135.103 16.8123C135.132 16.8706 135.161 16.929 135.219 16.9582C135.277 16.9874 135.335 16.9874 135.452 16.9874H135.713C135.83 16.9874 135.917 16.9874 135.975 16.9582C136.033 16.929 136.091 16.8706 136.121 16.8123C136.121 16.7831 136.15 16.7539 136.15 16.6955C136.15 16.6663 136.15 16.6079 136.15 16.5496C136.15 16.4912 136.15 16.4328 136.15 16.3744C136.15 16.3161 136.15 16.2285 136.15 16.1701V14.6232C136.15 14.5356 136.15 14.4772 136.15 14.4189C136.15 14.3605 136.15 14.3021 136.15 14.2437C136.15 14.1562 136.15 14.0686 136.121 13.981C136.091 13.9227 136.062 13.8643 136.004 13.8351C135.946 13.8059 135.888 13.8059 135.771 13.8059H135.713V13.5724H136.76V16.1409C136.76 16.2285 136.76 16.2869 136.76 16.3453C136.76 16.4036 136.76 16.462 136.76 16.5204C136.76 16.5788 136.76 16.6079 136.76 16.6663C136.76 16.6955 136.789 16.7539 136.789 16.7831C136.819 16.8414 136.848 16.8998 136.906 16.929C136.964 16.9582 137.022 16.9582 137.139 16.9582H137.4C137.517 16.9582 137.604 16.9582 137.662 16.929C137.72 16.8998 137.778 16.8414 137.807 16.7831C137.837 16.7247 137.837 16.6371 137.866 16.5204C137.866 16.462 137.866 16.4036 137.866 16.3453C137.866 16.2869 137.866 16.1993 137.866 16.1409V14.594C137.866 14.5064 137.866 14.448 137.866 14.3897C137.866 14.3313 137.866 14.2729 137.866 14.2145C137.866 14.0978 137.837 14.0102 137.807 13.9519C137.778 13.8935 137.749 13.8351 137.691 13.8059C137.633 13.7767 137.575 13.7767 137.458 13.7767H137.4V13.5432H138.447V16.1118C138.447 16.1993 138.447 16.2577 138.447 16.3161C138.447 16.3744 138.447 16.4328 138.447 16.4912L138.04 17.2501ZM135.859 12.9011C135.742 12.9011 135.655 12.8719 135.597 12.7843C135.51 12.6968 135.481 12.6092 135.481 12.4925C135.481 12.3757 135.51 12.2881 135.597 12.2298C135.684 12.1422 135.771 12.113 135.859 12.113C135.975 12.113 136.062 12.1422 136.15 12.2298C136.237 12.3173 136.266 12.4049 136.266 12.4925C136.266 12.58 136.237 12.6968 136.15 12.7843C136.062 12.8719 135.975 12.9011 135.859 12.9011ZM136.295 12.113C136.179 12.113 136.091 12.0838 136.033 11.9963C135.946 11.9087 135.917 11.8211 135.917 11.7044C135.917 11.5876 135.946 11.5001 136.033 11.4417C136.121 11.3541 136.208 11.325 136.295 11.325C136.411 11.325 136.499 11.3541 136.557 11.4417C136.644 11.5293 136.673 11.6168 136.673 11.7044C136.673 11.792 136.644 11.9087 136.557 11.9963C136.499 12.0838 136.411 12.113 136.295 12.113ZM136.353 12.5217C136.353 12.4049 136.382 12.3173 136.47 12.259C136.557 12.1714 136.644 12.1422 136.731 12.1422C136.848 12.1422 136.935 12.1714 136.993 12.259C137.08 12.3465 137.109 12.4341 137.109 12.5217C137.109 12.6092 137.08 12.726 136.993 12.8135C136.906 12.9011 136.819 12.9303 136.731 12.9303C136.615 12.9303 136.528 12.9011 136.47 12.8135C136.382 12.726 136.353 12.6092 136.353 12.5217Z" fill="white"/>
<path d="M44.5882 0V26.6485C44.5882 27.1447 44.5591 27.6117 44.53 28.0787C44.53 28.1954 44.5009 28.3122 44.5009 28.4289C44.4719 28.6332 44.4719 28.8376 44.4428 29.0419C44.4137 29.1878 44.4137 29.3629 44.3846 29.5089C44.3555 29.6548 44.3264 29.8299 44.2973 29.9759C44.2683 30.1218 44.2392 30.297 44.2101 30.4429C44.181 30.5888 44.1519 30.7056 44.1228 30.8515C44.0937 30.9391 44.0647 31.0558 44.0647 31.1434C44.0356 31.231 44.0356 31.3185 44.0065 31.3769C43.9774 31.4937 43.9483 31.6104 43.9192 31.7272C43.8901 31.8439 43.8611 31.9315 43.832 32.0482C43.7156 32.4569 43.5993 32.8363 43.4539 33.2449V33.2741C43.3666 33.5076 43.2793 33.7119 43.1921 33.9454C43.1339 34.1206 43.0467 34.2957 42.9885 34.4708C42.9594 34.5584 42.9012 34.6459 42.8721 34.7335C42.8431 34.7919 42.8431 34.8211 42.814 34.8794C42.7849 34.967 42.7267 35.0546 42.6976 35.1421C42.6685 35.1713 42.6686 35.2297 42.6395 35.2589C42.5813 35.3464 42.5522 35.434 42.494 35.5216C42.2032 36.0761 41.9123 36.6015 41.5633 37.1269C41.5051 37.2437 41.4179 37.3312 41.3597 37.4188C41.2434 37.5647 41.1561 37.7398 41.0398 37.8858C40.9525 38.0025 40.8943 38.0901 40.8071 38.2068C40.7198 38.3236 40.6326 38.4404 40.5162 38.5863C40.429 38.703 40.3417 38.8198 40.2254 38.9365C40.1381 39.0533 40.0218 39.1701 39.9345 39.2868C39.8472 39.4036 39.7309 39.5203 39.6437 39.6371C39.5564 39.7538 39.4691 39.8414 39.3528 39.9581C39.3237 39.9873 39.3237 39.9873 39.2946 40.0165C39.2074 40.1041 39.1492 40.1916 39.0619 40.25C39.0329 40.2792 39.0038 40.3084 38.9747 40.3376C38.8874 40.4251 38.7711 40.5419 38.6838 40.6294C38.5675 40.7462 38.4511 40.8338 38.3348 40.9505C38.1312 41.1548 37.8985 41.3299 37.6658 41.5343C37.6367 41.5634 37.6077 41.5634 37.5786 41.5926C37.4622 41.6802 37.375 41.7678 37.2586 41.8553C37.0259 42.0305 36.7933 42.2348 36.5315 42.3807C36.5024 42.4099 36.5024 42.4099 36.4733 42.4391C36.357 42.5266 36.2406 42.6142 36.1243 42.6726C36.0079 42.7602 35.8625 42.8477 35.7462 42.9353C35.6008 43.0228 35.4844 43.1104 35.339 43.1688C35.1936 43.2563 35.0772 43.3439 34.9318 43.4023C34.7864 43.4898 34.67 43.5482 34.5246 43.6358C34.4082 43.6942 34.2628 43.7817 34.1465 43.8401C34.1174 43.8401 34.1174 43.8693 34.0883 43.8693C33.972 43.9277 33.8265 43.986 33.7102 44.0444C33.5938 44.1028 33.4775 44.1612 33.3321 44.2195C33.303 44.2487 33.2739 44.2487 33.2448 44.2487C33.1285 44.3071 32.9831 44.3655 32.8667 44.4239C32.5759 44.5406 32.3141 44.6574 32.0232 44.7741C31.8778 44.8325 31.7615 44.8617 31.6451 44.92C31.5579 44.9492 31.4997 44.9784 31.4124 45.0076C31.3252 45.0368 31.2088 45.066 31.1216 45.0952C30.9761 45.1244 30.8598 45.1827 30.7144 45.2119C30.6853 45.2119 30.6271 45.2411 30.598 45.2411C30.4817 45.2703 30.3363 45.2995 30.2199 45.3579C30.0745 45.3871 29.9291 45.4454 29.7546 45.4746C29.6382 45.5038 29.551 45.533 29.4346 45.533C29.3764 45.533 29.2892 45.5622 29.231 45.5622C28.882 45.6206 28.533 45.7081 28.1839 45.7373C28.0967 45.7665 28.0094 45.7665 27.8931 45.7665C27.8349 45.7665 27.7767 45.7665 27.7476 45.7957C27.6313 45.8249 27.4859 45.8249 27.3695 45.8249H27.3404C27.2241 45.8249 27.1078 45.8541 27.0205 45.8541C26.9333 45.8541 26.846 45.8832 26.7297 45.8832C26.7006 45.8832 26.6715 45.8832 26.6133 45.8832C26.5261 45.8832 26.4097 45.8832 26.3225 45.9124C26.2643 45.9124 26.177 45.9124 26.1189 45.9124C26.0316 45.9124 25.9153 45.9124 25.828 45.9124C25.6826 45.9124 25.5371 45.9124 25.3917 45.9124H0V43.6358C0 39.1117 1.04708 34.8211 2.93764 30.9975C6.0498 24.8096 11.4015 19.8185 17.9458 17.25C21.0289 16.0241 24.3446 15.3236 27.8349 15.2652C27.6022 15.382 27.3986 15.4987 27.1659 15.6155C26.2934 16.1117 25.4499 16.6662 24.6355 17.2208C18.4403 21.6865 15.0082 28.1079 13.8157 35.6967H22.774C27.0496 35.6967 30.6853 33.099 32.2559 29.3921C32.7504 28.2246 33.0412 26.9404 33.0703 25.5977C33.0703 25.5685 33.0703 25.5393 33.0703 25.5393C33.0703 25.481 33.0703 25.4226 33.0703 25.335V9.95304H16.8115C16.6951 9.95304 16.6079 9.95304 16.4915 9.95304C16.3752 9.95304 16.2879 9.95304 16.2007 9.95304C15.9971 9.95304 15.7935 9.95305 15.5899 9.98223C15.3863 9.98223 15.1827 10.0114 14.9791 10.0114C14.9209 10.0114 14.8336 10.0114 14.7755 10.0406C14.63 10.0406 14.5137 10.0698 14.3683 10.0698C14.0483 10.099 13.7284 10.1574 13.4085 10.2157C13.2339 10.2449 13.0885 10.2741 12.914 10.3033C12.7977 10.3325 12.6522 10.3617 12.5359 10.3909C12.2741 10.4492 12.0414 10.5076 11.7797 10.566C11.4015 10.6536 11.0234 10.7703 10.6453 10.8871C9.97635 11.0914 9.36556 11.3249 8.75476 11.5876C8.49299 11.7043 8.26031 11.8211 7.99854 11.9378C7.91128 11.967 7.82402 12.0254 7.76585 12.0546C7.62042 12.1421 7.44591 12.2297 7.30048 12.3173C5.8462 13.1637 4.68278 14.2437 3.81021 15.5571C3.81021 15.5571 3.81021 15.5863 3.78113 15.5863C3.46118 16.1117 3.17033 16.6371 2.90856 17.25V14.3896C2.90856 12.8426 3.14124 11.3541 3.60661 9.98223C4.50827 7.15102 6.28249 4.69924 8.58025 2.94797C8.72567 2.83122 8.8711 2.74365 9.01653 2.6269C9.16196 2.51015 9.30739 2.42259 9.45281 2.33503C9.59824 2.24746 9.74367 2.1599 9.8891 2.04315C10.0345 1.95558 10.18 1.86802 10.3545 1.78046C10.4999 1.69289 10.6744 1.60533 10.8198 1.54695C11.227 1.34264 11.6342 1.16751 12.0414 0.992386C12.3323 0.875634 12.6231 0.788071 12.914 0.67132C13.0594 0.612944 13.2049 0.583756 13.3794 0.525381C13.5248 0.496193 13.6702 0.437817 13.8447 0.408629C13.932 0.379442 14.0193 0.379442 14.1065 0.350254C14.3683 0.291878 14.63 0.233503 14.9209 0.204315C15.0954 0.175127 15.299 0.145939 15.4735 0.116751C15.7353 0.0875634 16.0262 0.0583756 16.317 0.0291878C16.4043 0.0291878 16.4624 0.0291878 16.5497 0.0291878C16.7824 0 17.0151 0 17.2477 0H44.5882Z" fill="white"/>
<path d="M44.5882 0V26.6485C44.5882 27.1447 44.5591 27.6117 44.53 28.0787C44.53 28.1954 44.501 28.3122 44.501 28.4289C44.4719 28.6332 44.4719 28.8376 44.4428 29.0419C44.4137 29.1878 44.4137 29.3629 44.3846 29.5089C44.3555 29.6548 44.3264 29.8299 44.2974 29.9759C44.2683 30.1218 44.2392 30.297 44.2101 30.4429C44.181 30.5888 44.1519 30.7056 44.1228 30.8515C44.0938 30.9391 44.0647 31.0558 44.0647 31.1434C44.0356 31.231 44.0356 31.3185 44.0065 31.3769C43.9774 31.4937 43.9483 31.6104 43.9192 31.7272C43.8902 31.8439 43.8611 31.9315 43.832 32.0482C43.7156 32.4569 43.5993 32.8363 43.4539 33.2449V33.2741C43.3666 33.5076 43.2794 33.7119 43.1921 33.9454C43.1339 34.1206 43.0467 34.2957 42.9885 34.4708C42.9594 34.5584 42.9012 34.6459 42.8722 34.7335C42.8431 34.7919 42.8431 34.8211 42.814 34.8794C42.7849 34.967 42.7267 35.0546 42.6976 35.1421C42.6686 35.1713 42.6686 35.2297 42.6395 35.2589C42.5813 35.3464 42.5522 35.434 42.494 35.5216C42.2032 36.0761 41.9123 36.6015 41.5633 37.1269C41.5051 37.2437 41.4179 37.3312 41.3597 37.4188C41.2434 37.5647 41.1561 37.7398 41.0398 37.8858C40.9525 38.0025 40.8943 38.0901 40.8071 38.2068C40.7198 38.3236 40.6326 38.4404 40.5162 38.5863C40.429 38.703 40.3417 38.8198 40.2254 38.9365C40.1381 39.0533 40.0218 39.1701 39.9345 39.2868C39.8473 39.4036 39.7309 39.5203 39.6437 39.6371C39.5564 39.7538 39.4691 39.8414 39.3528 39.9581C39.3237 39.9873 39.3237 39.9873 39.2946 40.0165C39.2074 40.1041 39.1492 40.1916 39.062 40.25C39.0329 40.2792 39.0038 40.3084 38.9747 40.3376C38.8874 40.4251 38.7711 40.5419 38.6838 40.6294C38.5675 40.7462 38.4512 40.8338 38.3348 40.9505C38.1312 41.1548 37.8985 41.3299 37.6658 41.5343C37.6368 41.5634 37.6077 41.5634 37.5786 41.5926C37.4622 41.6802 37.375 41.7678 37.2586 41.8553C37.026 42.0305 36.7933 42.2348 36.5315 42.3807C36.5024 42.4099 36.5024 42.4099 36.4733 42.4391C36.357 42.5266 36.2406 42.6142 36.1243 42.6726C36.008 42.7602 35.8625 42.8477 35.7462 42.9353C35.6008 43.0228 35.4844 43.1104 35.339 43.1688C35.1936 43.2563 35.0772 43.3439 34.9318 43.4023C34.7864 43.4898 34.67 43.5482 34.5246 43.6358C34.4083 43.6942 34.2628 43.7817 34.1465 43.8401C34.1174 43.8401 34.1174 43.8693 34.0883 43.8693C33.972 43.9277 33.8265 43.986 33.7102 44.0444C33.5939 44.1028 33.4775 44.1612 33.3321 44.2195C33.303 44.2487 33.2739 44.2487 33.2448 44.2487C33.1285 44.3071 32.9831 44.3655 32.8667 44.4239C32.5759 44.5406 32.3141 44.6574 32.0232 44.7741C31.8778 44.8325 31.7615 44.8617 31.6451 44.92C31.5579 44.9492 31.4997 44.9784 31.4124 45.0076C31.3252 45.0368 31.2088 45.066 31.1216 45.0952C30.9762 45.1244 30.8598 45.1827 30.7144 45.2119C30.6853 45.2119 30.6271 45.2411 30.598 45.2411C30.4817 45.2703 30.3363 45.2995 30.2199 45.3579C30.0745 45.3871 29.9291 45.4454 29.7546 45.4746C29.6382 45.5038 29.551 45.533 29.4346 45.533C29.3764 45.533 29.2892 45.5622 29.231 45.5622C28.882 45.6206 28.533 45.7081 28.1839 45.7373C28.0967 45.7665 28.0094 45.7665 27.8931 45.7665C27.8349 45.7665 27.7767 45.7665 27.7477 45.7957C27.6313 45.8249 27.4859 45.8249 27.3695 45.8249H27.3405C27.2241 45.8249 27.1078 45.8541 27.0205 45.8541C26.9333 45.8541 26.846 45.8832 26.7297 45.8832C26.7006 45.8832 26.6715 45.8832 26.6133 45.8832C26.5261 45.8832 26.4097 45.8832 26.3225 45.9124C26.2643 45.9124 26.177 45.9124 26.1189 45.9124C26.0316 45.9124 25.9153 45.9124 25.828 45.9124C25.6826 45.9124 25.5372 45.9124 25.3917 45.9124H24.4028C24.8391 45.5914 25.2172 45.2411 25.5953 44.8617C32.4595 38.382 33.0994 28.1371 33.1576 25.9188C33.1576 25.7437 33.1576 25.6269 33.1576 25.5685C33.1576 25.5393 33.1576 25.5102 33.1576 25.5102C33.1576 25.4518 33.1576 25.3934 33.1576 25.3058V9.95304H16.8115C15.5026 9.95304 14.1938 10.0698 12.914 10.3033C12.7977 10.3325 12.6522 10.3617 12.5359 10.3909C12.2741 10.4492 12.0414 10.5076 11.7797 10.566C11.4016 10.6536 11.0234 10.7703 10.6453 10.8871C9.97637 11.0914 9.36557 11.3249 8.75477 11.5876C8.493 11.7043 8.26032 11.8211 7.99855 11.9378C7.91129 11.967 7.82403 12.0254 7.76586 12.0546C7.62043 12.1421 7.44592 12.2297 7.30049 12.3173C5.84621 13.1637 4.68279 14.2437 3.81022 15.5571C3.81022 15.5571 3.81022 15.5863 3.78114 15.5863C3.4612 16.1117 3.17034 16.6371 2.90857 17.25V14.3896C2.90857 12.8426 3.14125 11.3541 3.60662 9.98223C4.50828 7.15102 6.2825 4.69924 8.58026 2.94797C8.72569 2.83122 8.87111 2.74365 9.01654 2.6269C9.16197 2.51015 9.3074 2.42259 9.45283 2.33503C9.59825 2.24746 9.74368 2.1599 9.88911 2.04315C10.0345 1.95558 10.18 1.86802 10.3545 1.78046C10.4999 1.69289 10.6744 1.60533 10.8198 1.54695C11.227 1.34264 11.6342 1.16751 12.0414 0.992386C12.6232 0.758883 13.234 0.583756 13.8447 0.437817C13.932 0.408629 14.0193 0.408629 14.1065 0.379442C14.3683 0.321066 14.6301 0.26269 14.9209 0.233503C15.0954 0.204315 15.299 0.175127 15.4735 0.145939C15.7353 0.116751 16.0262 0.0875634 16.317 0.0583756C16.4043 0.0583756 16.4625 0.0583756 16.5497 0.0583756C16.7824 0 17.0151 0 17.2478 0H44.5882Z" fill="white"/>
<path d="M43.5702 1.05078V26.5026C43.5702 26.6485 43.5702 26.8236 43.5702 26.9696C43.5702 27.2031 43.5411 27.4658 43.5411 27.6993C43.5411 27.7868 43.5411 27.8452 43.5411 27.9036C43.5411 28.0495 43.512 28.1663 43.512 28.3122C43.512 28.4581 43.483 28.6041 43.4539 28.75C43.4248 28.896 43.4248 29.0419 43.3957 29.1878C43.3957 29.1878 43.3957 29.1878 43.3957 29.217C43.3666 29.363 43.3375 29.5089 43.3375 29.6548C43.3084 29.8008 43.2794 29.9467 43.2503 30.0927C43.1921 30.3553 43.1339 30.618 43.0758 30.8807C43.0176 31.1434 42.9303 31.4061 42.8722 31.6688C42.7849 31.9315 42.7267 32.165 42.6395 32.4277C42.5522 32.6904 42.465 32.9239 42.3777 33.1866C42.2904 33.3617 42.2323 33.566 42.145 33.7411C42.0578 33.9163 41.9996 34.0914 41.9123 34.2665C41.8542 34.3833 41.796 34.4708 41.7669 34.5876C41.7378 34.6168 41.7378 34.6751 41.7087 34.7043C41.6506 34.7919 41.6215 34.8795 41.5633 34.967C41.447 35.2005 41.3306 35.434 41.1852 35.6675C41.127 35.7843 41.0398 35.901 40.9816 36.0178C40.9234 36.1054 40.8653 36.1929 40.8071 36.3097C40.778 36.3389 40.778 36.368 40.7489 36.3972C40.6907 36.514 40.6035 36.6015 40.5453 36.7183C40.4871 36.8059 40.429 36.8934 40.3708 36.981C40.3417 37.0102 40.3417 37.0394 40.3126 37.0685C40.2545 37.1561 40.1963 37.2437 40.109 37.3312C39.8763 37.6523 39.6437 37.9442 39.411 38.2653C39.2365 38.4696 39.091 38.6739 38.9165 38.849C38.8293 38.9366 38.742 39.0533 38.6547 39.1409C38.5675 39.2284 38.4802 39.316 38.393 39.4328C38.3057 39.5203 38.2185 39.6079 38.1312 39.6954C38.044 39.783 37.9567 39.8706 37.8404 39.9581C37.6658 40.1333 37.4622 40.3084 37.2586 40.4835C37.055 40.6586 36.8514 40.8338 36.6478 40.9797C36.5606 41.0381 36.4733 41.1257 36.3861 41.184C36.357 41.2132 36.3279 41.2424 36.2988 41.2424C36.2116 41.3008 36.1243 41.3883 36.008 41.4467C35.8916 41.5343 35.8044 41.5927 35.688 41.6802C35.5717 41.7678 35.4844 41.8262 35.3681 41.9137C35.2517 41.9721 35.1645 42.0597 35.0481 42.118C34.8155 42.264 34.6119 42.3807 34.3792 42.5267C34.2628 42.585 34.1465 42.6434 34.0301 42.731C33.9429 42.7602 33.8847 42.8185 33.7975 42.8477C33.7102 42.8769 33.652 42.9353 33.5648 42.9645L33.5357 42.9937C33.4484 43.052 33.3612 43.0812 33.2448 43.1396C33.1576 43.1688 33.0703 43.2272 32.9831 43.2564C32.9831 43.2564 32.9831 43.2564 32.954 43.2564C32.8376 43.3147 32.7213 43.3731 32.6049 43.4023C32.4886 43.4607 32.3723 43.5191 32.2559 43.5482C32.1396 43.6066 32.0232 43.6358 31.8778 43.6942C31.7615 43.7526 31.6451 43.7817 31.5288 43.8401C31.4124 43.8985 31.267 43.9277 31.1507 43.9861C31.0052 44.0444 30.8889 44.0736 30.7435 44.132C30.6271 44.1612 30.5108 44.2196 30.3944 44.2487C30.2781 44.2779 30.1618 44.3071 30.0454 44.3363C30.0163 44.3363 29.9872 44.3655 29.9582 44.3655C29.8709 44.3947 29.7546 44.4239 29.6673 44.4531C29.6382 44.4531 29.6091 44.4823 29.551 44.4823C29.4346 44.5114 29.3474 44.5406 29.231 44.5698C28.9692 44.6282 28.7075 44.6866 28.4457 44.7449C28.1839 44.8033 27.9222 44.8325 27.6604 44.8617C27.515 44.8909 27.3986 44.8909 27.2532 44.9201C27.1078 44.9201 26.9914 44.9493 26.846 44.9493C26.4388 44.9784 26.0316 45.0076 25.5953 45.0076C25.5662 45.0076 25.5662 45.0076 25.5372 45.0076C25.4208 45.0076 25.3045 45.0076 25.1881 45.0076H1.01801V42.8185C1.01801 38.4987 2.036 34.4125 3.81022 30.764C6.77695 24.7221 11.896 19.9645 18.1203 17.5127C20.9416 16.4036 23.9665 15.7323 27.1659 15.6447C26.2934 16.1409 25.4499 16.6955 24.6355 17.25C18.4403 21.7158 15.0082 28.1371 13.8157 35.7259H22.774C27.0496 35.7259 30.6853 33.1282 32.2559 29.4213C32.7504 28.2538 33.0412 26.9696 33.0703 25.6269C33.0703 25.5685 33.0703 25.5685 33.0703 25.5685C33.0703 25.5102 33.0703 25.4518 33.0703 25.3642V9.95306H16.8115C16.6951 9.95306 16.6079 9.95306 16.4915 9.95306C16.4334 9.95306 16.3752 9.95306 16.317 9.95306C16.2879 9.95306 16.2298 9.95306 16.2007 9.95306C15.9971 9.95306 15.7935 9.95306 15.5899 9.98225C15.3863 9.98225 15.1827 10.0114 14.9791 10.0114C14.95 10.0114 14.8918 10.0114 14.8627 10.0114C14.8337 10.0114 14.8046 10.0114 14.7755 10.0114C14.6301 10.0114 14.5137 10.0406 14.3683 10.0406C14.0483 10.0698 13.7284 10.1282 13.4085 10.1866C13.2339 10.2158 13.0885 10.2449 12.914 10.2741C12.7977 10.3033 12.6522 10.3325 12.5359 10.3617C12.2741 10.4201 12.0414 10.4784 11.7797 10.5368C11.4016 10.6244 11.0234 10.7411 10.6453 10.8579C9.97636 11.0622 9.36557 11.2957 8.75477 11.5584C8.493 11.6751 8.26032 11.7919 7.99855 11.9086C7.91129 11.9378 7.82403 11.9962 7.76586 12.0254C7.62043 12.113 7.44592 12.2005 7.30049 12.2881C5.84621 13.1345 4.68279 14.2145 3.81022 15.5279V14.7399C3.81022 13.2805 4.04291 11.8503 4.47919 10.5368C6.16615 5.3122 10.878 1.45941 16.5788 1.07997C16.8696 1.05078 17.1896 1.05078 17.4804 1.05078H43.5702Z" fill="white"/>
<path d="M43.5702 1.05078V26.5026C43.5702 26.6485 43.5702 26.8236 43.5702 26.9696C43.5702 27.2031 43.5411 27.4658 43.5411 27.6993C43.5411 27.7868 43.5411 27.8452 43.5411 27.9036C43.5411 28.0495 43.5121 28.1663 43.5121 28.3122C43.5121 28.4581 43.483 28.6041 43.4539 28.75C43.4248 28.896 43.4248 29.0419 43.3957 29.1878C43.3957 29.1878 43.3957 29.1878 43.3957 29.217C43.3666 29.363 43.3375 29.5089 43.3375 29.6548C43.3085 29.8008 43.2794 29.9467 43.2503 30.0927C43.1921 30.3553 43.1339 30.618 43.0758 30.8807C43.0176 31.1434 42.9303 31.4061 42.8722 31.6688C42.7849 31.9315 42.7267 32.165 42.6395 32.4277C42.5522 32.6904 42.465 32.9239 42.3777 33.1866C42.2323 33.566 42.0869 33.9163 41.9124 34.2665C41.8542 34.3833 41.796 34.4708 41.7669 34.5876C41.7378 34.6168 41.7378 34.6751 41.7088 34.7043C41.6506 34.7919 41.6215 34.8795 41.5633 34.967C41.447 35.2005 41.3306 35.434 41.1852 35.6675C41.127 35.7843 41.0398 35.901 40.9816 36.0178C40.9234 36.1054 40.8653 36.1929 40.8071 36.3097C40.778 36.3389 40.778 36.368 40.7489 36.3972C40.6908 36.514 40.6035 36.6015 40.5453 36.7183C40.4872 36.8059 40.429 36.8934 40.3708 36.981C40.3417 37.0102 40.3417 37.0394 40.3126 37.0685C40.2545 37.1561 40.1963 37.2437 40.109 37.3312C39.8764 37.6523 39.6437 37.9442 39.411 38.2653C39.2365 38.4696 39.0911 38.6739 38.9165 38.849C38.8293 38.9366 38.742 39.0533 38.6548 39.1409C38.5675 39.2284 38.4803 39.316 38.393 39.4328C38.3057 39.5203 38.2185 39.6079 38.1312 39.6954C38.044 39.783 37.9567 39.8706 37.8404 39.9581C37.6659 40.1333 37.4623 40.3084 37.2587 40.4835C37.0551 40.6586 36.8515 40.8338 36.6479 40.9797C36.5606 41.0381 36.4734 41.1257 36.3861 41.184C36.357 41.2132 36.3279 41.2424 36.2988 41.2424C36.2116 41.3008 36.1243 41.3883 36.008 41.4467C35.8916 41.5343 35.8044 41.5927 35.688 41.6802C35.5717 41.7678 35.4844 41.8262 35.3681 41.9137C35.2518 41.9721 35.1645 42.0597 35.0482 42.118C34.8155 42.264 34.6119 42.3807 34.3792 42.5267C34.2628 42.585 34.1465 42.6434 34.0302 42.731C33.9429 42.7602 33.8847 42.8185 33.7975 42.8477C33.7102 42.8769 33.6521 42.9353 33.5648 42.9645L33.5357 42.9937C33.4485 43.052 33.3612 43.0812 33.2449 43.1396C33.1576 43.1688 33.0703 43.2272 32.9831 43.2564C32.9831 43.2564 32.9831 43.2564 32.954 43.2564C32.8377 43.3147 32.7213 43.3731 32.605 43.4023C32.1396 43.6066 31.6451 43.8109 31.1507 43.9861C31.0053 44.0444 30.8889 44.0736 30.7435 44.132C30.6271 44.1612 30.5108 44.2196 30.3945 44.2487C30.2781 44.2779 30.1618 44.3071 30.0454 44.3363C30.0164 44.3363 29.9873 44.3655 29.9582 44.3655C29.8709 44.3947 29.7546 44.4239 29.6673 44.4531C29.6382 44.4531 29.6092 44.4823 29.551 44.4823C29.4346 44.5114 29.3474 44.5406 29.231 44.5698C28.7075 44.6866 28.184 44.7741 27.6313 44.8617C27.4859 44.8909 27.3696 44.8909 27.2241 44.9201C27.0787 44.9201 26.9624 44.9493 26.8169 44.9493C26.4097 44.9784 26.0025 45.0076 25.5663 45.0076H25.5081C32.3723 38.5279 33.0122 28.283 33.0703 26.0647C33.0703 25.8896 33.0703 25.7729 33.0703 25.7145C33.0703 25.6561 33.0703 25.6561 33.0703 25.6561C33.0703 25.5977 33.0703 25.5394 33.0703 25.4518V9.95306H16.8115C15.5026 9.95306 14.1938 10.0698 12.914 10.3033C12.7977 10.3325 12.6523 10.3617 12.5359 10.3909C12.2741 10.4493 12.0415 10.5076 11.7797 10.566C11.4016 10.6536 11.0235 10.7703 10.6454 10.8871C9.97638 11.0914 9.36559 11.3249 8.75479 11.5876C8.49302 11.7043 8.26034 11.8211 7.99857 11.9378C7.91131 11.967 7.82405 12.0254 7.76588 12.0546C7.62045 12.1422 7.44594 12.2297 7.30051 12.3173C5.84623 13.1637 4.68281 14.2437 3.81024 15.5571V14.7691C3.81024 13.3097 4.04293 11.8795 4.47921 10.566C6.16617 5.3122 10.878 1.45941 16.5788 1.07997C16.8697 1.05078 17.1896 1.05078 17.4805 1.05078H43.5702Z" fill="white"/>
</svg>
