<svg width="153" height="50" viewBox="0 0 153 50" fill="none" xmlns="http://www.w3.org/2000/svg">
<path d="M62.9736 32.4239C63.0376 32.5508 63.0376 32.7094 62.9736 32.8363C62.9096 32.9632 62.7815 33.0266 62.5254 33.0266H61.629L60.9887 31.2817H57.9472L57.3389 33.0266H56.4105C56.1864 33.0266 56.0583 32.9632 55.9943 32.8363C55.9303 32.7094 55.9303 32.5825 55.9943 32.4239C56.3785 31.4404 57.2749 29.0926 58.6836 25.349C58.7796 25.1269 58.8757 24.9365 59.0357 24.8414C59.1638 24.7462 59.3239 24.6827 59.484 24.6827C59.644 24.6827 59.8041 24.7462 59.9322 24.8414C60.0602 24.9365 60.1883 25.1269 60.2843 25.349L62.9736 32.4239ZM60.5084 29.9492L59.484 26.9987L58.4595 29.9492H60.5084Z" fill="#1B2B57"/>
<path d="M70.8173 25.2221C70.9133 25.0952 71.0414 24.9683 71.1694 24.9048C71.3295 24.8414 71.4896 24.8096 71.6817 24.8096C71.8738 24.8096 72.0659 24.8731 72.258 25.0317C72.45 25.1903 72.5461 25.4124 72.5461 25.7614V32.519C72.5461 32.868 72.386 33.0266 72.0339 33.0266H71.1374V27.2525L69.0885 30.1396C68.8964 30.3934 68.6403 30.5203 68.3201 30.5203C68 30.5203 67.7438 30.3934 67.5517 30.1079L65.5028 27.2208V32.519C65.5028 32.8363 65.3427 32.9949 64.9905 32.9949H64.0941V25.7614C64.0941 25.4124 64.1902 25.1586 64.3823 25.0317C64.5743 24.8731 64.7664 24.8096 64.9585 24.8096C65.1506 24.8096 65.3107 24.8414 65.4708 24.9365C65.6308 25 65.7269 25.1269 65.8229 25.2538L68.3201 28.9023L70.8173 25.2221Z" fill="#1B2B57"/>
<path d="M80.6459 32.4239C80.71 32.5508 80.71 32.7094 80.6459 32.8363C80.5819 32.9632 80.4538 33.0266 80.1977 33.0266H79.3013L78.661 31.2817H75.5876L74.9793 33.0266H74.0508C73.8267 33.0266 73.6987 32.9632 73.6346 32.8363C73.5706 32.7094 73.5706 32.5825 73.6346 32.4239C74.0188 31.4404 74.9152 29.0926 76.3239 25.349C76.4199 25.1269 76.516 24.9365 76.6761 24.8414C76.8041 24.7462 76.9642 24.6827 77.1243 24.6827C77.2843 24.6827 77.4444 24.7462 77.5725 24.8414C77.7005 24.9365 77.8286 25.1269 77.9246 25.349L80.6459 32.4239ZM78.1808 29.9492L77.1563 26.9987L76.1318 29.9492H78.1808Z" fill="#1B2B57"/>
<path d="M87.4331 25.8883C87.4331 26.3325 87.241 26.4911 86.8248 26.3959C86.4086 26.3008 86.0564 26.2056 85.7043 26.1421C85.3841 26.0787 85.032 26.0469 84.6798 26.0469C84.3276 26.0469 84.0395 26.0787 83.8474 26.1104C83.6553 26.1739 83.4952 26.2373 83.3672 26.3325C83.2711 26.4277 83.1751 26.5228 83.1431 26.6497C83.1111 26.7766 83.079 26.9353 83.079 27.0622C83.079 27.2525 83.1431 27.4429 83.2391 27.5698C83.3352 27.6967 83.4632 27.7919 83.5913 27.8553C83.7514 27.9188 83.9114 27.9822 84.0715 28.014C84.2636 28.0457 84.4877 28.0774 84.7758 28.1091C85.064 28.1409 85.3841 28.1726 85.7363 28.236C86.0564 28.2995 86.3766 28.3947 86.6967 28.5533C86.9849 28.7119 87.241 28.9657 87.4651 29.2513C87.6892 29.5685 87.7853 29.981 87.7853 30.5203C87.7853 30.8693 87.7212 31.2183 87.6252 31.5355C87.5291 31.8528 87.3371 32.1383 87.1129 32.3604C86.8568 32.5825 86.5367 32.7728 86.1205 32.9315C85.7043 33.0584 85.192 33.1218 84.5517 33.1218C84.3276 33.1218 84.1035 33.1218 83.8474 33.0901C83.5913 33.0584 83.3352 33.0266 83.1111 32.9949C82.8549 32.9632 82.6308 32.8997 82.3747 32.868C82.1506 32.8046 81.9265 32.7728 81.7664 32.7411V31.8211C81.7664 31.4403 81.9585 31.3134 82.3427 31.4403C82.4067 31.4721 82.5028 31.5038 82.6308 31.5355C82.7589 31.5673 82.919 31.599 83.1111 31.6624C83.3032 31.6942 83.4952 31.7259 83.7193 31.7576C83.9435 31.7893 84.1676 31.7893 84.4237 31.7893C85.096 31.7893 85.5762 31.6942 85.8964 31.5038C86.1845 31.3134 86.3446 30.9962 86.3446 30.6155C86.3446 30.3617 86.2806 30.1713 86.1525 30.0127C86.0244 29.8541 85.8644 29.7589 85.6723 29.6637C85.4802 29.5685 85.2881 29.5368 85.096 29.5051C84.9039 29.4733 84.6158 29.4416 84.2956 29.4099C83.9755 29.3782 83.6553 29.3147 83.3672 29.2513C83.079 29.1878 82.7909 29.0609 82.5348 28.9023C82.2787 28.7436 82.0546 28.5216 81.8945 28.236C81.7344 27.9505 81.6384 27.6015 81.6384 27.1574C81.6384 26.6815 81.7344 26.269 81.8945 25.9518C82.0546 25.6345 82.2787 25.3807 82.5348 25.2221C82.8229 25.0317 83.1111 24.9048 83.4952 24.8414C83.8474 24.7779 84.2316 24.7462 84.6478 24.7462C85.032 24.7462 85.3841 24.7779 85.7363 24.8414C86.0564 24.9048 86.3766 24.9683 86.6327 25.0317C86.9209 25.0952 87.177 25.1903 87.4331 25.2855V25.8883Z" fill="#1B2B57"/>
<path d="M94.6045 25.8883C94.6045 26.3325 94.4124 26.4911 93.9962 26.3959C93.58 26.3008 93.2278 26.2056 92.8757 26.1421C92.5555 26.0787 92.2034 26.0469 91.8512 26.0469C91.499 26.0469 91.2109 26.0787 91.0188 26.1104C90.8267 26.1739 90.6666 26.2373 90.5386 26.3325C90.4425 26.4277 90.3465 26.5228 90.3145 26.6497C90.2825 26.7766 90.2504 26.9353 90.2504 27.0622C90.2504 27.2525 90.3145 27.4429 90.4105 27.5698C90.5066 27.6967 90.6346 27.7919 90.7627 27.8553C90.9227 27.9188 91.0828 27.9822 91.2429 28.014C91.435 28.0457 91.6591 28.0774 91.9472 28.1091C92.2354 28.1409 92.5555 28.1726 92.9077 28.236C93.2278 28.2995 93.548 28.3947 93.8681 28.5533C94.1563 28.7119 94.4124 28.9657 94.6365 29.2513C94.8606 29.5685 94.9567 29.981 94.9567 30.5203C94.9567 30.8693 94.8926 31.2183 94.7966 31.5355C94.7005 31.8528 94.5084 32.1383 94.2843 32.3604C94.0282 32.5825 93.7081 32.7728 93.2919 32.9315C92.8757 33.0584 92.3634 33.1218 91.7231 33.1218C91.499 33.1218 91.2749 33.1218 91.0188 33.0901C90.7627 33.0584 90.5066 33.0266 90.2824 32.9949C90.0263 32.9632 89.8022 32.8997 89.5461 32.868C89.322 32.8046 89.0979 32.7728 88.9378 32.7411V31.8211C88.9378 31.4403 89.1299 31.3134 89.5141 31.4403C89.5781 31.4721 89.6742 31.5038 89.8022 31.5355C89.9303 31.5673 90.0904 31.599 90.2824 31.6624C90.4745 31.6942 90.6666 31.7259 90.8907 31.7576C91.1148 31.7893 91.3389 31.7893 91.5951 31.7893C92.2674 31.7893 92.7476 31.6942 93.0678 31.5038C93.3559 31.3134 93.516 30.9962 93.516 30.6155C93.516 30.3617 93.4519 30.1713 93.3239 30.0127C93.1958 29.8541 93.0357 29.7589 92.8437 29.6637C92.6516 29.5685 92.4595 29.5368 92.2674 29.5051C92.0753 29.4733 91.7872 29.4416 91.467 29.4099C91.1469 29.3782 90.8267 29.3147 90.5386 29.2513C90.2504 29.1878 89.9623 29.0609 89.7062 28.9023C89.4501 28.7436 89.226 28.5216 89.0659 28.236C88.9058 27.9505 88.8098 27.6015 88.8098 27.1574C88.8098 26.6815 88.9058 26.269 89.0659 25.9518C89.226 25.6345 89.4501 25.3807 89.7062 25.2221C89.9943 25.0317 90.2825 24.9048 90.6666 24.8414C91.0188 24.7779 91.403 24.7462 91.8192 24.7462C92.2033 24.7462 92.5555 24.7779 92.9077 24.8414C93.2278 24.9048 93.548 24.9683 93.8041 25.0317C94.0922 25.0952 94.3484 25.1903 94.6045 25.2855V25.8883Z" fill="#1B2B57"/>
<path d="M102.672 26.1421C101.968 26.1421 101.456 26.3959 101.168 26.8718C100.847 27.3477 100.687 28.014 100.687 28.8388C100.687 29.7906 100.879 30.5203 101.232 31.0279C101.584 31.5355 102.16 31.7893 102.928 31.7893C103.281 31.7893 103.569 31.7576 103.761 31.7259C103.953 31.6624 104.145 31.6307 104.337 31.5673C104.497 31.5038 104.625 31.4721 104.689 31.4721C104.849 31.4404 105.009 31.4404 105.105 31.5038C105.201 31.5673 105.265 31.6942 105.265 31.8528V32.6459C105.105 32.7411 104.913 32.8363 104.689 32.9315C104.465 32.9949 104.209 33.0584 103.889 33.1218C103.601 33.1853 103.217 33.217 102.832 33.217C102.128 33.217 101.552 33.0901 101.104 32.868C100.655 32.6459 100.303 32.3287 100.015 31.948C99.7269 31.5673 99.5348 31.0914 99.4067 30.5838C99.2787 30.0761 99.2466 29.5368 99.2466 28.9657C99.2466 28.3947 99.3107 27.8871 99.4067 27.3794C99.5348 26.8718 99.7269 26.4277 100.015 26.047C100.303 25.6662 100.655 25.349 101.104 25.1269C101.552 24.9048 102.128 24.7779 102.832 24.7779C103.217 24.7779 103.569 24.8097 103.857 24.8414C104.145 24.9048 104.433 24.9366 104.657 25C104.881 25.0635 105.105 25.1269 105.265 25.2221V26.1104C105.265 26.269 105.233 26.3959 105.137 26.4911C105.041 26.5863 104.913 26.5863 104.721 26.5228C104.625 26.4911 104.497 26.4594 104.337 26.3959C104.177 26.3325 103.921 26.3008 103.665 26.2373C103.345 26.1739 103.024 26.1421 102.672 26.1421Z" fill="#1B2B57"/>
<path d="M109.716 24.7145C110.452 24.7145 111.028 24.8097 111.476 25.0317C111.925 25.2538 112.277 25.5393 112.533 25.9201C112.789 26.3008 112.981 26.7449 113.077 27.2525C113.173 27.7602 113.205 28.2995 113.205 28.9023C113.205 29.4416 113.173 29.9492 113.077 30.4569C113.013 30.9645 112.821 31.4086 112.597 31.8211C112.341 32.2018 112.021 32.519 111.572 32.7729C111.124 33.0267 110.548 33.1218 109.78 33.1218C109.043 33.1218 108.435 32.9949 107.987 32.7729C107.539 32.519 107.186 32.2335 106.93 31.8211C106.674 31.4404 106.514 30.9962 106.45 30.4886C106.386 29.981 106.322 29.4416 106.322 28.9023C106.322 28.363 106.354 27.8553 106.45 27.3477C106.514 26.8401 106.706 26.3959 106.93 26.0152C107.186 25.6345 107.507 25.3173 107.955 25.0635C108.403 24.8414 108.979 24.7145 109.716 24.7145ZM109.78 31.8528C110.196 31.8528 110.548 31.7893 110.804 31.6307C111.06 31.4721 111.284 31.25 111.412 30.9962C111.54 30.7424 111.669 30.4251 111.701 30.0444C111.765 29.6954 111.797 29.3147 111.797 28.9023C111.797 28.4899 111.765 28.1091 111.701 27.7602C111.637 27.4112 111.54 27.0939 111.412 26.8401C111.284 26.5863 111.06 26.3642 110.804 26.2373C110.548 26.0787 110.196 26.0152 109.748 26.0152C109.299 26.0152 108.947 26.0787 108.691 26.2373C108.435 26.3959 108.211 26.5863 108.083 26.8401C107.955 27.0939 107.859 27.4112 107.795 27.7602C107.731 28.1091 107.699 28.4899 107.699 28.9023C107.699 29.3147 107.731 29.7272 107.795 30.0762C107.859 30.4251 107.955 30.7424 108.083 31.0279C108.211 31.2817 108.435 31.5038 108.691 31.6307C108.979 31.7893 109.331 31.8528 109.78 31.8528Z" fill="#1B2B57"/>
<path d="M121.273 25.2221C121.369 25.0952 121.497 24.9683 121.625 24.9048C121.785 24.8414 121.945 24.8096 122.137 24.8096C122.33 24.8096 122.522 24.8731 122.714 25.0317C122.906 25.1903 123.002 25.4124 123.002 25.7614V32.519C123.002 32.868 122.842 33.0266 122.49 33.0266H121.593V27.2525L119.544 30.1396C119.352 30.3934 119.096 30.5203 118.776 30.5203C118.456 30.5203 118.2 30.3934 118.007 30.1079L115.959 27.2208V32.519C115.959 32.8363 115.798 32.9949 115.446 32.9949H114.55V25.7614C114.55 25.4124 114.646 25.1586 114.838 25.0317C115.03 24.8731 115.222 24.8096 115.414 24.8096C115.606 24.8096 115.766 24.8414 115.927 24.9365C116.087 25 116.183 25.1269 116.279 25.2538L118.776 28.8705L121.273 25.2221Z" fill="#1B2B57"/>
<path d="M127.26 24.6827C127.772 24.6827 128.22 24.7462 128.604 24.9048C128.989 25.0317 129.309 25.2538 129.597 25.5076C129.853 25.7614 130.045 26.0787 130.173 26.4277C130.301 26.7766 130.365 27.1891 130.365 27.6332C130.365 28.0774 130.301 28.4898 130.205 28.8706C130.109 29.2513 129.949 29.6003 129.725 29.9175C129.501 30.2348 129.181 30.4568 128.765 30.6155C128.348 30.8058 127.836 30.901 127.228 30.901C126.972 30.901 126.684 30.8693 126.427 30.8376C126.171 30.7741 125.915 30.7424 125.723 30.7107V33.0901H124.314V25.4759C124.667 25.2855 125.115 25.0952 125.595 24.9365C126.107 24.7779 126.652 24.6827 127.26 24.6827ZM127.356 29.5051C127.772 29.5051 128.092 29.4099 128.284 29.283C128.476 29.1561 128.636 28.9975 128.765 28.8071C128.861 28.6167 128.925 28.4264 128.957 28.2043C128.989 27.9822 128.989 27.7919 128.989 27.6332C128.989 27.4429 128.957 27.2525 128.925 27.0622C128.893 26.8718 128.797 26.7132 128.669 26.5546C128.54 26.3959 128.38 26.3008 128.156 26.2056C127.964 26.1104 127.676 26.0787 127.388 26.0787C126.972 26.0787 126.62 26.1104 126.363 26.1739C126.107 26.2373 125.915 26.3008 125.755 26.3642V29.283C125.915 29.3464 126.107 29.4099 126.363 29.4733C126.652 29.4733 126.972 29.5051 127.356 29.5051Z" fill="#1B2B57"/>
<path d="M136.96 32.4239C137.024 32.5508 137.024 32.7094 136.96 32.8363C136.896 32.9632 136.768 33.0266 136.512 33.0266H135.616L134.976 31.2817H131.902L131.294 33.0266H130.365C130.141 33.0266 130.013 32.9632 129.949 32.8363C129.885 32.7094 129.885 32.5825 129.949 32.4239C130.333 31.4404 131.23 29.0926 132.638 25.349C132.734 25.1269 132.831 24.9365 132.991 24.8414C133.119 24.7462 133.279 24.6827 133.439 24.6827C133.599 24.6827 133.759 24.7462 133.887 24.8414C134.015 24.9365 134.143 25.1269 134.239 25.349L136.96 32.4239ZM134.495 29.9492L133.471 26.9987L132.446 29.9492H134.495Z" fill="#1B2B57"/>
<path d="M144.74 24.8096V32.0432C144.74 32.3921 144.644 32.6142 144.484 32.8046C144.292 32.9632 144.132 33.0584 143.94 33.0584C143.748 33.0584 143.588 33.0267 143.427 32.9315C143.267 32.8363 143.139 32.7411 143.043 32.5508L139.65 27.3477V32.4556C139.65 32.8363 139.458 33.0267 139.105 33.0267H138.241V25.7297C138.241 25.4442 138.337 25.1904 138.497 25.0317C138.657 24.8731 138.849 24.7779 139.041 24.7779C139.233 24.7779 139.394 24.8096 139.554 24.9048C139.714 24.9683 139.842 25.0952 139.938 25.2855L143.363 30.4886V25.3173C143.363 25 143.524 24.8096 143.812 24.8096H144.74Z" fill="#1B2B57"/>
<path d="M152.52 24.8096C152.648 24.8096 152.776 24.8414 152.84 24.8731C152.904 24.9365 152.968 24.9683 152.968 25.0317C153 25.0952 153 25.1586 152.968 25.2538C152.936 25.3172 152.936 25.3807 152.904 25.4441L149.991 29.6637V32.519C149.991 32.868 149.83 33.0266 149.51 33.0266H148.614V29.6637L145.765 25.5393C145.701 25.4759 145.669 25.4124 145.636 25.349C145.604 25.2855 145.604 25.1903 145.636 25.1269C145.669 25.0634 145.701 24.9683 145.765 24.9365C145.829 24.8731 145.957 24.8414 146.085 24.8414H146.981L149.286 28.1408L151.591 24.8414H152.52V24.8096Z" fill="#1B2B57"/>
<path d="M56.2184 35.0571V35.6282H57.1149V35.9137C57.1149 36.0089 57.0508 36.0723 56.9548 36.0723H56.2184V37.0241C56.2184 37.1193 56.1864 37.1827 56.0904 37.1827H55.8022V35.0571C55.8022 34.7716 55.9303 34.6447 56.2184 34.6447H57.467V34.8985C57.467 34.9936 57.403 35.0571 57.307 35.0571H56.2184Z" fill="#1B2B57"/>
<path d="M60.5085 34.6129C60.7326 34.6129 60.9247 34.6447 61.0527 34.7081C61.1808 34.7716 61.3088 34.8668 61.3729 34.9937C61.4369 35.1206 61.5009 35.2475 61.5329 35.4061C61.565 35.5647 61.565 35.7234 61.565 35.9137C61.565 36.0723 61.565 36.231 61.5329 36.3896C61.5009 36.5482 61.4689 36.6751 61.3729 36.802C61.3088 36.9289 61.1808 37.0241 61.0527 37.0876C60.9247 37.151 60.7326 37.1827 60.5085 37.1827C60.2844 37.1827 60.0923 37.151 59.9642 37.0876C59.8361 37.0241 59.7081 36.9289 59.6441 36.802C59.58 36.6751 59.516 36.5482 59.484 36.3896C59.452 36.231 59.452 36.0723 59.452 35.9137C59.452 35.7551 59.452 35.5964 59.484 35.4378C59.516 35.2792 59.548 35.1523 59.6441 35.0254C59.7081 34.8985 59.8361 34.8033 59.9642 34.7398C60.0923 34.6447 60.2844 34.6129 60.5085 34.6129ZM60.5085 36.802C60.6365 36.802 60.7326 36.7703 60.8286 36.7386C60.9247 36.6751 60.9887 36.6117 61.0207 36.5482C61.0527 36.453 61.0847 36.3579 61.1167 36.2627C61.1488 36.1675 61.1488 36.0406 61.1488 35.9137C61.1488 35.7868 61.1488 35.6599 61.1167 35.5647C61.0847 35.4695 61.0847 35.3744 61.0207 35.2792C60.9887 35.184 60.9247 35.1206 60.8286 35.0888C60.7326 35.0571 60.6365 35.0254 60.5085 35.0254C60.3804 35.0254 60.2523 35.0571 60.1883 35.0888C60.0923 35.1206 60.0282 35.184 59.9962 35.2792C59.9642 35.3744 59.9322 35.4695 59.9002 35.5647C59.8682 35.6599 59.8682 35.7868 59.8682 35.9137C59.8682 36.0406 59.8682 36.1675 59.9002 36.2627C59.9322 36.3896 59.9322 36.4848 59.9962 36.5482C60.0282 36.6434 60.0923 36.7069 60.1883 36.7386C60.2844 36.7703 60.3804 36.802 60.5085 36.802Z" fill="#1B2B57"/>
<path d="M65.6309 36.9607C65.6629 36.9924 65.6629 37.0241 65.6629 37.0558C65.6629 37.0876 65.6629 37.0876 65.6309 37.1193C65.6309 37.1193 65.5989 37.151 65.5668 37.151C65.5348 37.151 65.5028 37.151 65.5028 37.151H65.2147L64.5424 36.1992H64.0621V37.151H63.6459V34.8033C63.742 34.7716 63.806 34.7399 63.9021 34.7081C63.9981 34.6764 64.0941 34.6447 64.1902 34.6447C64.2862 34.6129 64.4143 34.6129 64.5103 34.6129C64.8305 34.6129 65.0866 34.6764 65.2467 34.835C65.4068 34.9937 65.5028 35.184 65.5028 35.4695C65.5028 35.6282 65.4708 35.7551 65.4068 35.882C65.3427 36.0089 65.2147 36.1041 65.0546 36.1675L65.6309 36.9607ZM64.6064 35.8185C64.6704 35.8185 64.7024 35.8185 64.7665 35.7868C64.8305 35.7868 64.8625 35.7551 64.8945 35.7234C64.9265 35.6916 64.9586 35.6599 64.9906 35.5964C65.0226 35.533 65.0226 35.4695 65.0226 35.4061C65.0226 35.3426 65.0226 35.2792 64.9906 35.2157C64.9586 35.1523 64.9265 35.1206 64.8625 35.0888C64.7985 35.0571 64.7344 35.0571 64.6704 35.0254C64.6064 35.0254 64.5103 34.9937 64.4143 34.9937C64.3823 34.9937 64.3503 34.9937 64.2862 34.9937C64.2542 34.9937 64.1902 34.9937 64.1582 35.0254C64.1262 35.0254 64.0621 35.0571 64.0301 35.0571V35.8185H64.6064Z" fill="#1B2B57"/>
<path d="M72.0979 34.6447V34.8985C72.0979 34.9937 72.0339 35.0571 71.9379 35.0571H71.3616V37.151H70.9454V35.0571H70.209V34.7716C70.209 34.6764 70.2731 34.6129 70.3691 34.6129H72.0979V34.6447Z" fill="#1B2B57"/>
<path d="M76.0037 36.9607C76.0357 36.9924 76.0357 37.0241 76.0357 37.0558C76.0357 37.0876 76.0357 37.0876 76.0037 37.1193C76.0037 37.1193 75.9717 37.151 75.9397 37.151C75.9077 37.151 75.8757 37.151 75.8757 37.151H75.5875L74.9152 36.1992H74.435V37.151H74.0188V34.8033C74.1148 34.7716 74.1789 34.7399 74.2749 34.7081C74.371 34.6764 74.467 34.6447 74.5631 34.6447C74.6591 34.6129 74.7872 34.6129 74.8832 34.6129C75.2034 34.6129 75.4595 34.6764 75.6196 34.835C75.7796 34.9937 75.8757 35.184 75.8757 35.4695C75.8757 35.6282 75.8437 35.7551 75.7796 35.882C75.7156 36.0089 75.5875 36.1041 75.4275 36.1675L76.0037 36.9607ZM74.9793 35.8185C75.0433 35.8185 75.0753 35.8185 75.1393 35.7868C75.2034 35.7868 75.2354 35.7551 75.2674 35.7234C75.2994 35.6916 75.3314 35.6599 75.3634 35.5964C75.3954 35.533 75.3954 35.4695 75.3954 35.4061C75.3954 35.3426 75.3954 35.2792 75.3634 35.2157C75.3314 35.1523 75.2994 35.1206 75.2354 35.0888C75.1713 35.0571 75.1073 35.0571 75.0433 35.0254C74.9792 35.0254 74.8832 34.9937 74.7872 34.9937C74.7551 34.9937 74.7231 34.9937 74.6591 34.9937C74.6271 34.9937 74.5631 34.9937 74.531 35.0254C74.499 35.0254 74.435 35.0571 74.403 35.0571V35.8185H74.9793Z" fill="#1B2B57"/>
<path d="M80.1017 36.9924C80.1337 37.0241 80.1337 37.0876 80.1017 37.1193C80.0697 37.151 80.0377 37.1827 79.9736 37.1827H79.6855L79.4934 36.6434H78.565L78.3729 37.1827H78.0847C78.0207 37.1827 77.9887 37.151 77.9567 37.1193C77.9247 37.0876 77.9567 37.0241 77.9567 36.9924C78.0847 36.6751 78.3409 35.9771 78.7891 34.8033C78.8211 34.7398 78.8531 34.6764 78.8851 34.6447C78.9171 34.6129 78.9812 34.5812 79.0132 34.5812C79.0772 34.5812 79.1092 34.6129 79.1412 34.6447C79.1732 34.6764 79.2373 34.7398 79.2373 34.8033L80.1017 36.9924ZM79.3333 36.231L79.0132 35.3109L78.693 36.231H79.3333Z" fill="#1B2B57"/>
<path d="M82.9831 34.6447C83.2072 34.6447 83.3993 34.6764 83.5273 34.7398C83.6874 34.8033 83.7834 34.8985 83.8795 34.9936C83.9755 35.0888 84.0075 35.2474 84.0396 35.4061C84.0716 35.5647 84.0716 35.7233 84.0716 35.9137C84.0716 36.1358 84.0396 36.3261 84.0075 36.4848C83.9755 36.6434 83.9115 36.7703 83.8154 36.8655C83.7194 36.9606 83.6234 37.0558 83.4633 37.0875C83.3352 37.151 83.1431 37.151 82.951 37.151H82.4388C82.3748 37.151 82.3107 37.151 82.2787 37.1193C82.2467 37.0875 82.2147 37.0875 82.1827 37.0241C82.1507 36.9924 82.1507 36.9606 82.1187 36.9289C82.1187 36.8972 82.1187 36.8337 82.1187 36.802V34.9619C82.1187 34.8985 82.1187 34.835 82.1507 34.8033C82.1827 34.7716 82.1827 34.7398 82.2147 34.7081C82.2467 34.6764 82.2787 34.6764 82.3107 34.6447C82.3428 34.6447 82.4068 34.6447 82.4388 34.6447H82.9831ZM82.9831 36.7386C83.1111 36.7386 83.2392 36.7068 83.3032 36.6751C83.3993 36.6434 83.4633 36.5799 83.4953 36.4848C83.5273 36.4213 83.5593 36.3261 83.5913 36.2309C83.6234 36.1358 83.6234 36.0089 83.6234 35.882C83.6234 35.7551 83.6234 35.6599 83.5913 35.5647C83.5593 35.4695 83.5273 35.3744 83.4953 35.3109C83.4633 35.2474 83.3672 35.184 83.3032 35.1205C83.2072 35.0888 83.1111 35.0571 82.9831 35.0571H82.5348V36.7386H82.9831Z" fill="#1B2B57"/>
<path d="M86.6328 37.1827H86.2166V34.8033C86.2166 34.7081 86.2806 34.6447 86.3766 34.6447H86.6648V37.1827H86.6328Z" fill="#1B2B57"/>
<path d="M90.7307 34.6447V36.8655C90.7307 36.9606 90.6987 37.0558 90.6346 37.0875C90.5706 37.151 90.5386 37.151 90.4746 37.151C90.4105 37.151 90.3785 37.151 90.3145 37.1193C90.2825 37.0875 90.2185 37.0558 90.1864 36.9924L89.1299 35.4061V36.9924C89.1299 37.1193 89.0659 37.1827 88.9699 37.1827H88.7137V34.9302C88.7137 34.835 88.7458 34.7716 88.7778 34.7081C88.8418 34.6447 88.8738 34.6447 88.9378 34.6447C89.0019 34.6447 89.0339 34.6447 89.0979 34.6764C89.1299 34.7081 89.194 34.7398 89.226 34.8033L90.2825 36.4213V34.8033C90.2825 34.7081 90.3145 34.6447 90.4105 34.6447H90.7307Z" fill="#1B2B57"/>
<path d="M94.5084 35.6916C94.6685 35.6916 94.7646 35.7868 94.7646 35.9454V37.0558C94.7005 37.0875 94.6365 37.1193 94.5405 37.151C94.4444 37.1827 94.3484 37.1827 94.2523 37.2144C94.1563 37.2462 94.0282 37.2462 93.8681 37.2462C93.7721 37.2462 93.644 37.2462 93.516 37.2144C93.3879 37.1827 93.2919 37.1193 93.1638 37.0241C93.0678 36.9289 92.9717 36.802 92.9077 36.6434C92.8437 36.4847 92.8116 36.2627 92.8116 35.9771C92.8116 35.6916 92.8437 35.4695 92.9077 35.3109C92.9717 35.1523 93.0678 35.0254 93.1638 34.9302C93.2599 34.835 93.3879 34.7716 93.516 34.7398C93.644 34.7081 93.7721 34.7081 93.8681 34.7081C93.9962 34.7081 94.1243 34.7081 94.2203 34.7398C94.3164 34.7716 94.4124 34.7715 94.4764 34.8033C94.5405 34.835 94.6365 34.8667 94.7005 34.8985V35.1205C94.7005 35.184 94.6685 35.2157 94.6365 35.2474C94.6045 35.2792 94.5405 35.2474 94.4764 35.2474C94.3164 35.184 94.1883 35.1523 94.0922 35.1523C93.9962 35.1523 93.9002 35.1205 93.8681 35.1205C93.7401 35.1205 93.644 35.1523 93.548 35.184C93.452 35.2474 93.3879 35.3109 93.3559 35.3743C93.2919 35.4695 93.2599 35.5647 93.2599 35.6599C93.2278 35.7551 93.2278 35.882 93.2278 36.0089C93.2278 36.2944 93.2919 36.5165 93.4199 36.6434C93.548 36.802 93.7081 36.8655 93.9642 36.8655C94.0602 36.8655 94.1243 36.8655 94.1883 36.8655C94.2523 36.8655 94.3164 36.8655 94.3484 36.8337V36.1992H93.9642C93.8681 36.1992 93.8041 36.1358 93.8041 36.0406V35.7868H94.5084V35.6916Z" fill="#1B2B57"/>
<path d="M101.616 36.9924C101.648 37.0241 101.648 37.0876 101.616 37.1193C101.584 37.151 101.552 37.1827 101.488 37.1827H101.2L101.008 36.6434H100.079L99.887 37.1827H99.5668C99.5028 37.1827 99.4708 37.151 99.4388 37.1193C99.4068 37.0876 99.4388 37.0241 99.4388 36.9924C99.5668 36.6751 99.823 35.9771 100.271 34.8033C100.303 34.7398 100.335 34.6764 100.367 34.6447C100.399 34.6129 100.463 34.5812 100.495 34.5812C100.559 34.5812 100.591 34.6129 100.623 34.6447C100.655 34.6764 100.719 34.7398 100.719 34.8033L101.616 36.9924ZM100.847 36.231L100.527 35.3109L100.207 36.231H100.847Z" fill="#1B2B57"/>
<path d="M105.682 34.6447V36.8655C105.682 36.9606 105.65 37.0558 105.586 37.0875C105.522 37.151 105.49 37.151 105.426 37.151C105.362 37.151 105.33 37.151 105.266 37.1193C105.234 37.0875 105.17 37.0558 105.137 36.9924L104.081 35.4061V36.9924C104.081 37.1193 104.017 37.1827 103.921 37.1827H103.665V34.9302C103.665 34.835 103.697 34.7716 103.729 34.7081C103.793 34.6447 103.825 34.6447 103.889 34.6447C103.953 34.6447 103.985 34.6447 104.049 34.6764C104.081 34.7081 104.145 34.7398 104.177 34.8033L105.234 36.4213V34.8033C105.234 34.7081 105.266 34.6447 105.362 34.6447H105.682Z" fill="#1B2B57"/>
<path d="M108.627 34.6447C108.851 34.6447 109.043 34.6764 109.171 34.7398C109.331 34.8033 109.427 34.8985 109.524 34.9936C109.62 35.0888 109.652 35.2474 109.684 35.4061C109.716 35.5647 109.716 35.7233 109.716 35.9137C109.716 36.1358 109.684 36.3261 109.652 36.4848C109.62 36.6434 109.556 36.7703 109.459 36.8655C109.363 36.9606 109.267 37.0558 109.107 37.0875C108.979 37.151 108.787 37.151 108.595 37.151H108.083C108.019 37.151 107.955 37.151 107.923 37.1193C107.891 37.0875 107.859 37.0875 107.827 37.0241C107.795 36.9924 107.795 36.9606 107.763 36.9289C107.763 36.8972 107.763 36.8337 107.763 36.802V34.9619C107.763 34.8985 107.763 34.835 107.795 34.8033C107.827 34.7716 107.827 34.7398 107.859 34.7081C107.891 34.6764 107.923 34.6764 107.955 34.6447C107.987 34.6447 108.051 34.6447 108.083 34.6447H108.627ZM108.627 36.7386C108.755 36.7386 108.883 36.7068 108.947 36.6751C109.043 36.6434 109.107 36.5799 109.139 36.4848C109.171 36.4213 109.203 36.3261 109.235 36.2309C109.267 36.1358 109.267 36.0089 109.267 35.882C109.267 35.7551 109.267 35.6599 109.235 35.5647C109.203 35.4695 109.171 35.3744 109.139 35.3109C109.107 35.2474 109.011 35.184 108.947 35.1205C108.851 35.0888 108.755 35.0571 108.627 35.0571H108.179V36.7386H108.627Z" fill="#1B2B57"/>
<path d="M114.966 37.1827H114.55V34.8033C114.55 34.7081 114.614 34.6447 114.71 34.6447H114.998V37.1827H114.966Z" fill="#1B2B57"/>
<path d="M119.064 34.6447V36.8655C119.064 36.9606 119.032 37.0558 118.968 37.0875C118.904 37.151 118.872 37.151 118.808 37.151C118.744 37.151 118.712 37.151 118.648 37.1193C118.616 37.0875 118.552 37.0558 118.52 36.9924L117.463 35.4061V36.9924C117.463 37.1193 117.399 37.1827 117.303 37.1827H117.047V34.9302C117.047 34.835 117.079 34.7716 117.111 34.7081C117.175 34.6447 117.207 34.6447 117.271 34.6447C117.335 34.6447 117.367 34.6447 117.431 34.6764C117.463 34.7081 117.527 34.7398 117.559 34.8033L118.616 36.4213V34.8033C118.616 34.7081 118.648 34.6447 118.744 34.6447H119.064Z" fill="#1B2B57"/>
<path d="M123.002 34.6447C123.066 34.6447 123.098 34.6764 123.13 34.7081C123.162 34.7398 123.162 34.8033 123.13 34.8667L122.362 36.9289C122.298 37.1193 122.201 37.2145 122.073 37.2145C121.945 37.2145 121.849 37.1193 121.785 36.9289L121.017 34.8667C120.985 34.8033 120.985 34.7398 121.017 34.7081C121.049 34.6764 121.113 34.6447 121.177 34.6447H121.401L122.073 36.453L122.778 34.6447H123.002Z" fill="#1B2B57"/>
<path d="M125.531 35.0571V35.6282H126.46V35.882C126.46 36.0089 126.395 36.0406 126.299 36.0406H125.563V36.7386H126.844V36.9924C126.844 37.0876 126.78 37.151 126.652 37.151H125.499C125.243 37.151 125.115 37.0241 125.115 36.802V34.9937C125.115 34.7399 125.275 34.6129 125.563 34.6129H126.844V34.8668C126.844 34.9619 126.78 35.0254 126.684 35.0254H125.531V35.0571Z" fill="#1B2B57"/>
<path d="M130.557 34.9619C130.557 35.0888 130.493 35.1523 130.365 35.1205C130.237 35.0888 130.141 35.0571 130.013 35.0254C129.917 34.9936 129.789 34.9936 129.693 34.9936C129.597 34.9936 129.501 34.9936 129.437 35.0254C129.373 35.0254 129.309 35.0571 129.277 35.0888C129.245 35.1205 129.213 35.1523 129.213 35.184C129.213 35.2157 129.181 35.2792 129.181 35.3109C129.181 35.3744 129.181 35.4378 129.213 35.4695C129.245 35.5013 129.277 35.533 129.341 35.5647C129.373 35.5964 129.437 35.5964 129.501 35.5964C129.565 35.5964 129.629 35.6282 129.725 35.6282C129.821 35.6282 129.917 35.6599 130.013 35.6599C130.109 35.6916 130.205 35.7233 130.301 35.7551C130.397 35.8185 130.461 35.882 130.525 35.9771C130.589 36.0723 130.621 36.1992 130.621 36.3579C130.621 36.4848 130.621 36.5799 130.589 36.6751C130.557 36.7703 130.493 36.8655 130.429 36.9289C130.365 36.9924 130.269 37.0558 130.141 37.0876C130.013 37.1193 129.853 37.151 129.661 37.151C129.597 37.151 129.533 37.151 129.437 37.151C129.373 37.151 129.277 37.1193 129.213 37.1193C129.149 37.1193 129.053 37.0876 128.989 37.0876C128.925 37.0558 128.861 37.0558 128.797 37.0558V36.802C128.797 36.6751 128.861 36.6434 128.989 36.6751C129.021 36.6751 129.053 36.7068 129.085 36.7068C129.117 36.7068 129.181 36.7386 129.245 36.7386C129.309 36.7386 129.373 36.7703 129.437 36.7703C129.501 36.7703 129.565 36.7703 129.661 36.7703C129.853 36.7703 130.013 36.7386 130.109 36.6751C130.205 36.6117 130.237 36.5165 130.237 36.3896C130.237 36.3261 130.205 36.2627 130.173 36.1992C130.141 36.1675 130.077 36.1041 130.013 36.1041C129.949 36.0723 129.885 36.0723 129.821 36.0406C129.757 36.0406 129.661 36.0089 129.565 36.0089C129.469 36.0089 129.373 35.9771 129.277 35.9454C129.181 35.9137 129.085 35.882 129.021 35.8502C128.957 35.7868 128.861 35.7233 128.829 35.6599C128.765 35.5647 128.765 35.4695 128.765 35.3426C128.765 35.184 128.797 35.0571 128.829 34.9619C128.893 34.8667 128.957 34.8033 129.021 34.7398C129.117 34.6764 129.213 34.6447 129.309 34.6129C129.405 34.5812 129.533 34.5812 129.661 34.5812C129.789 34.5812 129.885 34.5812 129.981 34.6129C130.077 34.6447 130.173 34.6447 130.269 34.6764C130.365 34.7081 130.429 34.7398 130.525 34.7716V34.9619H130.557Z" fill="#1B2B57"/>
<path d="M134.495 34.6447V34.8985C134.495 34.9937 134.431 35.0571 134.335 35.0571H133.759V37.151H133.343V35.0571H132.606V34.7716C132.606 34.6764 132.67 34.6129 132.766 34.6129H134.495V34.6447Z" fill="#1B2B57"/>
<path d="M138.497 34.7716C138.529 34.7398 138.561 34.7081 138.593 34.6764C138.625 34.6447 138.689 34.6447 138.753 34.6447C138.817 34.6447 138.881 34.6764 138.945 34.7081C139.009 34.7398 139.041 34.835 139.041 34.9302V37.0241C139.041 37.1193 138.977 37.1827 138.881 37.1827H138.593V35.4061L137.953 36.2944C137.889 36.3896 137.825 36.4213 137.729 36.4213C137.633 36.4213 137.537 36.3896 137.505 36.2944L136.864 35.4061V37.0558C136.864 37.151 136.8 37.2145 136.704 37.2145H136.416V34.9936C136.416 34.8985 136.448 34.8033 136.512 34.7716C136.576 34.7398 136.64 34.7081 136.672 34.7081C136.704 34.7081 136.768 34.7081 136.832 34.7398C136.864 34.7716 136.928 34.8033 136.928 34.835L137.697 35.9454L138.497 34.7716Z" fill="#1B2B57"/>
<path d="M141.507 35.0571V35.6282H142.435V35.882C142.435 36.0089 142.371 36.0406 142.275 36.0406H141.507V36.7386H142.787V36.9924C142.787 37.0876 142.723 37.151 142.595 37.151H141.507C141.25 37.151 141.122 37.0241 141.122 36.802V34.9937C141.122 34.7399 141.282 34.6129 141.571 34.6129H142.851V34.8668C142.851 34.9619 142.787 35.0254 142.691 35.0254H141.507V35.0571Z" fill="#1B2B57"/>
<path d="M146.853 34.6447V36.8655C146.853 36.9606 146.821 37.0558 146.757 37.0875C146.693 37.151 146.661 37.151 146.597 37.151C146.533 37.151 146.501 37.151 146.437 37.1193C146.405 37.0875 146.341 37.0558 146.309 36.9924L145.252 35.4061V36.9924C145.252 37.1193 145.188 37.1827 145.092 37.1827H144.836V34.9302C144.836 34.835 144.868 34.7716 144.9 34.7081C144.964 34.6447 144.996 34.6447 145.06 34.6447C145.124 34.6447 145.156 34.6447 145.22 34.6764C145.252 34.7081 145.316 34.7398 145.348 34.8033L146.405 36.4213V34.8033C146.405 34.7081 146.437 34.6447 146.533 34.6447H146.853Z" fill="#1B2B57"/>
<path d="M150.727 34.6447V34.8985C150.727 34.9937 150.663 35.0571 150.567 35.0571H149.991V37.151H149.574V35.0571H148.838V34.7716C148.838 34.6764 148.902 34.6129 148.998 34.6129H150.727V34.6447Z" fill="#1B2B57"/>
<path d="M58.2034 18.9404C58.1714 19.2893 58.0753 19.5749 57.8832 19.797C57.7552 19.9239 57.6271 20.019 57.467 20.0825C57.307 20.1459 57.0829 20.1777 56.8908 20.1777L56.8588 19.8604C56.9868 19.8604 57.0829 19.8604 57.1789 19.8287C57.275 19.797 57.339 19.7335 57.403 19.6701C57.467 19.6066 57.4991 19.5114 57.5311 19.3845C57.5631 19.2576 57.5631 19.099 57.5631 18.9086V18.5596C57.5631 18.5279 57.5631 18.4645 57.5631 18.3693C57.5631 18.2741 57.5631 18.1789 57.5631 18.0838C57.5631 17.9886 57.5631 17.8934 57.5631 17.83C57.5631 17.7348 57.5631 17.6713 57.5631 17.6396V15.9581C57.5631 15.8629 57.5631 15.7995 57.5631 15.736C57.5631 15.6726 57.5631 15.6091 57.5631 15.5457C57.5631 15.4505 57.5311 15.3553 57.4991 15.2919C57.4671 15.2284 57.435 15.165 57.371 15.1333C57.307 15.1015 57.2109 15.1015 57.1149 15.1015H57.0509V14.8477H58.2034V17.6396C58.2034 17.6713 58.2034 17.7348 58.2034 17.83C58.2034 17.9251 58.2034 17.9886 58.2034 18.1155C58.2034 18.2107 58.2034 18.3058 58.2034 18.401C58.2034 18.4962 58.2034 18.5596 58.2034 18.6231V18.9404Z" fill="#1B2B57"/>
<path d="M60.2523 18.5279V18.7817H60.1563H59.2279H59.0038V17.6713V14.9112V14.6256C59.0038 14.5304 59.0038 14.467 59.0038 14.4035C59.0038 14.3401 59.0038 14.2766 59.0038 14.2132C59.0038 14.0863 58.9717 13.9911 58.9397 13.9277C58.9077 13.8642 58.8757 13.8007 58.8117 13.769C58.7476 13.7373 58.6836 13.7373 58.5555 13.7373H58.4915V13.4835H59.0038H59.2279H59.6441V17.6079C59.6441 17.703 59.6441 17.7665 59.6441 17.8299C59.6441 17.8934 59.6441 17.9568 59.6441 18.0203C59.6441 18.1155 59.6761 18.2106 59.7081 18.3058C59.7401 18.3693 59.8041 18.4327 59.8682 18.4645C59.9002 18.4645 59.9322 18.4962 59.9962 18.4962C60.0282 18.4962 60.0923 18.4962 60.1563 18.4962H60.2523V18.5279Z" fill="#1B2B57"/>
<path d="M65.3428 18.4962V18.75H65.0867H64.2223H63.4539H62.1093H60.4765H60.2204H60.1243V18.4962H60.2204H60.5405C60.6366 18.4962 60.7326 18.4962 60.7966 18.4645C60.8607 18.4327 60.8927 18.401 60.9247 18.3058C60.9567 18.2424 60.9567 18.1472 60.9887 18.052C60.9887 17.9886 60.9887 17.9251 60.9887 17.8617C60.9887 17.7982 60.9887 17.703 60.9887 17.6396V15.8312C60.9887 15.7678 60.9887 15.736 60.9887 15.6726C60.9887 15.6091 60.9887 15.5774 60.9887 15.5457C60.9887 15.4188 60.9567 15.3236 60.9247 15.2601C60.8927 15.1967 60.8607 15.1332 60.7966 15.1015C60.7326 15.0698 60.6686 15.0698 60.5405 15.0698H60.4765V14.816H60.9887H61.3729H61.629H62.1413H62.8456H62.9737H63.1337C63.582 14.8477 63.9341 14.9746 64.1902 15.1967C64.4784 15.4505 64.6064 16.1802 64.6064 17.4175V17.6079C64.6064 17.703 64.6064 17.7665 64.6064 17.8299C64.6064 17.8934 64.6064 17.9568 64.6064 18.0203C64.6064 18.1472 64.6385 18.2106 64.6705 18.2741C64.7025 18.3376 64.7345 18.401 64.7985 18.4327C64.8626 18.4645 64.9266 18.4645 65.0546 18.4645H65.3428V18.4962ZM63.4539 18.4962C63.582 18.4962 63.678 18.4962 63.742 18.4645C63.8061 18.4327 63.8701 18.3693 63.9021 18.3058C63.9341 18.2424 63.9341 18.1472 63.9661 18.052C63.9661 17.9886 63.9661 17.9251 63.9661 17.8617C63.9661 17.7982 63.9661 17.703 63.9661 17.6396V16.085C63.9661 15.8947 63.9341 15.7678 63.8701 15.6409C63.8061 15.5139 63.742 15.4188 63.646 15.3553C63.5499 15.2919 63.4539 15.2284 63.3258 15.1967C63.2938 15.1967 63.2938 15.1967 63.2618 15.165C63.2298 15.165 63.2298 15.165 63.1978 15.165H62.7816H62.4934C62.3974 15.165 62.3334 15.165 62.2693 15.165C62.2053 15.165 62.1413 15.165 62.0772 15.165C61.9812 15.165 61.8852 15.165 61.7891 15.1967C61.7251 15.2284 61.6611 15.2601 61.629 15.3236C61.629 15.3236 61.629 15.3553 61.597 15.4188C61.597 15.4505 61.597 15.4505 61.597 15.4822C61.597 15.5139 61.597 15.5457 61.597 15.5457C61.597 15.5774 61.597 15.6409 61.597 15.7043C61.597 15.7678 61.597 15.8312 61.597 15.8947V17.6713V17.7665C61.597 17.8299 61.597 17.8934 61.597 17.9568C61.597 18.0203 61.597 18.052 61.597 18.1155C61.597 18.2424 61.629 18.3058 61.6611 18.3693C61.6931 18.4327 61.7571 18.4962 61.8211 18.5279C61.8852 18.5596 61.9812 18.5596 62.1093 18.5596H63.4539V18.4962Z" fill="#1B2B57"/>
<path d="M67.936 18.5279V18.7817H67.5518H65.919H65.1187V18.5279H65.951C66.0791 18.5279 66.1751 18.5279 66.2392 18.4962C66.3032 18.4645 66.3672 18.4327 66.3993 18.3375C66.4313 18.2741 66.4633 18.1789 66.4633 18.052C66.4633 17.9886 66.4633 17.9251 66.4633 17.8617C66.4633 17.7982 66.4633 17.703 66.4633 17.6396V15.9581C66.4633 15.8629 66.4633 15.7995 66.4633 15.736C66.4633 15.6726 66.4633 15.6091 66.4633 15.5457C66.4633 15.4505 66.4313 15.3553 66.3993 15.2919C66.3672 15.2284 66.3352 15.165 66.2712 15.1332C66.2072 15.1015 66.1111 15.1015 66.0151 15.1015H65.951V14.8477H67.1036V17.6396C67.1036 17.7348 67.1036 17.7982 67.1036 17.8617C67.1036 17.9251 67.1036 17.9886 67.1036 18.052C67.1036 18.1472 67.1356 18.2424 67.1676 18.3375C67.1996 18.401 67.2316 18.4645 67.2957 18.4962C67.3597 18.5279 67.4237 18.5279 67.5518 18.5279H67.936ZM66.0151 14.0228C65.887 14.0228 65.791 13.9911 65.7269 13.8959C65.6309 13.8007 65.5989 13.7056 65.5989 13.6104C65.5989 13.4835 65.6309 13.3883 65.7269 13.2931C65.823 13.198 65.919 13.1662 66.0151 13.1662C66.1431 13.1662 66.2392 13.198 66.3352 13.2931C66.4313 13.3883 66.4633 13.4835 66.4633 13.6104C66.4633 13.7373 66.4313 13.8325 66.3352 13.8959C66.2392 13.9911 66.1431 14.0228 66.0151 14.0228ZM66.4953 13.1662C66.3672 13.1662 66.2712 13.1345 66.2072 13.0393C66.1431 12.9441 66.0791 12.849 66.0791 12.7538C66.0791 12.6269 66.1111 12.5317 66.2072 12.4365C66.3032 12.3414 66.3993 12.3096 66.4953 12.3096C66.6234 12.3096 66.7194 12.3414 66.8155 12.4365C66.9115 12.5317 66.9435 12.6269 66.9435 12.7538C66.9435 12.8807 66.9115 12.9759 66.8155 13.0393C66.7194 13.1345 66.6234 13.1662 66.4953 13.1662ZM66.5593 13.6104C66.5593 13.4835 66.5913 13.3883 66.6874 13.2931C66.7834 13.198 66.8795 13.1662 66.9755 13.1662C67.1036 13.1662 67.1996 13.198 67.2637 13.2931C67.3597 13.3883 67.3917 13.4835 67.3917 13.6104C67.3917 13.7373 67.3597 13.8325 67.2637 13.8959C67.1676 13.9911 67.0716 14.0228 66.9755 14.0228C66.8475 14.0228 66.7514 13.9911 66.6874 13.8959C66.5913 13.8325 66.5593 13.7056 66.5593 13.6104Z" fill="#1B2B57"/>
<path d="M70.4972 18.5279V18.7817H69.953H68.3202H67.4878V18.5279H68.3522C68.4803 18.5279 68.5763 18.5279 68.6403 18.4962C68.7044 18.4645 68.7684 18.401 68.8004 18.3375C68.8324 18.2741 68.8324 18.1789 68.8644 18.052C68.8644 17.9886 68.8644 17.9251 68.8644 17.8617C68.8644 17.7982 68.8644 17.703 68.8644 17.6396V15.9581C68.8644 15.8629 68.8644 15.7995 68.8644 15.736C68.8644 15.6726 68.8644 15.6091 68.8644 15.5457C68.8644 15.4505 68.8324 15.3553 68.8004 15.2919C68.7684 15.2284 68.7364 15.165 68.6723 15.1332C68.6083 15.1015 68.5123 15.1015 68.4162 15.1015H68.3522V14.8477H69.5047V17.6396C69.5047 17.7348 69.5047 17.7982 69.5047 17.8617C69.5047 17.9251 69.5047 17.9886 69.5047 18.052C69.5047 18.1789 69.5368 18.2741 69.5688 18.3375C69.6008 18.401 69.6328 18.4645 69.6968 18.4962C69.7609 18.5279 69.8249 18.5279 69.953 18.5279H70.4972ZM68.4803 14.0228C68.3522 14.0228 68.2562 13.9911 68.1921 13.8959C68.0961 13.8007 68.0641 13.7056 68.0641 13.6104C68.0641 13.4835 68.0961 13.3883 68.1921 13.2931C68.2882 13.198 68.3842 13.1662 68.4803 13.1662C68.6083 13.1662 68.7044 13.198 68.7684 13.2931C68.8644 13.3883 68.8965 13.4835 68.8965 13.6104C68.8965 13.7373 68.8644 13.8325 68.7684 13.8959C68.7044 13.9911 68.6083 14.0228 68.4803 14.0228ZM69.4407 14.0228C69.3126 14.0228 69.2166 13.9911 69.1526 13.8959C69.0565 13.8007 69.0245 13.7056 69.0245 13.6104C69.0245 13.4835 69.0565 13.3883 69.1526 13.2931C69.2486 13.198 69.3447 13.1662 69.4407 13.1662C69.5688 13.1662 69.6648 13.198 69.7609 13.2931C69.8569 13.3883 69.8889 13.4835 69.8889 13.6104C69.8889 13.7373 69.8569 13.8325 69.7609 13.8959C69.6648 13.9911 69.5688 14.0228 69.4407 14.0228Z" fill="#1B2B57"/>
<path d="M75.8437 18.75H75.1074H74.8833H73.2505H73.0264H71.3936H70.017V18.4962H71.3936C71.5217 18.4962 71.6177 18.4962 71.6818 18.4644C71.7458 18.4327 71.8098 18.401 71.8418 18.3058C71.8738 18.2424 71.9059 18.1472 71.9059 18.0203C71.9059 17.9568 71.9059 17.8934 71.9059 17.8299C71.9059 17.7665 71.9059 17.6713 71.9059 17.6078V15.9264C71.9059 15.8312 71.9059 15.7677 71.9059 15.7043C71.9059 15.6408 71.9059 15.5774 71.9059 15.5139C71.9059 15.387 71.8738 15.2919 71.8418 15.2284C71.8098 15.165 71.7778 15.1015 71.7138 15.0698C71.6497 15.0381 71.5857 15.0381 71.4576 15.0381H71.3936V14.7842H72.5462V17.5761C72.5462 17.6713 72.5462 17.7348 72.5462 17.7982C72.5462 17.8617 72.5462 17.9251 72.5462 17.9886C72.5462 18.1155 72.5782 18.2106 72.6102 18.2741C72.6422 18.3375 72.6742 18.401 72.7382 18.4327C72.8023 18.4644 72.8663 18.4644 72.9944 18.4644H73.2825C73.4106 18.4644 73.5066 18.4644 73.5706 18.4327C73.6347 18.401 73.6987 18.3375 73.7307 18.2741C73.7307 18.2424 73.7627 18.2106 73.7627 18.1472C73.7627 18.1155 73.7627 18.052 73.7627 17.9886C73.7627 17.9251 73.7627 17.8617 73.7627 17.7982C73.7627 17.7348 73.7627 17.6396 73.7627 17.5761V15.8947C73.7627 15.7995 73.7627 15.736 73.7627 15.6726C73.7627 15.6091 73.7627 15.5457 73.7627 15.4822C73.7627 15.387 73.7627 15.2919 73.7307 15.1967C73.6987 15.1332 73.6667 15.0698 73.6027 15.0381C73.5386 15.0063 73.4746 15.0063 73.3465 15.0063H73.2825V14.7525H74.435V17.5444C74.435 17.6396 74.435 17.703 74.435 17.7665C74.435 17.8299 74.435 17.8934 74.435 17.9568C74.435 18.0203 74.435 18.052 74.435 18.1155C74.435 18.1472 74.4671 18.2106 74.4671 18.2424C74.4991 18.3058 74.5311 18.3693 74.5951 18.401C74.6592 18.4327 74.7232 18.4327 74.8512 18.4327H75.1394C75.2674 18.4327 75.3635 18.4327 75.4275 18.401C75.4915 18.3693 75.5556 18.3058 75.5876 18.2424C75.6196 18.1789 75.6196 18.0837 75.6516 17.9568C75.6516 17.8934 75.6516 17.8299 75.6516 17.7665C75.6516 17.703 75.6516 17.6078 75.6516 17.5444V15.8629C75.6516 15.7677 75.6516 15.7043 75.6516 15.6408C75.6516 15.5774 75.6516 15.5139 75.6516 15.4505C75.6516 15.3236 75.6196 15.2284 75.5876 15.165C75.5556 15.1015 75.5236 15.0381 75.4595 15.0063C75.3955 14.9746 75.3315 14.9746 75.2034 14.9746H75.1394V14.7208H76.2919V17.5127C76.2919 17.6079 76.2919 17.6713 76.2919 17.7348C76.2919 17.7982 76.2919 17.8617 76.2919 17.9251L75.8437 18.75Z" fill="#1B2B57"/>
<path d="M81.1582 13.4835V15.4822V17.1954V17.5127C81.1262 17.8617 81.0302 18.1472 80.8381 18.3693C80.742 18.4962 80.5819 18.5914 80.4219 18.6548C80.2618 18.7183 80.0697 18.75 79.8456 18.75H79.5575H77.3164V18.4962V18.0203H77.5725V18.0837C77.5725 18.1789 77.5725 18.2741 77.6045 18.3376C77.6366 18.401 77.7006 18.4327 77.7646 18.4645C77.8286 18.4962 77.9247 18.4962 78.0207 18.4962H78.4369C78.565 18.4962 78.661 18.4962 78.7571 18.4645C78.8531 18.4327 78.9172 18.3693 78.9812 18.3058C79.0452 18.2424 79.0772 18.1472 79.1093 18.0203C79.1413 17.8934 79.1413 17.7348 79.1413 17.5444V14.9429C79.1413 14.816 79.1093 14.7208 79.0772 14.6573C79.0452 14.5939 79.0132 14.5304 78.9492 14.4987C78.8851 14.467 78.8211 14.467 78.6931 14.467H78.629V14.2132H79.1413H79.3654H79.7816V15.1015V17.481C79.7496 17.8299 79.6535 18.1155 79.4614 18.3376C79.4294 18.401 79.3654 18.4327 79.3013 18.4645H79.7816C79.9096 18.4645 80.0057 18.4645 80.0697 18.4327C80.1657 18.401 80.2298 18.3376 80.2938 18.2741C80.3578 18.2106 80.4219 18.1155 80.4539 17.9886C80.4859 17.8617 80.4859 17.703 80.4859 17.5127V17.132V17.1002V15.4505V14.9112V14.6256C80.4859 14.5304 80.4859 14.467 80.4859 14.4035C80.4859 14.3401 80.4859 14.2766 80.4859 14.2132C80.4859 14.118 80.4539 14.0228 80.4219 13.9594C80.3899 13.8959 80.3578 13.8325 80.2938 13.8007C80.2298 13.769 80.1337 13.769 80.0377 13.769H79.9737V13.5152H80.4859H80.71H81.1582V13.4835ZM78.597 19.7652C78.597 19.7969 78.597 19.7969 78.629 19.7969H79.2373V19.9238V19.9556V20.0825H79.1733V20.0507C79.1733 20.019 79.1733 20.019 79.1733 19.9873C79.1733 19.9873 79.1733 19.9556 79.1413 19.9556H79.1093H79.0772H78.6931H78.3089H78.1168V19.8287V19.7969V19.67H78.1808C78.1808 19.7018 78.1808 19.7018 78.1808 19.7335C78.1808 19.7652 78.1808 19.7652 78.2128 19.7652C78.2448 19.7652 78.2448 19.7652 78.2769 19.7652H78.3729L78.4049 19.7335C78.4049 19.7335 78.4049 19.7018 78.4049 19.67V19.6383V19.5749C78.4049 19.4797 78.4369 19.3845 78.501 19.3211C78.565 19.2576 78.661 19.2259 78.7571 19.2259H78.7891H78.8211H79.1093V19.3528V19.3845V19.5114H79.0772C79.0772 19.4797 79.0772 19.4797 79.0772 19.448L79.0452 19.4162C79.0132 19.4162 79.0132 19.4162 78.9812 19.4162C78.9492 19.4162 78.9172 19.4162 78.8851 19.4162H78.8211H78.7891C78.7891 19.4162 78.7571 19.4162 78.7251 19.4162C78.6931 19.4162 78.661 19.448 78.661 19.448C78.629 19.4797 78.629 19.4797 78.597 19.5114C78.597 19.5431 78.565 19.5749 78.565 19.6383V19.67C78.565 19.7018 78.565 19.7018 78.565 19.7018C78.597 19.7335 78.597 19.7335 78.597 19.7652Z" fill="#1B2B57"/>
<path d="M82.5669 18.75H82.0866V17.6396V14.9112V14.6256C82.0866 14.5304 82.0866 14.467 82.0866 14.4035C82.0866 14.3401 82.0866 14.2766 82.0866 14.2132C82.0866 14.0863 82.0546 13.9911 82.0226 13.9277C81.9906 13.8642 81.9586 13.8007 81.8946 13.769C81.8305 13.7373 81.7665 13.7373 81.6384 13.7373H81.5744V13.4835H82.0866H82.3428H82.7269V18.2741L82.5669 18.75Z" fill="#1B2B57"/>
<path d="M88.8738 14.8477V16.2119V18.5914V18.75V18.9404C88.8738 19.1307 88.8098 19.2893 88.7778 19.4162C88.7138 19.5749 88.6497 19.7018 88.5537 19.797C88.3296 20.0508 88.0094 20.1777 87.5612 20.1777L87.5292 19.8604C87.6573 19.8604 87.7533 19.8604 87.8173 19.8287C87.9134 19.797 87.9774 19.7335 88.0414 19.6701C88.1055 19.6066 88.1695 19.5114 88.2015 19.3845C88.2015 19.3211 88.2335 19.2576 88.2335 19.1624C88.2335 19.099 88.2335 19.0038 88.2335 18.9086V18.75H87.7213H86.3767H85.4802L85.2241 18.052C85.2241 17.9886 85.2241 17.7348 85.2241 17.2906C85.2241 16.8147 85.2241 16.5609 85.2241 16.4657V16.2754C85.2241 15.8312 85.3522 15.4822 85.6403 15.2284C85.8964 15.0063 86.2486 14.8794 86.6968 14.8477H86.8569H86.9849H87.6893H88.4256H88.8738ZM87.7853 18.5279C87.9134 18.5279 88.0094 18.5279 88.0735 18.4962C88.1375 18.4645 88.2015 18.4327 88.2335 18.3376C88.2656 18.2741 88.2655 18.2107 88.2976 18.1155V16.4975V15.9898C88.2976 15.8947 88.2976 15.8312 88.2976 15.7678C88.2976 15.7043 88.2976 15.6409 88.2976 15.5774C88.2976 15.514 88.2976 15.4822 88.2656 15.4505V15.4188V15.3871C88.2335 15.3236 88.1695 15.2919 88.1055 15.2602C88.0414 15.2284 87.9454 15.1967 87.8173 15.1967C87.7533 15.1967 87.6893 15.1967 87.6253 15.1967C87.5612 15.1967 87.4652 15.1967 87.4011 15.1967H87.081H86.6648C86.6328 15.1967 86.6328 15.1967 86.6008 15.1967C86.5688 15.1967 86.5687 15.1967 86.5367 15.1967C86.4087 15.2284 86.3126 15.2919 86.2166 15.3553C86.1205 15.4188 86.0565 15.514 85.9925 15.6409C85.9285 15.7678 85.8964 15.9264 85.8964 16.085V16.4657C85.8964 16.5609 85.8964 16.8147 85.8964 17.2906C85.8964 17.7665 85.8964 18.0203 85.8964 18.052C85.8964 18.1155 85.8964 18.1472 85.8964 18.2107C85.8964 18.2424 85.9284 18.3058 85.9284 18.3376C85.9605 18.401 85.9925 18.4645 86.0885 18.4962C86.1526 18.5279 86.2486 18.5279 86.3767 18.5279H87.7853Z" fill="#1B2B57"/>
<path d="M94.7326 14.8477V15.6409V16.4657V18.75H94.4445H93.58H92.2354H91.5631L91.1469 18.052C91.1469 17.9886 91.1469 17.7348 91.1469 17.2906C91.1469 16.8147 91.1469 16.5609 91.1469 16.4657V16.2754C91.1469 15.8312 91.275 15.4822 91.5631 15.2284C91.8192 15.0063 92.1714 14.8794 92.6196 14.8477H92.7797H92.9077H93.6121H94.3484H94.7326ZM94.0923 15.9581C94.0923 15.8629 94.0923 15.7995 94.0923 15.736C94.0923 15.6726 94.0923 15.6091 94.0923 15.5457C94.0923 15.4822 94.0923 15.4505 94.0603 15.4188C94.0603 15.3871 94.0603 15.3553 94.0283 15.3236C93.9963 15.2602 93.9322 15.2284 93.8682 15.1967C93.8042 15.165 93.7081 15.1332 93.58 15.1332C93.516 15.1332 93.452 15.1332 93.388 15.1332C93.3239 15.1332 93.2279 15.1332 93.1639 15.1332H92.8757H92.5236C92.4595 15.1332 92.4275 15.1332 92.3955 15.165C92.3315 15.1967 92.2995 15.1967 92.2354 15.2284C92.1714 15.2602 92.1394 15.2919 92.0753 15.3236C91.9793 15.3871 91.9153 15.4822 91.8512 15.6091C91.7872 15.736 91.7552 15.8947 91.7552 16.0533V16.434C91.7552 16.5292 91.7552 16.783 91.7552 17.2589C91.7552 17.7348 91.7552 17.9886 91.7552 18.0203C91.7552 18.1472 91.7872 18.2424 91.8192 18.3058C91.8512 18.3693 91.8833 18.4327 91.9793 18.4645C92.0433 18.4962 92.1394 18.4962 92.2674 18.4962H93.6121C93.7401 18.4962 93.8362 18.4962 93.9002 18.4645C93.9642 18.4327 94.0283 18.401 94.0603 18.3058C94.0923 18.2424 94.1243 18.1472 94.1243 18.0203C94.1243 17.9569 94.1243 17.703 94.1243 17.2589C94.1243 16.783 94.1243 16.5292 94.1243 16.434V15.9581H94.0923ZM92.5236 14.3718C92.3955 14.3718 92.2995 14.3401 92.2354 14.2449C92.1394 14.1497 92.1074 14.0546 92.1074 13.9594C92.1074 13.8325 92.1394 13.7373 92.2354 13.6421C92.3315 13.547 92.4275 13.5152 92.5236 13.5152C92.6516 13.5152 92.7477 13.547 92.8117 13.6421C92.9077 13.7373 92.9397 13.8325 92.9397 13.9594C92.9397 14.0863 92.9077 14.1815 92.8117 14.2449C92.7477 14.3084 92.6516 14.3718 92.5236 14.3718ZM93.484 14.3718C93.3559 14.3718 93.2599 14.3401 93.1959 14.2449C93.0998 14.1497 93.0678 14.0546 93.0678 13.9594C93.0678 13.8325 93.0998 13.7373 93.1959 13.6421C93.2919 13.547 93.388 13.5152 93.484 13.5152C93.6121 13.5152 93.7081 13.547 93.8042 13.6421C93.9002 13.7373 93.9322 13.8325 93.9322 13.9594C93.9322 14.0863 93.9002 14.1815 93.8042 14.2449C93.7081 14.3084 93.6121 14.3718 93.484 14.3718Z" fill="#1B2B57"/>
<path d="M96.6215 18.9404C96.5895 19.2893 96.4934 19.5749 96.3013 19.797C96.1733 19.9239 96.0452 20.019 95.8851 20.0825C95.7251 20.1459 95.501 20.1777 95.3089 20.1777L95.2769 19.8604C95.4049 19.8604 95.501 19.8604 95.597 19.8287C95.6931 19.797 95.7571 19.7335 95.8211 19.6701C95.8851 19.6066 95.9172 19.5114 95.9492 19.3845C95.9812 19.2576 95.9812 19.099 95.9812 18.9086V18.5596C95.9812 18.5279 95.9812 18.4645 95.9812 18.3693C95.9812 18.2741 95.9812 18.1789 95.9812 18.0838C95.9812 17.9886 95.9812 17.8934 95.9812 17.83C95.9812 17.7348 95.9812 17.6713 95.9812 17.6396V15.9581C95.9812 15.8629 95.9812 15.7995 95.9812 15.736C95.9812 15.6726 95.9812 15.6091 95.9812 15.5457C95.9812 15.4505 95.9492 15.3553 95.9172 15.2919C95.8851 15.2284 95.8531 15.165 95.7891 15.1333C95.7251 15.1015 95.629 15.1015 95.533 15.1015H95.4689V14.8477H96.6215V17.6396C96.6215 17.6713 96.6215 17.7348 96.6215 17.83C96.6215 17.9251 96.6215 17.9886 96.6215 18.1155C96.6215 18.2107 96.6215 18.3058 96.6215 18.401C96.6215 18.4962 96.6215 18.5596 96.6215 18.6231V18.9404Z" fill="#1B2B57"/>
<path d="M98.6704 18.5279V18.7817H98.5744H97.6459H97.4218V17.6713V14.9112V14.6256C97.4218 14.5304 97.4218 14.467 97.4218 14.4035C97.4218 14.3401 97.4218 14.2766 97.4218 14.2132C97.4218 14.0863 97.3898 13.9911 97.3578 13.9277C97.3258 13.8642 97.2938 13.8007 97.2298 13.769C97.1657 13.7373 97.1017 13.7373 96.9736 13.7373H96.9096V13.4835H97.4218H97.6459H98.0621V17.6079C98.0621 17.703 98.0621 17.7665 98.0621 17.8299C98.0621 17.8934 98.0621 17.9568 98.0621 18.0203C98.0621 18.1155 98.0942 18.2106 98.1262 18.3058C98.1582 18.3693 98.2222 18.4327 98.2863 18.4645C98.3183 18.4645 98.3503 18.4962 98.4143 18.4962C98.4463 18.4962 98.5104 18.4962 98.5744 18.4962H98.6704V18.5279Z" fill="#1B2B57"/>
<path d="M104.881 18.5279V18.7817H104.145H102.512H98.3503V18.5279H102.512C102.608 18.5279 102.704 18.5279 102.8 18.4962C102.864 18.4645 102.928 18.401 102.96 18.3376C102.992 18.2741 103.024 18.1789 103.024 18.052C103.024 17.9886 103.024 17.9251 103.024 17.8617C103.024 17.7982 103.024 17.703 103.024 17.6396V16.0533C103.024 15.8629 102.992 15.736 102.928 15.6091C102.864 15.4822 102.8 15.3871 102.704 15.3236C102.608 15.2602 102.512 15.1967 102.384 15.165C102.352 15.165 102.352 15.165 102.32 15.165C102.288 15.165 102.288 15.165 102.256 15.165H101.168H100.879C100.783 15.165 100.719 15.165 100.655 15.165C100.591 15.165 100.527 15.165 100.463 15.165C100.335 15.165 100.271 15.1967 100.207 15.2284C100.143 15.2602 100.079 15.2919 100.047 15.3553C100.015 15.4188 100.015 15.4822 100.015 15.6091V15.6726H99.7589V15.165V15.0698V14.8477H101.936H102.064H102.128C102.608 14.8477 102.992 14.9746 103.281 15.2284C103.569 15.4822 103.697 15.8312 103.697 16.2754V17.6396C103.697 17.7348 103.697 17.7982 103.697 17.8617C103.697 17.9251 103.697 17.9886 103.697 18.052C103.697 18.1472 103.729 18.2424 103.761 18.3376C103.793 18.401 103.825 18.4645 103.889 18.4962C103.953 18.5279 104.049 18.5279 104.145 18.5279H104.881ZM101.488 19.3845C101.616 19.3845 101.712 19.4162 101.776 19.5114C101.872 19.6066 101.904 19.7018 101.904 19.797C101.904 19.8921 101.872 20.019 101.776 20.1142C101.68 20.2094 101.584 20.2411 101.488 20.2411C101.392 20.2411 101.264 20.2094 101.2 20.1142C101.104 20.019 101.072 19.9239 101.072 19.797C101.072 19.6701 101.104 19.5749 101.2 19.5114C101.264 19.4162 101.36 19.3845 101.488 19.3845Z" fill="#1B2B57"/>
<path d="M107.443 18.5279V18.7817H106.898H105.266H104.433V18.5279H105.298C105.426 18.5279 105.522 18.5279 105.586 18.4962C105.65 18.4645 105.714 18.401 105.746 18.3375C105.778 18.2741 105.778 18.1789 105.81 18.052C105.81 17.9886 105.81 17.9251 105.81 17.8617C105.81 17.7982 105.81 17.703 105.81 17.6396V15.9581C105.81 15.8629 105.81 15.7995 105.81 15.736C105.81 15.6726 105.81 15.6091 105.81 15.5457C105.81 15.4505 105.778 15.3553 105.746 15.2919C105.714 15.2284 105.682 15.165 105.618 15.1332C105.554 15.1015 105.458 15.1015 105.362 15.1015H105.298V14.8477H106.45V17.6396C106.45 17.7348 106.45 17.7982 106.45 17.8617C106.45 17.9251 106.45 17.9886 106.45 18.052C106.45 18.1789 106.482 18.2741 106.514 18.3375C106.546 18.401 106.578 18.4645 106.642 18.4962C106.706 18.5279 106.77 18.5279 106.898 18.5279H107.443ZM105.426 14.0228C105.298 14.0228 105.202 13.9911 105.137 13.8959C105.041 13.8007 105.009 13.7056 105.009 13.6104C105.009 13.4835 105.041 13.3883 105.137 13.2931C105.234 13.198 105.33 13.1662 105.426 13.1662C105.554 13.1662 105.65 13.198 105.714 13.2931C105.81 13.3883 105.842 13.4835 105.842 13.6104C105.842 13.7373 105.81 13.8325 105.714 13.8959C105.65 13.9911 105.554 14.0228 105.426 14.0228ZM106.386 14.0228C106.258 14.0228 106.162 13.9911 106.098 13.8959C106.002 13.8007 105.97 13.7056 105.97 13.6104C105.97 13.4835 106.002 13.3883 106.098 13.2931C106.194 13.198 106.29 13.1662 106.386 13.1662C106.514 13.1662 106.61 13.198 106.706 13.2931C106.802 13.3883 106.834 13.4835 106.834 13.6104C106.834 13.7373 106.802 13.8325 106.706 13.8959C106.61 13.9911 106.482 14.0228 106.386 14.0228Z" fill="#1B2B57"/>
<path d="M109.203 18.5279V18.7817H109.075H107.955H107.186V18.5279H107.955V17.6396V14.9112V14.6256C107.955 14.5304 107.955 14.467 107.955 14.4035C107.955 14.3401 107.955 14.2766 107.955 14.2132C107.955 14.118 107.923 14.0228 107.923 13.9277C107.891 13.8642 107.859 13.8007 107.795 13.769C107.731 13.7373 107.667 13.7373 107.539 13.7373H107.475V13.4835H107.987H108.211H108.595V17.6079C108.595 17.703 108.595 17.7665 108.595 17.8299C108.595 17.8934 108.595 17.9568 108.595 18.0203C108.595 18.0837 108.595 18.1155 108.595 18.1789C108.595 18.2424 108.627 18.2741 108.627 18.3058C108.659 18.3693 108.691 18.4327 108.787 18.4645C108.851 18.4962 108.947 18.4962 109.075 18.4962H109.203V18.5279Z" fill="#1B2B57"/>
<path d="M110.292 18.75H109.908H109.107V18.4962H109.908V17.6079V14.9112V14.6256C109.908 14.5304 109.908 14.467 109.908 14.4035C109.908 14.3401 109.908 14.2766 109.908 14.2132C109.908 14.118 109.876 14.0228 109.876 13.9277C109.844 13.8642 109.812 13.8007 109.748 13.769C109.684 13.7373 109.62 13.7373 109.492 13.7373H109.428V13.4835H109.94H110.164H110.548V18.1472L110.292 18.75Z" fill="#1B2B57"/>
<path d="M120.857 14.8477V18.1155L120.537 18.75H119.704H119.512H117.879H117.687H117.559H117.175V19.7652H116.055H114.454H114.294C113.782 19.7652 113.397 19.6383 113.109 19.3845C112.821 19.1307 112.693 18.7817 112.693 18.3375V16.9733C112.693 16.8782 112.693 16.8147 112.693 16.7513C112.693 16.6878 112.693 16.6243 112.693 16.5609H113.077H113.333H113.814V16.8147H113.75C113.654 16.8147 113.557 16.8147 113.493 16.8464C113.429 16.8782 113.397 16.9416 113.365 17.0051C113.365 17.0368 113.365 17.2589 113.333 17.6713C113.333 18.0837 113.333 18.3375 113.301 18.3693V18.5914C113.301 18.7817 113.333 18.9403 113.397 19.0355C113.461 19.1624 113.525 19.2576 113.621 19.321C113.654 19.3528 113.718 19.3845 113.782 19.4162C113.846 19.448 113.878 19.448 113.942 19.4797C114.038 19.5114 114.166 19.5114 114.294 19.5114H116.055C116.183 19.5114 116.247 19.4797 116.311 19.4797C116.375 19.448 116.439 19.3845 116.471 19.321C116.503 19.2576 116.535 19.1624 116.535 19.0355C116.535 18.9721 116.535 18.9086 116.535 18.8452C116.535 18.7817 116.535 18.6865 116.535 18.6231V15.9264C116.535 15.8312 116.535 15.7677 116.535 15.7043C116.535 15.6408 116.535 15.5774 116.535 15.5139C116.535 15.4505 116.535 15.4188 116.535 15.3553C116.535 15.3236 116.503 15.2601 116.503 15.2284C116.471 15.165 116.407 15.1015 116.375 15.0698C116.311 15.0381 116.247 15.0381 116.119 15.0381H116.055V14.7842H117.207V17.5761C117.207 17.6713 117.207 17.7348 117.207 17.7982C117.207 17.8617 117.207 17.9251 117.207 17.9886C117.207 18.1155 117.239 18.2106 117.271 18.2741C117.303 18.3375 117.335 18.401 117.399 18.4327C117.463 18.4644 117.527 18.4644 117.655 18.4644H117.944C118.072 18.4644 118.168 18.4644 118.232 18.4327C118.296 18.401 118.36 18.3693 118.392 18.2741C118.424 18.2106 118.424 18.1155 118.456 17.9886C118.456 17.9251 118.456 17.8617 118.456 17.7982C118.456 17.7348 118.456 17.6396 118.456 17.5761V15.8947C118.456 15.7995 118.456 15.736 118.456 15.6726C118.456 15.6091 118.456 15.5457 118.456 15.4822C118.456 15.3553 118.424 15.2601 118.392 15.1967C118.36 15.1332 118.328 15.0698 118.264 15.0381C118.2 15.0063 118.136 15.0063 118.008 15.0063H117.944V14.7525H119.096V17.5444C119.096 17.6396 119.096 17.703 119.096 17.7665C119.096 17.8299 119.096 17.8934 119.096 17.9568C119.096 18.0837 119.128 18.1789 119.16 18.2424C119.192 18.3058 119.224 18.3693 119.288 18.401C119.352 18.4327 119.416 18.4327 119.544 18.4327H119.832C119.96 18.4327 120.057 18.4327 120.121 18.401C120.185 18.3693 120.249 18.3375 120.281 18.2424C120.313 18.1789 120.345 18.0837 120.345 17.9568C120.345 17.8934 120.345 17.8299 120.345 17.7665C120.345 17.703 120.345 17.6078 120.345 17.5444V15.8629C120.345 15.7677 120.345 15.7043 120.345 15.6408C120.345 15.5774 120.345 15.5139 120.345 15.4505C120.345 15.3236 120.313 15.2284 120.281 15.165C120.249 15.1015 120.217 15.0381 120.153 15.0063C120.089 14.9746 120.025 14.9746 119.896 14.9746H119.832V14.7208H120.857V14.8477Z" fill="#1B2B57"/>
<path d="M123.13 18.5279V18.7817H123.034H122.137H121.913V17.6713V14.9112V14.6256C121.913 14.5304 121.913 14.467 121.913 14.4035C121.913 14.3401 121.913 14.2766 121.913 14.2132C121.913 14.0863 121.881 13.9911 121.849 13.9277C121.817 13.8642 121.785 13.8007 121.721 13.769C121.657 13.7373 121.593 13.7373 121.465 13.7373H121.401V13.4835H121.913H122.137H122.554V17.6079C122.554 17.703 122.554 17.7665 122.554 17.8299C122.554 17.8934 122.554 17.9568 122.554 18.0203C122.554 18.1155 122.586 18.2106 122.618 18.3058C122.65 18.3693 122.714 18.4327 122.778 18.4645C122.81 18.4645 122.842 18.4962 122.906 18.4962C122.97 18.4962 123.002 18.4962 123.066 18.4962H123.13V18.5279Z" fill="#1B2B57"/>
<path d="M127.132 18.75H126.363H125.019H123.386H123.258H123.066V18.4962H123.258H123.45C123.546 18.4962 123.642 18.4962 123.706 18.4645C123.77 18.4327 123.802 18.3693 123.834 18.3058C123.866 18.2424 123.866 18.1472 123.898 18.052C123.898 17.9886 123.898 17.7348 123.898 17.2906C123.898 16.8147 123.898 16.5609 123.898 16.4657V15.8312C123.898 15.7678 123.898 15.736 123.898 15.6726C123.898 15.6091 123.898 15.5774 123.898 15.5457C123.898 15.4188 123.866 15.3236 123.834 15.2601C123.802 15.1967 123.77 15.1332 123.706 15.1015C123.642 15.0698 123.578 15.0698 123.45 15.0698H123.386V14.816H123.898H124.282H124.539H125.051H125.755H125.883H126.043C126.492 14.8477 126.844 14.9746 127.1 15.1967C127.388 15.4505 127.516 15.7995 127.516 16.2436V16.434C127.516 16.5292 127.516 16.783 127.516 17.2589C127.516 17.7348 127.516 17.9886 127.516 18.0203L127.132 18.75ZM126.363 18.4962C126.492 18.4962 126.588 18.4962 126.652 18.4645C126.716 18.4327 126.78 18.401 126.812 18.3058C126.844 18.2424 126.844 18.1472 126.876 18.052C126.876 17.9886 126.876 17.7348 126.876 17.2906C126.876 16.8147 126.876 16.5609 126.876 16.4657V16.085C126.876 15.8947 126.844 15.7678 126.78 15.6409C126.716 15.5139 126.652 15.4188 126.556 15.3553C126.46 15.2919 126.363 15.2284 126.235 15.1967C126.171 15.1967 126.139 15.165 126.107 15.165H125.691H125.403C125.307 15.165 125.243 15.165 125.179 15.165C125.115 15.165 125.051 15.165 124.987 15.165C124.891 15.165 124.795 15.165 124.699 15.1967C124.635 15.2284 124.571 15.2601 124.539 15.3236C124.539 15.3236 124.539 15.3553 124.507 15.4188C124.507 15.4505 124.475 15.5139 124.475 15.5457C124.475 15.5774 124.475 15.6409 124.475 15.7043C124.475 15.7678 124.475 15.8312 124.475 15.8947V16.4975V16.5926C124.475 16.6561 124.475 16.9099 124.475 17.354C124.475 17.7982 124.475 18.052 124.475 18.0837C124.475 18.2106 124.507 18.2741 124.539 18.3376C124.571 18.401 124.635 18.4645 124.699 18.4962C124.763 18.5279 124.859 18.5279 124.987 18.5279H126.363V18.4962Z" fill="#1B2B57"/>
<path d="M129.405 18.75H128.925V17.6396V14.9111V14.6256C128.925 14.5304 128.925 14.467 128.925 14.4035C128.925 14.3401 128.925 14.2766 128.925 14.2132C128.925 14.0863 128.893 13.9911 128.861 13.9276C128.829 13.8642 128.797 13.8007 128.733 13.769C128.669 13.7373 128.604 13.7373 128.476 13.7373H128.412V13.4835H128.925H129.181H129.565V18.2741L129.405 18.75ZM128.444 13.2297V13.1028V13.071V12.9441H128.508V13.0076C128.508 13.0393 128.508 13.071 128.508 13.071L128.54 13.1028C128.54 13.1028 128.572 13.1028 128.605 13.1345H128.701C128.701 13.1345 128.733 13.1345 128.733 13.1028V13.071V13.0393V13.0076V12.9441C128.733 12.849 128.765 12.7538 128.829 12.6903C128.861 12.6586 128.893 12.6269 128.925 12.6269C128.957 12.6269 129.021 12.5952 129.053 12.5952H129.085H129.117H129.405V12.6903V12.8172H129.341C129.341 12.7855 129.341 12.7538 129.341 12.7538C129.341 12.7538 129.341 12.7538 129.309 12.7221C129.309 12.7221 129.309 12.7221 129.277 12.6903H129.245H129.213H129.117H129.053H129.021C128.989 12.6903 128.989 12.6903 128.957 12.6903C128.925 12.6903 128.893 12.6903 128.893 12.7221C128.861 12.7538 128.861 12.7538 128.829 12.7855C128.829 12.8172 128.797 12.849 128.797 12.9124V12.9441V13.0076C128.797 13.0393 128.797 13.0393 128.797 13.071C128.797 13.1028 128.829 13.1028 128.829 13.1028H129.117H129.181H129.277C129.309 13.1028 129.341 13.1028 129.341 13.071C129.341 13.071 129.373 13.071 129.373 13.0393C129.373 13.0393 129.373 13.0076 129.373 12.9759V12.9441H129.437V13.071V13.1028V13.2297H129.021H128.637H128.444Z" fill="#1B2B57"/>
<path d="M136.864 18.5279V18.7817H136.224H134.591H133.247H132.478L132.126 18.0838C132.126 18.0203 132.126 17.7665 132.126 17.3223C132.126 16.8464 132.126 16.5926 132.126 16.4975V16.3071C132.126 15.8629 132.254 15.514 132.542 15.2602C132.798 15.0381 133.151 14.9112 133.599 14.8794H133.759H133.887H134.591H135.328H135.712V16.4975C135.712 16.5926 135.712 16.8464 135.712 17.3223C135.712 17.7982 135.712 18.052 135.712 18.0838C135.712 18.2107 135.744 18.3058 135.776 18.3693C135.808 18.4327 135.84 18.4962 135.904 18.5279C135.968 18.5596 136.032 18.5596 136.16 18.5596H136.864V18.5279ZM134.591 18.5279C134.719 18.5279 134.815 18.5279 134.879 18.4962C134.943 18.4645 135.008 18.401 135.04 18.3376C135.072 18.2741 135.072 18.1789 135.104 18.052C135.104 17.9886 135.104 17.7348 135.104 17.2906C135.104 16.8147 135.104 16.5609 135.104 16.4657V15.9581C135.104 15.8629 135.104 15.7995 135.104 15.736C135.104 15.6726 135.104 15.6091 135.104 15.5457C135.104 15.514 135.104 15.4822 135.104 15.4822C135.104 15.4505 135.104 15.4505 135.104 15.4188C135.104 15.3871 135.104 15.3553 135.072 15.3236C135.04 15.2602 135.008 15.2284 134.943 15.1967C134.879 15.165 134.783 15.1332 134.655 15.1332C134.591 15.1332 134.527 15.1332 134.463 15.1332C134.399 15.1332 134.303 15.1332 134.239 15.1332H133.951H133.503C133.471 15.1332 133.471 15.1332 133.439 15.1332C133.407 15.1332 133.407 15.1332 133.375 15.1332C133.247 15.165 133.151 15.2284 133.055 15.2919C132.959 15.3553 132.895 15.4505 132.83 15.5774C132.766 15.7043 132.734 15.8629 132.734 16.0216V16.4023C132.734 16.4975 132.734 16.7513 132.734 17.2272C132.734 17.703 132.734 17.9569 132.734 17.9886C132.734 18.1155 132.766 18.2107 132.798 18.2741C132.83 18.3376 132.862 18.401 132.959 18.4327C133.023 18.4645 133.119 18.4645 133.247 18.4645H134.591V18.5279ZM133.503 14.3718C133.375 14.3718 133.279 14.3401 133.215 14.2449C133.119 14.1497 133.087 14.0546 133.087 13.9594C133.087 13.8325 133.119 13.7373 133.215 13.6421C133.311 13.547 133.407 13.5152 133.503 13.5152C133.631 13.5152 133.727 13.547 133.823 13.6421C133.919 13.7373 133.951 13.8325 133.951 13.9594C133.951 14.0863 133.919 14.1815 133.823 14.2449C133.727 14.3084 133.631 14.3718 133.503 14.3718ZM134.463 14.3718C134.335 14.3718 134.239 14.3401 134.175 14.2449C134.079 14.1497 134.047 14.0546 134.047 13.9594C134.047 13.8325 134.079 13.7373 134.175 13.6421C134.271 13.547 134.367 13.5152 134.463 13.5152C134.559 13.5152 134.687 13.547 134.751 13.6421C134.847 13.7373 134.879 13.8325 134.879 13.9594C134.879 14.0863 134.847 14.1815 134.751 14.2449C134.687 14.3084 134.591 14.3718 134.463 14.3718Z" fill="#1B2B57"/>
<path d="M143.267 18.75H142.467H136.512V18.4962H142.467C142.595 18.4962 142.691 18.4962 142.755 18.4645C142.819 18.4327 142.883 18.3693 142.915 18.3058C142.947 18.2424 142.947 18.1472 142.979 18.0203C142.979 17.9568 142.979 17.8934 142.979 17.8299C142.979 17.7665 142.979 17.6713 142.979 17.6079V17.2271C142.979 17.0368 142.947 16.9099 142.883 16.783C142.819 16.6561 142.755 16.5609 142.659 16.4974C142.563 16.434 142.467 16.3705 142.339 16.3388C142.307 16.3388 142.275 16.3388 142.211 16.3071H138.273H137.985C137.889 16.3071 137.825 16.3071 137.761 16.3071C137.697 16.3071 137.633 16.3071 137.569 16.3071H136.864V16.2754V16.2119V16.085V15.9898C136.896 14.7843 137.025 14.0863 137.281 13.8642C137.569 13.6104 137.953 13.4835 138.497 13.4835H138.561H138.625H142.339V13.7056V13.769V14.2766H142.083V14.2132C142.083 14.118 142.083 14.0228 142.051 13.9594C142.019 13.8959 141.955 13.8642 141.891 13.8325C141.827 13.8007 141.731 13.8007 141.635 13.769C141.571 13.769 141.507 13.769 141.443 13.769C141.379 13.769 141.283 13.769 141.218 13.769H140.93H138.273C138.241 13.769 138.241 13.769 138.209 13.769C138.177 13.769 138.177 13.769 138.145 13.769C138.017 13.8007 137.921 13.8642 137.825 13.9277C137.729 13.9911 137.665 14.0863 137.601 14.2132C137.537 14.3401 137.505 14.4987 137.505 14.6573V15.9581H141.827H141.955H142.115C142.563 15.9898 142.915 16.1167 143.171 16.3388C143.46 16.5926 143.588 16.9416 143.588 17.3858V17.5761C143.588 17.6713 143.588 17.7982 143.588 17.9886L143.267 18.75Z" fill="#1B2B57"/>
<path d="M146.533 18.75H146.021V18.9404C146.021 19.1307 145.957 19.2893 145.925 19.4162C145.861 19.5749 145.797 19.7018 145.701 19.797C145.476 20.0508 145.124 20.1777 144.676 20.1777L144.644 19.8604C144.772 19.8604 144.868 19.8604 144.964 19.8287C145.06 19.797 145.124 19.7335 145.188 19.6701C145.252 19.6066 145.284 19.5114 145.316 19.3845C145.348 19.3211 145.348 19.2576 145.348 19.1624C145.348 19.099 145.348 19.0038 145.348 18.9086V18.5596V17.6396V15.9581C145.348 15.8629 145.348 15.7995 145.348 15.736C145.348 15.6726 145.348 15.6091 145.348 15.5457C145.348 15.4505 145.316 15.3553 145.284 15.2919C145.252 15.2284 145.22 15.165 145.156 15.1333C145.092 15.1015 144.996 15.1015 144.9 15.1015H144.836V14.8477H145.989V17.6396C145.989 17.6713 145.989 17.7348 145.989 17.7982C145.989 17.8617 145.989 17.9569 145.989 18.0203C145.989 18.1155 145.989 18.1789 145.989 18.2741C145.989 18.3693 145.989 18.4327 145.989 18.4962H146.501V18.75H146.533Z" fill="#1B2B57"/>
<path d="M151.944 18.75H151.207H150.983H149.35H149.126H147.493H146.117V18.4962H147.493C147.621 18.4962 147.718 18.4962 147.782 18.4645C147.846 18.4327 147.91 18.401 147.942 18.3058C147.974 18.2424 148.006 18.1472 148.006 18.0203C148.006 17.9568 148.006 17.8934 148.006 17.8299C148.006 17.7665 148.006 17.6713 148.006 17.6079V15.9264C148.006 15.8312 148.006 15.7678 148.006 15.7043C148.006 15.6408 148.006 15.5774 148.006 15.5139C148.006 15.387 147.974 15.2919 147.942 15.2284C147.91 15.165 147.878 15.1015 147.814 15.0698C147.75 15.0381 147.685 15.0381 147.557 15.0381H147.493V14.7843H148.646V17.5761C148.646 17.6713 148.646 17.7348 148.646 17.7982C148.646 17.8617 148.646 17.9251 148.646 17.9886C148.646 18.1155 148.678 18.2106 148.71 18.2741C148.742 18.3375 148.774 18.401 148.838 18.4327C148.902 18.4645 148.966 18.4645 149.094 18.4645H149.382C149.51 18.4645 149.606 18.4645 149.67 18.4327C149.734 18.401 149.798 18.3375 149.831 18.2741C149.831 18.2424 149.863 18.2106 149.863 18.1472C149.863 18.1155 149.863 18.052 149.863 17.9886C149.863 17.9251 149.863 17.8617 149.863 17.7982C149.863 17.7348 149.863 17.6396 149.863 17.5761V15.8947C149.863 15.7995 149.863 15.736 149.863 15.6726C149.863 15.6091 149.863 15.5457 149.863 15.4822C149.863 15.387 149.863 15.2919 149.831 15.1967C149.798 15.1332 149.766 15.0698 149.702 15.0381C149.638 15.0063 149.574 15.0063 149.446 15.0063H149.382V14.7525H150.535V17.5444C150.535 17.6396 150.535 17.703 150.535 17.7665C150.535 17.8299 150.535 17.8934 150.535 17.9568C150.535 18.0203 150.535 18.052 150.535 18.1155C150.535 18.1472 150.567 18.2106 150.567 18.2424C150.599 18.3058 150.631 18.3693 150.695 18.401C150.759 18.4327 150.823 18.4327 150.951 18.4327H151.239C151.367 18.4327 151.463 18.4327 151.527 18.401C151.591 18.3693 151.655 18.3058 151.687 18.2424C151.719 18.1789 151.719 18.0837 151.751 17.9568C151.751 17.8934 151.751 17.8299 151.751 17.7665C151.751 17.703 151.751 17.6079 151.751 17.5444V15.8629C151.751 15.7678 151.751 15.7043 151.751 15.6408C151.751 15.5774 151.751 15.5139 151.751 15.4505C151.751 15.3236 151.719 15.2284 151.687 15.165C151.655 15.1015 151.623 15.0381 151.559 15.0063C151.495 14.9746 151.431 14.9746 151.303 14.9746H151.239V14.7208H152.392V17.5127C152.392 17.6079 152.392 17.6713 152.392 17.7348C152.392 17.7982 152.392 17.8617 152.392 17.9251L151.944 18.75ZM149.542 14.0228C149.414 14.0228 149.318 13.9911 149.254 13.8959C149.158 13.8007 149.126 13.7056 149.126 13.5787C149.126 13.4518 149.158 13.3566 149.254 13.2931C149.35 13.198 149.446 13.1662 149.542 13.1662C149.67 13.1662 149.766 13.198 149.863 13.2931C149.959 13.3883 149.991 13.4835 149.991 13.5787C149.991 13.6738 149.959 13.8007 149.863 13.8959C149.766 13.9911 149.67 14.0228 149.542 14.0228ZM150.023 13.1662C149.895 13.1662 149.798 13.1345 149.734 13.0393C149.638 12.9441 149.606 12.849 149.606 12.7221C149.606 12.5952 149.638 12.5 149.734 12.4365C149.831 12.3414 149.927 12.3096 150.023 12.3096C150.151 12.3096 150.247 12.3414 150.311 12.4365C150.407 12.5317 150.439 12.6269 150.439 12.7221C150.439 12.8172 150.407 12.9441 150.311 13.0393C150.247 13.1345 150.151 13.1662 150.023 13.1662ZM150.087 13.6104C150.087 13.4835 150.119 13.3883 150.215 13.3249C150.311 13.2297 150.407 13.198 150.503 13.198C150.631 13.198 150.727 13.2297 150.791 13.3249C150.887 13.42 150.919 13.5152 150.919 13.6104C150.919 13.7056 150.887 13.8325 150.791 13.9277C150.695 14.0228 150.599 14.0546 150.503 14.0546C150.375 14.0546 150.279 14.0228 150.215 13.9277C150.119 13.8325 150.087 13.7056 150.087 13.6104Z" fill="#1B2B57"/>
<path d="M49.0791 0V28.9657C49.0791 29.5051 49.0471 30.0127 49.0151 30.5203C49.0151 30.6472 48.9831 30.7741 48.9831 30.901C48.951 31.1231 48.951 31.3452 48.919 31.5673C48.887 31.7259 48.887 31.9162 48.855 32.0749C48.823 32.2335 48.791 32.4239 48.7589 32.5825C48.7269 32.7411 48.6949 32.9315 48.6629 33.0901C48.6309 33.2487 48.5989 33.3756 48.5669 33.5343C48.5348 33.6294 48.5028 33.7563 48.5028 33.8515C48.4708 33.9467 48.4708 34.0419 48.4388 34.1053C48.4068 34.2322 48.3748 34.3591 48.3428 34.486C48.3107 34.6129 48.2787 34.7081 48.2467 34.835C48.1186 35.2792 47.9906 35.6916 47.8305 36.1358V36.1675C47.7345 36.4213 47.6384 36.6434 47.5424 36.8972C47.4783 37.0876 47.3823 37.2779 47.3183 37.4683C47.2863 37.5635 47.2222 37.6586 47.1902 37.7538C47.1582 37.8173 47.1582 37.849 47.1262 37.9124C47.0942 38.0076 47.0301 38.1028 46.9981 38.198C46.9661 38.2297 46.9661 38.2931 46.9341 38.3249C46.8701 38.4201 46.838 38.5152 46.774 38.6104C46.4539 39.2132 46.1337 39.7843 45.7495 40.3553C45.6855 40.4822 45.5895 40.5774 45.5254 40.6726C45.3974 40.8312 45.3013 41.0216 45.1733 41.1802C45.0772 41.3071 45.0132 41.4023 44.9171 41.5292C44.8211 41.6561 44.7251 41.783 44.597 41.9416C44.5009 42.0685 44.4049 42.1954 44.2768 42.3223C44.1808 42.4492 44.0527 42.5761 43.9567 42.703C43.8606 42.83 43.7326 42.9569 43.6365 43.0838C43.5405 43.2107 43.4444 43.3058 43.3164 43.4327C43.2844 43.4645 43.2844 43.4645 43.2524 43.4962C43.1563 43.5914 43.0923 43.6865 42.9962 43.75C42.9642 43.7817 42.9322 43.8135 42.9002 43.8452C42.8041 43.9404 42.6761 44.0673 42.58 44.1624C42.452 44.2893 42.3239 44.3845 42.1959 44.5114C41.9718 44.7335 41.7156 44.9239 41.4595 45.1459C41.4275 45.1777 41.3955 45.1777 41.3635 45.2094C41.2354 45.3046 41.1394 45.3997 41.0113 45.4949C40.7552 45.6853 40.4991 45.9074 40.2109 46.066C40.1789 46.0977 40.1789 46.0977 40.1469 46.1294C40.0188 46.2246 39.8908 46.3198 39.7627 46.3833C39.6347 46.4784 39.4746 46.5736 39.3465 46.6688C39.1864 46.764 39.0584 46.8591 38.8983 46.9226C38.7382 47.0178 38.6102 47.1129 38.4501 47.1764C38.29 47.2716 38.162 47.335 38.0019 47.4302C37.8738 47.4937 37.7137 47.5888 37.5857 47.6523C37.5537 47.6523 37.5537 47.684 37.5217 47.684C37.3936 47.7475 37.2335 47.8109 37.1055 47.8744C36.9774 47.9378 36.8493 48.0013 36.6893 48.0647C36.6573 48.0964 36.6252 48.0965 36.5932 48.0965C36.4652 48.1599 36.3051 48.2234 36.177 48.2868C35.8569 48.4137 35.5687 48.5406 35.2486 48.6675C35.0885 48.731 34.9605 48.7627 34.8324 48.8261C34.7363 48.8579 34.6723 48.8896 34.5763 48.9213C34.4802 48.953 34.3522 48.9848 34.2561 49.0165C34.096 49.0482 33.968 49.1117 33.8079 49.1434C33.7759 49.1434 33.7119 49.1751 33.6799 49.1751C33.5518 49.2069 33.3917 49.2386 33.2637 49.302C33.1036 49.3338 32.9435 49.3972 32.7514 49.4289C32.6234 49.4607 32.5273 49.4924 32.3992 49.4924C32.3352 49.4924 32.2392 49.5241 32.1751 49.5241C31.791 49.5876 31.4068 49.6827 31.0226 49.7145C30.9266 49.7462 30.8305 49.7462 30.7024 49.7462C30.6384 49.7462 30.5744 49.7462 30.5424 49.7779C30.4143 49.8096 30.2542 49.8096 30.1262 49.8096H30.0942C29.9661 49.8096 29.838 49.8414 29.742 49.8414C29.646 49.8414 29.5499 49.8731 29.4218 49.8731C29.3898 49.8731 29.3578 49.8731 29.2938 49.8731C29.1977 49.8731 29.0697 49.8731 28.9736 49.9048C28.9096 49.9048 28.8136 49.9048 28.7495 49.9048C28.6535 49.9048 28.5254 49.9048 28.4294 49.9048C28.2693 49.9048 28.1092 49.9048 27.9492 49.9048H0V47.4302C0 42.5127 1.15254 37.849 3.23352 33.6929C6.65913 26.967 12.5499 21.5419 19.7533 18.75C23.1469 17.4175 26.7966 16.6561 30.6384 16.5926C30.3823 16.7195 30.1582 16.8464 29.9021 16.9734C28.9416 17.5127 28.0132 18.1155 27.1168 18.7183C20.2976 23.5723 16.5198 30.552 15.2072 38.8008H25.0678C29.774 38.8008 33.7759 35.9772 35.5047 31.948C36.049 30.6789 36.3691 29.283 36.4011 27.8236C36.4011 27.7919 36.4011 27.7602 36.4011 27.7602C36.4011 27.6967 36.4011 27.6333 36.4011 27.5381V10.8185H18.5047C18.3766 10.8185 18.2806 10.8185 18.1525 10.8185C18.0245 10.8185 17.9284 10.8185 17.8324 10.8185C17.6083 10.8185 17.3842 10.8185 17.1601 10.8503C16.936 10.8503 16.7119 10.882 16.4878 10.882C16.4237 10.882 16.3277 10.882 16.2637 10.9137C16.1036 10.9137 15.9755 10.9454 15.8154 10.9454C15.4633 10.9772 15.1111 11.0406 14.7589 11.1041C14.5669 11.1358 14.4068 11.1675 14.2147 11.1992C14.0866 11.231 13.9266 11.2627 13.7985 11.2944C13.5104 11.3579 13.2542 11.4213 12.9661 11.4848C12.5499 11.58 12.1337 11.7069 11.7175 11.8338C10.9812 12.0558 10.3089 12.3096 9.63654 12.5952C9.3484 12.7221 9.09228 12.849 8.80414 12.9759C8.7081 13.0076 8.61205 13.0711 8.54802 13.1028C8.38795 13.198 8.19586 13.2931 8.03578 13.3883C6.43503 14.3084 5.15443 15.4822 4.19397 16.9099C4.19397 16.9099 4.19397 16.9416 4.16196 16.9416C3.80979 17.5127 3.48964 18.0838 3.20151 18.75V15.6409C3.20151 13.9594 3.45763 12.3414 3.96987 10.8503C4.96234 7.77284 6.91525 5.10787 9.44444 3.20431C9.60452 3.07741 9.7646 2.98223 9.92467 2.85533C10.0847 2.72843 10.2448 2.63325 10.4049 2.53807C10.565 2.44289 10.725 2.34772 10.8851 2.22081C11.0452 2.12563 11.2053 2.03046 11.3974 1.93528C11.5574 1.8401 11.7495 1.74492 11.9096 1.68147C12.3578 1.45939 12.806 1.26904 13.2542 1.07868C13.5744 0.951777 13.8945 0.856599 14.2147 0.729695C14.3748 0.666244 14.5348 0.634518 14.7269 0.571066C14.887 0.53934 15.0471 0.475888 15.2392 0.444162C15.3352 0.412437 15.4313 0.412437 15.5273 0.380711C15.8154 0.317259 16.1036 0.253807 16.4237 0.222081C16.6158 0.190355 16.8399 0.158629 17.032 0.126904C17.3202 0.0951777 17.6403 0.0634518 17.9605 0.0317259C18.0565 0.0317259 18.1205 0.0317259 18.2166 0.0317259C18.4727 0 18.7288 0 18.9849 0H49.0791Z" fill="url(#paint0_linear_153_1035)"/>
<path d="M49.0791 0V28.9657C49.0791 29.5051 49.0471 30.0127 49.015 30.5203C49.015 30.6472 48.983 30.7741 48.983 30.901C48.951 31.1231 48.951 31.3452 48.919 31.5673C48.887 31.7259 48.887 31.9162 48.855 32.0749C48.8229 32.2335 48.7909 32.4239 48.7589 32.5825C48.7269 32.7411 48.6949 32.9315 48.6629 33.0901C48.6309 33.2487 48.5988 33.3756 48.5668 33.5343C48.5348 33.6294 48.5028 33.7563 48.5028 33.8515C48.4708 33.9467 48.4708 34.0419 48.4388 34.1053C48.4067 34.2322 48.3747 34.3591 48.3427 34.486C48.3107 34.6129 48.2787 34.7081 48.2467 34.835C48.1186 35.2792 47.9906 35.6916 47.8305 36.1358V36.1675C47.7344 36.4213 47.6384 36.6434 47.5423 36.8972C47.4783 37.0876 47.3823 37.2779 47.3182 37.4683C47.2862 37.5635 47.2222 37.6586 47.1902 37.7538C47.1582 37.8173 47.1582 37.849 47.1261 37.9124C47.0941 38.0076 47.0301 38.1028 46.9981 38.198C46.9661 38.2297 46.9661 38.2931 46.9341 38.3249C46.87 38.4201 46.838 38.5152 46.774 38.6104C46.4538 39.2132 46.1337 39.7843 45.7495 40.3553C45.6855 40.4822 45.5894 40.5774 45.5254 40.6726C45.3973 40.8312 45.3013 41.0216 45.1732 41.1802C45.0772 41.3071 45.0132 41.4023 44.9171 41.5292C44.8211 41.6561 44.725 41.783 44.597 41.9416C44.5009 42.0685 44.4049 42.1954 44.2768 42.3223C44.1808 42.4492 44.0527 42.5761 43.9567 42.703C43.8606 42.83 43.7325 42.9569 43.6365 43.0838C43.5405 43.2107 43.4444 43.3058 43.3164 43.4327C43.2843 43.4645 43.2843 43.4645 43.2523 43.4962C43.1563 43.5914 43.0922 43.6865 42.9962 43.75C42.9642 43.7817 42.9322 43.8135 42.9002 43.8452C42.8041 43.9404 42.6761 44.0673 42.58 44.1624C42.4519 44.2893 42.3239 44.3845 42.1958 44.5114C41.9717 44.7335 41.7156 44.9239 41.4595 45.1459C41.4275 45.1777 41.3954 45.1777 41.3634 45.2094C41.2354 45.3046 41.1393 45.3997 41.0113 45.4949C40.7551 45.6853 40.499 45.9074 40.2109 46.066C40.1789 46.0977 40.1789 46.0977 40.1469 46.1294C40.0188 46.2246 39.8907 46.3198 39.7627 46.3833C39.6346 46.4784 39.4745 46.5736 39.3465 46.6688C39.1864 46.764 39.0583 46.8591 38.8983 46.9226C38.7382 47.0178 38.6101 47.1129 38.4501 47.1764C38.29 47.2716 38.1619 47.335 38.0019 47.4302C37.8738 47.4937 37.7137 47.5888 37.5857 47.6523C37.5536 47.6523 37.5536 47.684 37.5216 47.684C37.3936 47.7475 37.2335 47.8109 37.1054 47.8744C36.9774 47.9378 36.8493 48.0013 36.6892 48.0647C36.6572 48.0964 36.6252 48.0965 36.5932 48.0965C36.4651 48.1599 36.3051 48.2234 36.177 48.2868C35.8568 48.4137 35.5687 48.5406 35.2486 48.6675C35.0885 48.731 34.9604 48.7627 34.8324 48.8261C34.7363 48.8579 34.6723 48.8896 34.5762 48.9213C34.4802 48.953 34.3521 48.9848 34.2561 49.0165C34.096 49.0482 33.968 49.1117 33.8079 49.1434C33.7759 49.1434 33.7118 49.1751 33.6798 49.1751C33.5518 49.2069 33.3917 49.2386 33.2636 49.302C33.1035 49.3338 32.9435 49.3972 32.7514 49.4289C32.6233 49.4607 32.5273 49.4924 32.3992 49.4924C32.3352 49.4924 32.2391 49.5241 32.1751 49.5241C31.7909 49.5876 31.4067 49.6827 31.0226 49.7145C30.9265 49.7462 30.8305 49.7462 30.7024 49.7462C30.6384 49.7462 30.5744 49.7462 30.5423 49.7779C30.4143 49.8096 30.2542 49.8096 30.1261 49.8096H30.0941C29.9661 49.8096 29.838 49.8414 29.742 49.8414C29.6459 49.8414 29.5499 49.8731 29.4218 49.8731C29.3898 49.8731 29.3578 49.8731 29.2938 49.8731C29.1977 49.8731 29.0696 49.8731 28.9736 49.9048C28.9096 49.9048 28.8135 49.9048 28.7495 49.9048C28.6535 49.9048 28.5254 49.9048 28.4293 49.9048C28.2693 49.9048 28.1092 49.9048 27.9491 49.9048H26.8606C27.3408 49.5558 27.757 49.1751 28.1732 48.7627C35.7288 41.7195 36.4331 30.5838 36.4971 28.1726C36.4971 27.9822 36.4971 27.8553 36.4971 27.7919C36.4971 27.7602 36.4971 27.7284 36.4971 27.7284C36.4971 27.665 36.4971 27.6015 36.4971 27.5063V10.8185H18.5047C17.064 10.8185 15.6233 10.9454 14.2147 11.1992C14.0866 11.231 13.9265 11.2627 13.7985 11.2944C13.5103 11.3579 13.2542 11.4213 12.9661 11.4848C12.5499 11.58 12.1337 11.7069 11.7175 11.8338C10.9811 12.0558 10.3088 12.3096 9.63651 12.5952C9.34837 12.7221 9.09225 12.849 8.80411 12.9759C8.70807 13.0076 8.61202 13.0711 8.54799 13.1028C8.38792 13.198 8.19583 13.2931 8.03575 13.3883C6.435 14.3084 5.1544 15.4822 4.19394 16.9099C4.19394 16.9099 4.19394 16.9416 4.16193 16.9416C3.80976 17.5127 3.48961 18.0838 3.20148 18.75V15.6409C3.20148 13.9594 3.4576 12.3414 3.96984 10.8503C4.96231 7.77284 6.91522 5.10787 9.44441 3.20431C9.60449 3.07741 9.76457 2.98223 9.92464 2.85533C10.0847 2.72843 10.2448 2.63325 10.4049 2.53807C10.5649 2.44289 10.725 2.34772 10.8851 2.22081C11.0452 2.12563 11.2052 2.03046 11.3973 1.93528C11.5574 1.8401 11.7495 1.74492 11.9096 1.68147C12.3578 1.45939 12.806 1.26904 13.2542 1.07868C13.8945 0.824873 14.5668 0.634518 15.2391 0.475888C15.3352 0.444162 15.4312 0.444162 15.5273 0.412437C15.8154 0.348985 16.1035 0.285533 16.4237 0.253807C16.6158 0.222081 16.8399 0.190355 17.032 0.158629C17.3201 0.126904 17.6403 0.0951777 17.9604 0.0634518C18.0565 0.0634518 18.1205 0.0634518 18.2165 0.0634518C18.4727 0 18.7288 0 18.9849 0H49.0791Z" fill="url(#paint1_linear_153_1035)"/>
<path d="M47.9586 1.14212V28.8071C47.9586 28.9657 47.9586 29.1561 47.9586 29.3147C47.9586 29.5685 47.9266 29.8541 47.9266 30.1079C47.9266 30.203 47.9266 30.2665 47.9266 30.3299C47.9266 30.4886 47.8946 30.6155 47.8946 30.7741C47.8946 30.9327 47.8625 31.0914 47.8305 31.25C47.7985 31.4086 47.7985 31.5672 47.7665 31.7259C47.7665 31.7259 47.7665 31.7259 47.7665 31.7576C47.7345 31.9162 47.7025 32.0749 47.7025 32.2335C47.6705 32.3921 47.6384 32.5508 47.6064 32.7094C47.5424 32.9949 47.4784 33.2804 47.4143 33.566C47.3503 33.8515 47.2543 34.137 47.1902 34.4226C47.0942 34.7081 47.0302 34.9619 46.9341 35.2475C46.8381 35.533 46.742 35.7868 46.646 36.0723C46.5499 36.2627 46.4859 36.4848 46.3898 36.6751C46.2938 36.8655 46.2298 37.0558 46.1337 37.2462C46.0697 37.3731 46.0057 37.4683 45.9737 37.5952C45.9416 37.6269 45.9416 37.6903 45.9096 37.7221C45.8456 37.8172 45.8136 37.9124 45.7495 38.0076C45.6215 38.2614 45.4934 38.5152 45.3334 38.769C45.2693 38.8959 45.1733 39.0228 45.1092 39.1497C45.0452 39.2449 44.9812 39.3401 44.9172 39.467C44.8851 39.4987 44.8851 39.5304 44.8531 39.5622C44.7891 39.6891 44.6931 39.7843 44.629 39.9112C44.565 40.0063 44.501 40.1015 44.4369 40.1967C44.4049 40.2284 44.4049 40.2601 44.3729 40.2919C44.3089 40.387 44.2448 40.4822 44.1488 40.5774C43.8927 40.9264 43.6366 41.2436 43.3804 41.5926C43.1883 41.8147 43.0283 42.0368 42.8362 42.2271C42.7401 42.3223 42.6441 42.4492 42.548 42.5444C42.452 42.6396 42.3559 42.7348 42.2599 42.8617C42.1639 42.9568 42.0678 43.052 41.9718 43.1472C41.8757 43.2424 41.7797 43.3376 41.6516 43.4327C41.4595 43.6231 41.2354 43.8134 41.0113 44.0038C40.7872 44.1941 40.5631 44.3845 40.339 44.5431C40.243 44.6066 40.1469 44.7018 40.0509 44.7652C40.0189 44.7969 39.9868 44.8287 39.9548 44.8287C39.8588 44.8921 39.7627 44.9873 39.6347 45.0508C39.5066 45.1459 39.4106 45.2094 39.2825 45.3046C39.1544 45.3997 39.0584 45.4632 38.9303 45.5584C38.8023 45.6218 38.7062 45.717 38.5782 45.7804C38.3221 45.9391 38.0979 46.066 37.8418 46.2246C37.7138 46.2881 37.5857 46.3515 37.4576 46.4467C37.3616 46.4784 37.2976 46.5419 37.2015 46.5736C37.1055 46.6053 37.0415 46.6688 36.9454 46.7005L36.9134 46.7322C36.8173 46.7957 36.7213 46.8274 36.5932 46.8909C36.4972 46.9226 36.4011 46.986 36.3051 47.0178C36.3051 47.0178 36.3051 47.0178 36.2731 47.0178C36.145 47.0812 36.017 47.1447 35.8889 47.1764C35.7608 47.2398 35.6328 47.3033 35.5047 47.335C35.3767 47.3985 35.2486 47.4302 35.0885 47.4936C34.9605 47.5571 34.8324 47.5888 34.7043 47.6523C34.5763 47.7157 34.4162 47.7474 34.2882 47.8109C34.1281 47.8744 34 47.9061 33.8399 47.9695C33.7119 48.0013 33.5838 48.0647 33.4558 48.0964C33.3277 48.1282 33.1996 48.1599 33.0716 48.1916C33.0396 48.1916 33.0076 48.2233 32.9755 48.2233C32.8795 48.2551 32.7514 48.2868 32.6554 48.3185C32.6234 48.3185 32.5914 48.3502 32.5273 48.3502C32.3993 48.382 32.3032 48.4137 32.1752 48.4454C31.887 48.5089 31.5989 48.5723 31.3108 48.6358C31.0226 48.6992 30.7345 48.731 30.4463 48.7627C30.2863 48.7944 30.1582 48.7944 29.9981 48.8261C29.8381 48.8261 29.71 48.8579 29.5499 48.8579C29.1017 48.8896 28.6535 48.9213 28.1733 48.9213C28.1413 48.9213 28.1413 48.9213 28.1092 48.9213C27.9812 48.9213 27.8531 48.9213 27.7251 48.9213H1.12054V46.5419C1.12054 41.8464 2.24107 37.4048 4.19399 33.4391C7.45953 26.8718 13.0942 21.7005 19.9454 19.0355C23.0509 17.8299 26.3804 17.1002 29.9021 17.0051C28.9416 17.5444 28.0132 18.1472 27.1168 18.75C20.2976 23.604 16.5198 30.5837 15.2072 38.8325H25.0678C29.774 38.8325 33.7759 36.0089 35.5047 31.9797C36.049 30.7107 36.3691 29.3147 36.4011 27.8553C36.4011 27.7919 36.4011 27.7919 36.4011 27.7919C36.4011 27.7284 36.4011 27.665 36.4011 27.5698V10.8185H18.5047C18.3767 10.8185 18.2806 10.8185 18.1526 10.8185C18.0885 10.8185 18.0245 10.8185 17.9605 10.8185C17.9285 10.8185 17.8644 10.8185 17.8324 10.8185C17.6083 10.8185 17.3842 10.8185 17.1601 10.8502C16.936 10.8502 16.7119 10.882 16.4878 10.882C16.4558 10.882 16.3917 10.882 16.3597 10.882C16.3277 10.882 16.2957 10.882 16.2637 10.882C16.1036 10.882 15.9755 10.9137 15.8155 10.9137C15.4633 10.9454 15.1111 11.0089 14.759 11.0723C14.5669 11.104 14.4068 11.1358 14.2147 11.1675C14.0866 11.1992 13.9266 11.231 13.7985 11.2627C13.5104 11.3261 13.2543 11.3896 12.9661 11.453C12.5499 11.5482 12.1337 11.6751 11.7175 11.802C10.9812 12.0241 10.3089 12.2779 9.63655 12.5634C9.34842 12.6903 9.0923 12.8172 8.80416 12.9442C8.70812 12.9759 8.61207 13.0393 8.54804 13.0711C8.38796 13.1662 8.19587 13.2614 8.0358 13.3566C6.43505 14.2766 5.15444 15.4505 4.19399 16.8782V16.0216C4.19399 14.4353 4.45011 12.8807 4.93034 11.453C6.78721 5.7741 11.9737 1.58628 18.2486 1.17385C18.5688 1.14212 18.9209 1.14212 19.2411 1.14212H47.9586Z" fill="url(#paint2_linear_153_1035)"/>
<path d="M47.9586 1.14212V28.8071C47.9586 28.9657 47.9586 29.1561 47.9586 29.3147C47.9586 29.5685 47.9265 29.8541 47.9265 30.1079C47.9265 30.203 47.9265 30.2665 47.9265 30.3299C47.9265 30.4886 47.8945 30.6155 47.8945 30.7741C47.8945 30.9327 47.8625 31.0914 47.8305 31.25C47.7985 31.4086 47.7985 31.5672 47.7665 31.7259C47.7665 31.7259 47.7665 31.7259 47.7665 31.7576C47.7345 31.9162 47.7024 32.0749 47.7024 32.2335C47.6704 32.3921 47.6384 32.5508 47.6064 32.7094C47.5424 32.9949 47.4783 33.2804 47.4143 33.566C47.3503 33.8515 47.2542 34.137 47.1902 34.4226C47.0942 34.7081 47.0301 34.9619 46.9341 35.2475C46.838 35.533 46.742 35.7868 46.6459 36.0723C46.4859 36.4848 46.3258 36.8655 46.1337 37.2462C46.0697 37.3731 46.0056 37.4683 45.9736 37.5952C45.9416 37.6269 45.9416 37.6903 45.9096 37.7221C45.8456 37.8172 45.8136 37.9124 45.7495 38.0076C45.6215 38.2614 45.4934 38.5152 45.3333 38.769C45.2693 38.8959 45.1733 39.0228 45.1092 39.1497C45.0452 39.2449 44.9812 39.3401 44.9171 39.467C44.8851 39.4987 44.8851 39.5304 44.8531 39.5622C44.7891 39.6891 44.693 39.7843 44.629 39.9112C44.565 40.0063 44.5009 40.1015 44.4369 40.1967C44.4049 40.2284 44.4049 40.2601 44.3729 40.2919C44.3089 40.387 44.2448 40.4822 44.1488 40.5774C43.8927 40.9264 43.6365 41.2436 43.3804 41.5926C43.1883 41.8147 43.0282 42.0368 42.8362 42.2271C42.7401 42.3223 42.6441 42.4492 42.548 42.5444C42.452 42.6396 42.3559 42.7348 42.2599 42.8617C42.1638 42.9568 42.0678 43.052 41.9718 43.1472C41.8757 43.2424 41.7797 43.3376 41.6516 43.4327C41.4595 43.6231 41.2354 43.8134 41.0113 44.0038C40.7872 44.1941 40.5631 44.3845 40.339 44.5431C40.2429 44.6066 40.1469 44.7018 40.0508 44.7652C40.0188 44.7969 39.9868 44.8287 39.9548 44.8287C39.8588 44.8921 39.7627 44.9873 39.6347 45.0508C39.5066 45.1459 39.4105 45.2094 39.2825 45.3046C39.1544 45.3997 39.0584 45.4632 38.9303 45.5584C38.8023 45.6218 38.7062 45.717 38.5782 45.7804C38.322 45.9391 38.0979 46.066 37.8418 46.2246C37.7137 46.2881 37.5857 46.3515 37.4576 46.4467C37.3616 46.4784 37.2976 46.5419 37.2015 46.5736C37.1055 46.6053 37.0414 46.6688 36.9454 46.7005L36.9134 46.7322C36.8173 46.7957 36.7213 46.8274 36.5932 46.8909C36.4972 46.9226 36.4011 46.986 36.3051 47.0178C36.3051 47.0178 36.3051 47.0178 36.2731 47.0178C36.145 47.0812 36.0169 47.1447 35.8889 47.1764C35.3766 47.3985 34.8324 47.6205 34.2881 47.8109C34.1281 47.8744 34 47.9061 33.8399 47.9695C33.7119 48.0013 33.5838 48.0647 33.4557 48.0964C33.3277 48.1282 33.1996 48.1599 33.0716 48.1916C33.0395 48.1916 33.0075 48.2233 32.9755 48.2233C32.8795 48.2551 32.7514 48.2868 32.6554 48.3185C32.6234 48.3185 32.5913 48.3502 32.5273 48.3502C32.3992 48.382 32.3032 48.4137 32.1751 48.4454C31.5989 48.5723 31.0226 48.6675 30.4143 48.7627C30.2542 48.7944 30.1262 48.7944 29.9661 48.8261C29.806 48.8261 29.678 48.8579 29.5179 48.8579C29.0697 48.8896 28.6215 48.9213 28.1412 48.9213H28.0772C35.6328 41.8782 36.3371 30.7424 36.4011 28.3312C36.4011 28.1409 36.4011 28.0139 36.4011 27.9505C36.4011 27.887 36.4011 27.887 36.4011 27.887C36.4011 27.8236 36.4011 27.7601 36.4011 27.665V10.8185H18.5047C17.064 10.8185 15.6233 10.9454 14.2147 11.1992C14.0866 11.231 13.9265 11.2627 13.7985 11.2944C13.5104 11.3579 13.2542 11.4213 12.9661 11.4848C12.5499 11.5799 12.1337 11.7068 11.7175 11.8337C10.9812 12.0558 10.3088 12.3096 9.63653 12.5952C9.3484 12.7221 9.09227 12.849 8.80414 12.9759C8.70809 13.0076 8.61205 13.0711 8.54802 13.1028C8.38794 13.198 8.19585 13.2931 8.03578 13.3883C6.43502 14.3084 5.15442 15.4822 4.19397 16.9099V16.0533C4.19397 14.467 4.45009 12.9124 4.93032 11.4848C6.78719 5.7741 11.9736 1.58628 18.2486 1.17385C18.5687 1.14212 18.9209 1.14212 19.2411 1.14212H47.9586Z" fill="url(#paint3_linear_153_1035)"/>
<defs>
<linearGradient id="paint0_linear_153_1035" x1="47.659" y1="16.2787" x2="-11.3343" y2="38.3537" gradientUnits="userSpaceOnUse">
<stop stop-color="#169B48"/>
<stop offset="1" stop-color="#97C740"/>
</linearGradient>
<linearGradient id="paint1_linear_153_1035" x1="3.23128" y1="25.0009" x2="49.0806" y2="25.0009" gradientUnits="userSpaceOnUse">
<stop offset="1.08255e-07" stop-color="#3A72B8"/>
<stop offset="1" stop-color="#282E71"/>
</linearGradient>
<linearGradient id="paint2_linear_153_1035" x1="-9.25342" y1="40.6244" x2="48.5454" y2="13.0264" gradientUnits="userSpaceOnUse">
<stop stop-color="#169B48"/>
<stop offset="1" stop-color="#97C740"/>
</linearGradient>
<linearGradient id="paint3_linear_153_1035" x1="26.8236" y1="24.4398" x2="66.2849" y2="26.438" gradientUnits="userSpaceOnUse">
<stop offset="1.08255e-07" stop-color="#3A72B8"/>
<stop offset="1" stop-color="#282E71"/>
</linearGradient>
</defs>
</svg>
