<svg width="23" height="23" viewBox="0 0 23 23" fill="none" xmlns="http://www.w3.org/2000/svg">
<g clip-path="url(#clip0_58_2439)">
<path d="M11.4594 23.0077L10.7914 22.4351C9.87043 21.664 1.8291 14.7192 1.8291 9.63922C1.8291 4.32056 6.14075 0.00891113 11.4594 0.00891113C16.7781 0.00891113 21.0897 4.32056 21.0897 9.63922C21.0897 14.7192 13.0484 21.664 12.1313 22.4389L11.4594 23.0077ZM11.4594 2.09126C7.29277 2.09598 3.91622 5.47254 3.9115 9.63917C3.9115 12.8305 8.85884 17.9286 11.4594 20.262C14.06 17.9277 19.0073 12.8267 19.0073 9.63917C19.0026 5.47254 15.6261 2.09603 11.4594 2.09126Z" fill="#34489E"/>
<path d="M11.459 13.4566C9.3507 13.4566 7.6416 11.7475 7.6416 9.63921C7.6416 7.53094 9.3507 5.82184 11.459 5.82184C13.5672 5.82184 15.2763 7.53094 15.2763 9.63921C15.2763 11.7475 13.5673 13.4566 11.459 13.4566ZM11.459 7.73048C10.4048 7.73048 9.55029 8.58503 9.55029 9.63916C9.55029 10.6933 10.4048 11.5478 11.459 11.5478C12.5131 11.5478 13.3677 10.6933 13.3677 9.63916C13.3677 8.58503 12.5132 7.73048 11.459 7.73048Z" fill="#34489E"/>
</g>
<defs>
<clipPath id="clip0_58_2439">
<rect width="23" height="23" fill="white"/>
</clipPath>
</defs>
</svg>
