<svg width="30" height="30" viewBox="0 0 30 30" fill="none" xmlns="http://www.w3.org/2000/svg">
<path d="M2.97248 14.4566C4.02501 16.7877 5.81748 19.3132 7.89016 21.3859C10.1008 23.5966 12.5398 25.3471 14.7578 26.3148C15.9654 26.8418 17.0458 27.1053 17.9548 27.1053C18.8594 27.1053 19.5942 26.8444 20.1159 26.3226L22.2079 24.2309C22.8435 23.5948 22.7865 22.5032 22.0807 21.797L18.9979 18.7141C18.2917 18.0085 17.1996 17.9516 16.564 18.5872L15.6041 19.5471C15.3383 19.746 13.6942 19.2396 11.8444 17.39C9.99399 15.5398 9.48655 13.8946 9.68632 13.6311L10.6473 12.6703C11.2831 12.0342 11.226 10.9422 10.5201 10.2365L7.43729 7.15349C6.73097 6.4477 5.63919 6.39067 5.00344 7.02659L2.91176 9.1181C1.86768 10.162 1.88915 12.058 2.97248 14.4566ZM3.9312 10.1377L6.02288 8.04603C6.03732 8.0316 6.06601 8.02315 6.10332 8.02315C6.18499 8.02315 6.30855 8.06398 6.41785 8.17311L9.50063 11.2559C9.65992 11.4152 9.67348 11.6049 9.62771 11.6507L8.66671 12.6115C7.47196 13.8066 8.848 16.4328 10.8249 18.4094C11.8093 19.3938 12.8918 20.1801 13.873 20.6232C15.4881 21.3526 16.2889 20.9015 16.6226 20.5674L17.5835 19.6066C17.6298 19.5607 17.819 19.5746 17.9784 19.7337L21.061 22.8165C21.2203 22.9758 21.2341 23.1655 21.1883 23.2114L19.0964 25.3031C18.516 25.8838 17.1098 25.7681 15.3344 24.9934C13.2776 24.0959 10.996 22.4527 8.9096 20.3664C6.95538 18.412 5.27027 16.0417 4.28656 13.8631C3.49153 12.1028 3.35864 10.7103 3.9312 10.1377ZM26.864 16.0548C26.864 8.23594 20.5031 1.875 12.6845 1.875V3.31686C19.7081 3.31686 25.4222 9.03115 25.4222 16.0548H26.864Z" fill="black"/>
<path d="M13.3877 5.97217V7.47217C18.589 7.47217 22.8206 11.7037 22.8206 16.905H24.3206C24.3206 10.8766 19.4161 5.97217 13.3877 5.97217Z" fill="black"/>
<path d="M19.0021 16.9049H20.5021C20.5021 12.9821 17.3105 9.79053 13.3877 9.79053V11.2905C16.4835 11.2905 19.0021 13.8091 19.0021 16.9049Z" fill="black"/>
</svg>
