<svg width="23" height="23" viewBox="0 0 23 23" fill="none" xmlns="http://www.w3.org/2000/svg">
<g clip-path="url(#clip0_58_2437)">
<path d="M12.458 0.958338C12.458 0.704172 12.559 0.460416 12.7387 0.280694C12.9184 0.100972 13.1622 4.54835e-06 13.4163 4.54835e-06C15.9571 0.00279483 18.3931 1.01336 20.1897 2.80998C21.9863 4.6066 22.9969 7.04254 22.9997 9.58334C22.9997 9.8375 22.8987 10.0813 22.719 10.261C22.5393 10.4407 22.2955 10.5417 22.0413 10.5417C21.7872 10.5417 21.5434 10.4407 21.3637 10.261C21.184 10.0813 21.083 9.8375 21.083 9.58334C21.0807 7.55071 20.2722 5.60199 18.835 4.16471C17.3977 2.72742 15.449 1.91895 13.4163 1.91667C13.1622 1.91667 12.9184 1.8157 12.7387 1.63598C12.559 1.45626 12.458 1.2125 12.458 0.958338ZM13.4163 5.75C14.433 5.75 15.408 6.15387 16.1269 6.87276C16.8458 7.59165 17.2497 8.56667 17.2497 9.58334C17.2497 9.8375 17.3506 10.0813 17.5304 10.261C17.7101 10.4407 17.9538 10.5417 18.208 10.5417C18.4622 10.5417 18.7059 10.4407 18.8856 10.261C19.0654 10.0813 19.1663 9.8375 19.1663 9.58334C19.1648 8.05881 18.5585 6.59716 17.4805 5.51915C16.4025 4.44115 14.9409 3.83486 13.4163 3.83334C13.1622 3.83334 12.9184 3.9343 12.7387 4.11403C12.559 4.29375 12.458 4.53751 12.458 4.79167C12.458 5.04584 12.559 5.28959 12.7387 5.46931C12.9184 5.64904 13.1622 5.75 13.4163 5.75ZM22.1305 16.0415C22.6858 16.5984 22.9977 17.3528 22.9977 18.1393C22.9977 18.9258 22.6858 19.6802 22.1305 20.2371L21.2584 21.2424C13.4096 28.7567 -5.68997 9.66192 1.70837 1.78825L2.81045 0.829921C3.36798 0.29007 4.11564 -0.00857342 4.89167 -0.00139956C5.6677 0.00577429 6.40971 0.318189 6.95716 0.868254C6.98687 0.897963 8.76266 3.20467 8.76266 3.20467C9.28958 3.75823 9.5829 4.49356 9.58165 5.25781C9.58041 6.02205 9.28468 6.75642 8.75595 7.30825L7.6462 8.70359C8.26035 10.1958 9.16331 11.552 10.3032 12.6942C11.4431 13.8364 12.7974 14.7421 14.2884 15.3592L15.6924 14.2428C16.2443 13.7144 16.9785 13.4191 17.7425 13.418C18.5065 13.4169 19.2416 13.7102 19.795 14.237C19.795 14.237 22.1007 16.0118 22.1305 16.0415ZM20.8118 17.435C20.8118 17.435 18.5185 15.6707 18.4888 15.641C18.2914 15.4452 18.0246 15.3354 17.7466 15.3354C17.4685 15.3354 17.2018 15.4452 17.0043 15.641C16.9785 15.6678 15.0455 17.2078 15.0455 17.2078C14.9152 17.3115 14.7602 17.3795 14.5957 17.405C14.4312 17.4306 14.2629 17.4128 14.1073 17.3535C12.1757 16.6343 10.4213 15.5085 8.9628 14.0521C7.50431 12.5958 6.37584 10.843 5.65383 8.9125C5.58981 8.75482 5.56894 8.58292 5.59336 8.4145C5.61778 8.24607 5.68662 8.08718 5.79279 7.95417C5.79279 7.95417 7.33283 6.02025 7.3587 5.99534C7.55446 5.79791 7.6643 5.53114 7.6643 5.25311C7.6643 4.97508 7.55446 4.70831 7.3587 4.51088C7.329 4.48213 5.5647 2.18692 5.5647 2.18692C5.36432 2.00724 5.10279 1.91101 4.83373 1.91796C4.56467 1.92491 4.30847 2.03451 4.11762 2.2243L3.01554 3.18263C-2.39138 9.68396 14.16 25.3173 19.8573 19.9333L20.7303 18.9271C20.9349 18.7376 21.0578 18.476 21.073 18.1975C21.0882 17.9191 20.9945 17.6456 20.8118 17.435Z" fill="#34489E"/>
</g>
<defs>
<clipPath id="clip0_58_2437">
<rect width="23" height="23" fill="white"/>
</clipPath>
</defs>
</svg>
